<svg width="928" height="928" viewBox="0 0 928 928" fill="none" xmlns="http://www.w3.org/2000/svg">
<path d="M928 464C928 720.263 720.263 928 464 928C207.737 928 0 720.263 0 464C0 207.737 207.737 0 464 0C720.263 0 928 207.737 928 464Z" fill="#FFD400"/>
<path d="M558.229 918.421C769.307 874.878 928 687.971 928 464C928 451.383 927.476 438.894 926.492 426.532L791.291 291.331L136.709 383.761L320.791 567.844L245.353 605.545L558.229 918.421Z" fill="#FDBA12"/>
<path d="M682.647 605.545L464 641.795L245.353 605.545V354.648H682.647V605.545Z" fill="#555A66"/>
<path d="M464 641.795L682.647 605.545V354.648H463.568L464 641.795Z" fill="#414952"/>
<path d="M744.938 354.648H768.5V607.188H744.938V354.648Z" fill="#555A66"/>
<path d="M755.94 354.648H768.5V607.188H755.94V354.648Z" fill="#414952"/>
<path d="M791.609 686.938H721.828L737.199 594.727C738.785 585.183 747.04 578.188 756.719 578.188C766.397 578.188 774.653 585.183 776.239 594.727L791.609 686.938Z" fill="#FA5D0F"/>
<path d="M776.239 594.727C774.653 585.183 766.397 578.188 756.719 578.188C756.457 578.188 756.202 578.216 755.94 578.223V686.938H791.609L776.239 594.727Z" fill="#EF3800"/>
<path d="M136.709 291.331H791.284V383.761H136.709V291.331Z" fill="#414952"/>
<path d="M463.568 291.331H791.291V383.761H463.568V291.331Z" fill="#23272B"/>
</svg>
