<svg width="255" height="249" viewBox="0 0 255 249" fill="none" xmlns="http://www.w3.org/2000/svg">
<path d="M37.3082 228.88C87.0426 254.865 167.678 254.865 217.412 228.88C267.147 202.895 267.152 160.773 217.412 134.788C167.672 108.803 87.0426 108.809 37.3023 134.788C-12.438 160.768 -12.4321 202.889 37.3082 228.88Z" fill="#F5F5F5"/>
<path d="M100.151 206.314C113.554 212.703 135.281 212.703 148.655 206.314C162.029 199.926 162.058 189.574 148.655 183.186C135.251 176.798 113.531 176.798 100.151 183.186C86.7706 189.574 86.7232 199.932 100.151 206.314Z" fill="#EBEBEB"/>
<path d="M216.182 190.503L168.269 218.156C167.872 218.357 167.434 218.462 166.989 218.462C166.544 218.462 166.105 218.357 165.708 218.156L105.817 183.565C105.663 183.512 105.529 183.413 105.434 183.28C105.338 183.147 105.287 182.988 105.287 182.825C105.287 182.662 105.338 182.503 105.434 182.37C105.529 182.238 105.663 182.138 105.817 182.086L153.73 154.433C154.127 154.231 154.566 154.127 155.01 154.127C155.455 154.127 155.894 154.231 156.291 154.433L216.2 189.024C216.353 189.078 216.487 189.18 216.58 189.313C216.673 189.447 216.723 189.607 216.721 189.77C216.719 189.933 216.666 190.092 216.569 190.223C216.472 190.355 216.337 190.452 216.182 190.503Z" fill="#EBEBEB"/>
<path d="M229.515 38.4899V51.1897C229.515 51.1897 224.297 53.6326 214.727 53.6326C205.156 53.6326 199.939 51.1838 199.939 51.1838V38.762L209.924 10.5054C209.788 11.3927 210.308 12.2799 211.479 12.9779C212.336 13.5067 213.31 13.8163 214.315 13.8792C215.32 13.9422 216.325 13.7565 217.241 13.3388C217.498 13.2376 217.747 13.117 217.986 12.9779C219.228 12.2622 219.76 11.2803 219.518 10.3457L229.515 38.4899Z" fill="#F5F5F5"/>
<path opacity="0.5" d="M229.515 38.4899V51.1897C229.515 51.1897 224.297 53.6326 214.727 53.6326C205.156 53.6326 199.939 51.1838 199.939 51.1838V38.762L209.924 10.5054C209.788 11.3927 210.308 12.2799 211.479 12.9779C212.336 13.5067 213.31 13.8163 214.315 13.8792C215.32 13.9422 216.325 13.7565 217.241 13.3388C217.498 13.2376 217.747 13.117 217.986 12.9779C219.228 12.2622 219.76 11.2803 219.518 10.3457L229.515 38.4899Z" fill="white"/>
<path d="M228.367 127.513C227.51 128.642 226.423 129.577 225.179 130.257C219.394 133.599 210.018 133.599 204.239 130.257C202.993 129.578 201.904 128.643 201.045 127.513C200.378 126.625 199.983 125.563 199.909 124.454V131.05C200.016 133.156 201.453 135.244 204.239 136.853C210.018 140.189 219.394 140.189 225.179 136.853C228.065 135.185 229.515 132.996 229.515 130.807V124.218C229.493 125.41 229.09 126.565 228.367 127.513V127.513Z" fill="#F5F5F5"/>
<path d="M228.367 120.917C227.51 122.047 226.423 122.982 225.179 123.662C224.836 123.857 224.487 124.04 224.126 124.212C218.666 126.815 210.746 126.815 205.292 124.212C204.931 124.04 204.576 123.857 204.239 123.662C202.993 122.983 201.904 122.047 201.045 120.917C200.378 120.032 199.983 118.971 199.909 117.865V124.455C199.983 125.563 200.378 126.625 201.045 127.513C201.904 128.643 202.993 129.578 204.239 130.257C210.018 133.599 219.394 133.599 225.179 130.257C226.423 129.577 227.51 128.642 228.367 127.513C229.09 126.565 229.493 125.41 229.515 124.218V117.623C229.493 118.815 229.091 119.969 228.367 120.917Z" fill="#EBEBEB"/>
<path d="M228.367 114.322C227.509 115.452 226.422 116.389 225.179 117.072C224.836 117.268 224.487 117.445 224.126 117.622C218.666 120.225 210.746 120.225 205.292 117.622C204.931 117.445 204.576 117.268 204.239 117.072C202.994 116.389 201.906 115.452 201.045 114.322C200.378 113.436 199.983 112.376 199.909 111.27V117.865C199.983 118.971 200.378 120.032 201.045 120.917C201.904 122.047 202.993 122.983 204.239 123.662C204.576 123.857 204.931 124.04 205.292 124.212C210.746 126.815 218.666 126.815 224.126 124.212C224.487 124.04 224.836 123.857 225.179 123.662C226.423 122.982 227.51 122.047 228.367 120.917C229.091 119.969 229.493 118.815 229.515 117.622V111.027C229.494 112.22 229.092 113.374 228.367 114.322V114.322Z" fill="#F5F5F5"/>
<path d="M199.909 38.7384V111.27C199.983 112.376 200.378 113.437 201.045 114.322C201.906 115.452 202.994 116.389 204.239 117.072C204.576 117.268 204.931 117.445 205.292 117.623C206.722 118.289 208.228 118.78 209.776 119.084L207.096 42.6424L199.909 38.7384Z" fill="#F5F5F5"/>
<path d="M222.322 42.6423L219.636 119.084C221.184 118.78 222.69 118.289 224.12 117.623C224.481 117.445 224.83 117.268 225.173 117.072C226.417 116.389 227.503 115.452 228.361 114.322C229.086 113.374 229.488 112.22 229.509 111.027V38.4899L222.322 42.6423Z" fill="#F5F5F5"/>
<path d="M199.909 38.7384V111.27C199.983 112.376 200.378 113.437 201.045 114.322C201.906 115.452 202.994 116.389 204.239 117.072C204.576 117.268 204.931 117.445 205.292 117.623C206.722 118.289 208.228 118.78 209.776 119.084L207.096 42.6424L199.909 38.7384Z" fill="#E0E0E0"/>
<path d="M222.322 42.6423L219.636 119.084C221.184 118.78 222.69 118.289 224.12 117.623C224.481 117.445 224.83 117.268 225.173 117.072C226.417 116.389 227.503 115.452 228.361 114.322C229.086 113.374 229.488 112.22 229.509 111.027V38.4899L222.322 42.6423Z" fill="#E0E0E0"/>
<path d="M207.096 42.6423V118.356C207.972 118.659 208.867 118.904 209.776 119.089C211.4 119.418 213.052 119.582 214.709 119.58C216.365 119.579 218.018 119.415 219.642 119.089C220.55 118.904 221.446 118.659 222.322 118.356V42.6423H207.096Z" fill="#EBEBEB"/>
<path d="M217.962 12.9484C217.723 13.0874 217.474 13.208 217.217 13.3092C216.301 13.727 215.296 13.9126 214.291 13.8497C213.286 13.7867 212.312 13.4772 211.456 12.9484C210.273 12.274 209.764 11.3631 209.9 10.4758L213.307 0.934735C213.419 0.655733 213.613 0.417167 213.863 0.250372C214.113 0.0835763 214.408 -0.00365098 214.709 0.000143559V0.000143559C215.01 -0.0040319 215.306 0.0829628 215.557 0.249731C215.809 0.416499 216.004 0.655263 216.117 0.934735L219.488 10.3043C219.719 11.2389 219.204 12.2326 217.962 12.9484Z" fill="#E0E0E0"/>
<path d="M225.179 136.853C220.21 139.721 212.591 140.118 206.877 138.036C206.558 137.925 206.244 137.801 205.937 137.663L205.511 137.486C205.067 137.284 204.641 137.066 204.239 136.835C201.453 135.226 200.016 133.138 199.909 131.032V149.002C199.803 151.274 201.24 153.563 204.239 155.29C204.594 155.497 204.967 155.692 205.351 155.882C205.493 155.953 205.647 156.006 205.789 156.071C206.037 156.177 206.28 156.29 206.534 156.384C206.789 156.479 206.931 156.526 207.126 156.591C207.321 156.657 207.546 156.745 207.765 156.81C207.983 156.875 208.25 156.946 208.492 157.011C208.735 157.076 208.865 157.118 209.054 157.159C209.243 157.201 209.616 157.283 209.9 157.337C210.06 157.337 210.219 157.408 210.379 157.431C210.698 157.491 211.024 157.532 211.349 157.579L211.734 157.632C212.094 157.674 212.455 157.703 212.816 157.727H213.1C213.496 157.757 213.893 157.769 214.283 157.774H214.472C214.898 157.774 215.324 157.774 215.75 157.774H215.845C216.294 157.774 216.744 157.721 217.193 157.68C219.828 157.456 222.394 156.721 224.747 155.515V155.515C224.877 155.444 225.013 155.385 225.143 155.308C228.03 153.64 229.479 151.451 229.479 149.263V130.807C229.515 132.996 228.065 135.185 225.179 136.853Z" fill="#E0E0E0"/>
<path d="M46.6068 147.334C44.8973 146.902 35.7703 141.709 34.8416 141.076C33.9129 140.443 32.0792 139.136 32.0792 136.882C32.0792 134.889 32.2863 116.09 33.9188 107.011C34.4552 104.186 35.5636 101.501 37.1759 99.1209C38.7882 96.7406 40.8704 94.7152 43.2943 93.1693C48.9729 89.6498 54.681 87.1003 59.49 89.0997C64.299 91.099 68.688 94.7723 70.5808 99.2086C72.4737 103.645 73.7691 112.529 73.9051 115.966C74.0412 119.403 73.9051 131.186 73.9051 132.233C73.9051 133.28 73.7159 134.64 68.0787 138.148C62.4416 141.656 54.6573 145.838 52.2498 146.92C50.4591 147.648 48.4846 147.793 46.6068 147.334V147.334Z" fill="#37474F"/>
<path d="M45.199 95.6123C44.6785 95.908 43.176 95.1686 42.9513 94.796C42.7265 94.4233 42.6673 91.1996 43.7912 89.4191C44.9151 87.6387 51.9245 84.3558 53.6576 84.5983C54.3068 84.704 54.9275 84.9411 55.4818 85.295C56.0361 85.649 56.5124 86.1123 56.8814 86.6568C57.0943 87.1122 57.3309 90.1112 56.8814 90.7264C56.4318 91.3415 54.8288 90.3951 54.6869 90.1349C54.5449 89.8746 55.2133 87.6801 54.0954 87.2246C53.0661 86.8106 48.1802 88.8868 46.1927 90.5548C45.3291 91.2824 45.3705 93.0865 45.4119 93.9797C45.4534 94.8729 45.4593 95.4585 45.199 95.6123Z" fill="#455A64"/>
<path d="M43.7912 116.777C44.7968 107.011 46.6068 101.308 56.1597 97.0555C65.7127 92.8025 69.4215 96.4226 70.776 99.6818C72.5506 104.248 73.775 112.648 73.9051 115.966C74.0412 119.403 73.9051 131.186 73.9051 132.233C73.9051 133.28 73.7158 134.64 68.0787 138.148C62.4416 141.656 54.6573 145.838 52.2498 146.92C50.461 147.654 48.4864 147.805 46.6068 147.352C46.2293 147.237 45.8614 147.093 45.5066 146.92C42.5313 143.099 42.8684 125.697 43.7912 116.777Z" fill="#455A64"/>
<path d="M66.0617 93.2404C63.5655 91.7794 59.4722 90.8152 53.4624 93.4948C42.7206 98.2801 39.9937 104.272 38.9112 114.789C38.716 116.718 38.4262 119.013 38.3197 121.479L37.4324 120.941C37.5566 118.279 37.8169 116.002 38.0239 113.943C39.207 103.349 42.3834 97.4934 52.6461 92.921C58.3306 90.3893 62.063 90.7206 64.5356 91.9687C65.0665 92.3651 65.576 92.7896 66.0617 93.2404Z" fill="#263238"/>
<path d="M66.4343 93.5125C63.9441 92.0514 59.8449 91.0873 53.841 93.7668C43.0932 98.5522 40.3663 104.544 39.2839 115.061C39.0887 116.99 38.7988 119.285 38.6924 121.751L37.8051 121.213C37.9293 118.551 38.1896 116.274 38.3966 114.215C39.5796 103.621 42.7561 97.7595 53.0188 93.193C58.7032 90.6614 62.5363 91.0813 65.0088 92.3235C65.5059 92.6927 65.9819 93.0897 66.4343 93.5125V93.5125Z" fill="#455A64"/>
<path d="M62.9562 102.799L59.7088 100.942C59.5486 100.852 59.3593 100.829 59.1821 100.877C59.0049 100.926 58.8541 101.043 58.7624 101.202L55.4322 106.993C55.3394 107.152 55.3134 107.342 55.36 107.52C55.4065 107.699 55.5218 107.852 55.6806 107.945L58.8866 109.814C59.046 109.907 59.2356 109.933 59.414 109.887C59.5925 109.84 59.7452 109.725 59.8389 109.566L63.2106 103.74C63.2568 103.661 63.2869 103.575 63.2991 103.485C63.3114 103.395 63.3054 103.303 63.2817 103.216C63.258 103.128 63.217 103.046 63.1611 102.974C63.1052 102.903 63.0355 102.843 62.9562 102.799V102.799Z" fill="#263238"/>
<path d="M59.4722 109.152L62.6723 103.633C62.6954 103.594 62.7103 103.55 62.7162 103.505C62.7222 103.459 62.719 103.413 62.7069 103.369C62.6947 103.325 62.6739 103.284 62.6456 103.248C62.6173 103.212 62.5822 103.182 62.5422 103.16L59.5846 101.48C59.5045 101.435 59.4098 101.424 59.3213 101.448C59.2327 101.472 59.1573 101.531 59.1114 101.61L55.9468 107.105C55.9018 107.186 55.8903 107.28 55.9146 107.369C55.939 107.457 55.9973 107.533 56.0769 107.579L58.9813 109.276C59.0213 109.302 59.0661 109.319 59.1129 109.326C59.1597 109.334 59.2075 109.331 59.2534 109.32C59.2994 109.308 59.3425 109.287 59.3801 109.258C59.4177 109.23 59.449 109.193 59.4722 109.152V109.152Z" fill="#455A64"/>
<path d="M60.1584 106.514C60.2436 106.462 60.3158 106.392 60.3692 106.308C60.4225 106.223 60.4557 106.128 60.466 106.029V103.385C60.466 103.213 60.3299 103.16 60.1584 103.255C60.0731 103.306 60.001 103.377 59.9476 103.461C59.8942 103.545 59.8611 103.641 59.8508 103.74V106.384C59.8508 106.555 59.9868 106.609 60.1584 106.514Z" fill="#37474F"/>
<path d="M58.443 107.508C58.5281 107.454 58.6 107.383 58.6533 107.298C58.7066 107.213 58.7398 107.116 58.7506 107.017V104.379C58.7506 104.207 58.6086 104.148 58.443 104.248C58.3571 104.299 58.2845 104.37 58.231 104.454C58.1775 104.538 58.1448 104.634 58.1354 104.733V107.378C58.1531 107.543 58.2714 107.602 58.443 107.508Z" fill="#37474F"/>
<path d="M48.2157 125.034C48.2157 125.034 49.8246 126.359 50.984 131.351C52.1434 136.344 52.8414 142.632 51.5755 143.389C50.3097 144.146 48.4819 142.561 48.0264 142.016C47.0918 140.898 47.3225 129.033 48.2157 125.034Z" fill="#263238"/>
<path d="M48.2157 125.034C48.2157 125.034 49.8246 126.359 50.984 131.351C52.1434 136.344 52.8413 142.632 51.5755 143.389L71.0954 131.878C72.3731 131.121 72.6866 124.514 71.5332 119.521C70.7701 116.238 69.3682 114.677 68.5046 113.991C68.3065 113.838 68.0671 113.747 67.8173 113.732C67.5674 113.716 67.3186 113.775 67.1027 113.902L48.2157 125.034Z" fill="#37474F"/>
<path d="M68.1024 114.754C69.037 115.215 70.6222 116.487 71.338 119.864C71.4587 120.324 71.4478 120.808 71.3066 121.262C71.1654 121.716 70.8996 122.121 70.5394 122.431C69.8888 122.893 55.9172 130.837 54.0658 131.943C52.4687 132.895 51.6406 131.629 51.2916 130.837C50.7001 129.429 50.1914 128.335 49.7537 127.495C49.4194 126.579 48.8976 125.743 48.2216 125.04L66.8366 114.807C67.027 114.695 67.2421 114.632 67.4628 114.622C67.6836 114.613 67.9032 114.658 68.1024 114.754V114.754Z" fill="#263238"/>
<path d="M38.923 122.302C39.1934 123.318 39.3696 124.358 39.4495 125.407C39.4495 125.62 39.1596 125.732 39.0768 125.732C38.4004 125.596 37.7743 125.277 37.2668 124.81C37.3616 123.915 37.5238 123.029 37.7518 122.16L38.923 122.302Z" fill="#263238"/>
<path d="M39.5264 121.467C39.5264 121.244 39.4601 121.025 39.336 120.84C39.2118 120.654 39.0354 120.509 38.8289 120.424C38.6225 120.338 38.3953 120.316 38.1762 120.359C37.957 120.403 37.7557 120.51 37.5977 120.668C37.4397 120.826 37.3321 121.028 37.2885 121.247C37.2449 121.466 37.2673 121.693 37.3528 121.9C37.4383 122.106 37.5831 122.283 37.7689 122.407C37.9547 122.531 38.1731 122.597 38.3966 122.597C38.6962 122.597 38.9836 122.478 39.1955 122.266C39.4074 122.054 39.5264 121.767 39.5264 121.467V121.467Z" fill="#263238"/>
<path d="M53.6576 87.1714C54.8939 87.0531 56.0592 87.1714 56.3549 88.4077C56.6507 89.6439 56.5442 90.7737 56.3549 90.9275C55.7286 90.8481 55.144 90.5704 54.6869 90.1349C54.5449 89.8687 55.2133 87.6801 54.0954 87.2246C53.9583 87.1791 53.8135 87.161 53.6695 87.1714H53.6576Z" fill="#263238"/>
<path d="M67.221 113.837C67.4122 113.724 67.6284 113.66 67.8502 113.651C68.0721 113.641 68.2928 113.687 68.4928 113.784C69.4274 114.245 71.0126 115.517 71.7284 118.894C71.8483 119.354 71.8371 119.838 71.696 120.292C71.5549 120.746 71.2894 121.151 70.9298 121.461C70.2792 121.923 56.3135 129.867 54.4621 130.973C52.865 131.925 52.031 130.659 51.682 129.867C49.7477 125.821 48.2157 125.034 48.2157 125.034L67.221 113.837Z" fill="#37474F"/>
<path d="M63.8731 182.654L48.2098 173.615C47.8008 173.348 47.4603 172.988 47.2158 172.564C46.9713 172.141 46.8296 171.666 46.802 171.178V171.356C46.8286 170.867 46.97 170.392 47.2146 169.969C47.4592 169.546 47.8002 169.186 48.2098 168.919L79.7079 150.736C80.143 150.514 80.6244 150.398 81.1127 150.398C81.6011 150.398 82.0825 150.514 82.5176 150.736L98.1808 159.78C98.591 160.045 98.9325 160.403 99.1772 160.826C99.422 161.249 99.563 161.723 99.5886 162.211V162.033C99.5627 162.521 99.4222 162.996 99.1787 163.419C98.9351 163.843 98.5953 164.203 98.1868 164.47L66.6887 182.654C66.2525 182.875 65.7702 182.991 65.2809 182.991C64.7916 182.991 64.3092 182.875 63.8731 182.654V182.654Z" fill="#BA68C8"/>
<path opacity="0.7" d="M63.8731 182.654L48.2098 173.615C47.8008 173.348 47.4603 172.988 47.2158 172.564C46.9713 172.141 46.8296 171.666 46.802 171.178V171.356C46.8286 170.867 46.97 170.392 47.2146 169.969C47.4592 169.546 47.8002 169.186 48.2098 168.919L79.7079 150.736C80.143 150.514 80.6244 150.398 81.1127 150.398C81.6011 150.398 82.0825 150.514 82.5176 150.736L98.1808 159.78C98.591 160.045 98.9325 160.403 99.1772 160.826C99.422 161.249 99.563 161.723 99.5886 162.211V162.033C99.5627 162.521 99.4222 162.996 99.1787 163.419C98.9351 163.843 98.5953 164.203 98.1868 164.47L66.6887 182.654C66.2525 182.875 65.7702 182.991 65.2809 182.991C64.7916 182.991 64.3092 182.875 63.8731 182.654V182.654Z" fill="black"/>
<path d="M65.2513 159.064L48.1862 168.919C47.7765 169.186 47.4355 169.545 47.1909 169.969C46.9463 170.392 46.805 170.867 46.7784 171.356V171.178C46.8059 171.666 46.9477 172.141 47.1922 172.564C47.4367 172.988 47.7772 173.347 48.1862 173.615L63.8494 182.654C64.2823 182.884 64.7669 183 65.2572 182.991L65.2513 159.064Z" fill="#BA68C8"/>
<path opacity="0.7" d="M65.2513 159.064L48.1862 168.919C47.7765 169.186 47.4355 169.545 47.1909 169.969C46.9463 170.392 46.805 170.867 46.7784 171.356V171.178C46.8059 171.666 46.9477 172.141 47.1922 172.564C47.4367 172.988 47.7772 173.347 48.1862 173.615L63.8494 182.654C64.2823 182.884 64.7669 183 65.2572 182.991L65.2513 159.064Z" fill="black"/>
<path d="M48.2039 170.545L63.8613 179.59C64.2983 179.808 64.7803 179.922 65.2691 179.922C65.7578 179.922 66.2398 179.808 66.6769 179.59L98.1749 161.401C98.9557 160.951 98.9557 160.218 98.1749 159.78L82.5117 150.736C82.0766 150.514 81.5952 150.398 81.1068 150.398C80.6185 150.398 80.1371 150.514 79.702 150.736L48.2039 168.919C47.4231 169.368 47.4231 170.096 48.2039 170.545Z" fill="#BA68C8"/>
<path opacity="0.5" d="M48.2039 170.545L63.8613 179.59C64.2983 179.808 64.7803 179.922 65.2691 179.922C65.7578 179.922 66.2398 179.808 66.6769 179.59L98.1749 161.401C98.9557 160.951 98.9557 160.218 98.1749 159.78L82.5117 150.736C82.0766 150.514 81.5952 150.398 81.1068 150.398C80.6185 150.398 80.1371 150.514 79.702 150.736L48.2039 168.919C47.4231 169.368 47.4231 170.096 48.2039 170.545Z" fill="black"/>
<path d="M48.2039 167.57V169.072L64.4587 178.46C64.7062 178.602 64.9866 178.677 65.272 178.677C65.5574 178.677 65.8379 178.602 66.0853 178.46L98.1749 159.928V158.378L65.2691 174.349L48.2039 167.57Z" fill="#BA68C8"/>
<path d="M63.8672 176.614L48.2039 167.57C47.7936 167.304 47.4521 166.944 47.2074 166.52C46.9628 166.097 46.8218 165.621 46.7961 165.133V162.24C46.8218 161.752 46.9628 161.276 47.2074 160.853C47.4521 160.429 47.7936 160.07 48.2039 159.803L79.702 141.614C80.1371 141.393 80.6185 141.277 81.1068 141.277C81.5952 141.277 82.0766 141.393 82.5117 141.614L98.1749 150.659C98.5853 150.925 98.9267 151.285 99.1714 151.708C99.4161 152.132 99.557 152.607 99.5827 153.096V155.994C99.5531 156.472 99.41 156.936 99.1651 157.347C98.9203 157.759 98.5808 158.106 98.1749 158.36L66.6769 176.596C66.2432 176.821 65.7625 176.94 65.2741 176.943C64.7858 176.946 64.3037 176.833 63.8672 176.614Z" fill="#BA68C8"/>
<path opacity="0.6" d="M63.8672 176.614L48.2039 167.57C47.7936 167.304 47.4521 166.944 47.2074 166.52C46.9628 166.097 46.8218 165.621 46.7961 165.133V162.24C46.8218 161.752 46.9628 161.276 47.2074 160.853C47.4521 160.429 47.7936 160.07 48.2039 159.803L79.702 141.614C80.1371 141.393 80.6185 141.277 81.1068 141.277C81.5952 141.277 82.0766 141.393 82.5117 141.614L98.1749 150.659C98.5853 150.925 98.9267 151.285 99.1714 151.708C99.4161 152.132 99.557 152.607 99.5827 153.096V155.994C99.5531 156.472 99.41 156.936 99.1651 157.347C98.9203 157.759 98.5808 158.106 98.1749 158.36L66.6769 176.596C66.2432 176.821 65.7625 176.94 65.2741 176.943C64.7858 176.946 64.3037 176.833 63.8672 176.614Z" fill="black"/>
<path d="M65.2513 149.949L48.1862 159.803C47.7758 160.07 47.4344 160.429 47.1897 160.853C46.945 161.276 46.8041 161.752 46.7784 162.24V165.133C46.8041 165.621 46.945 166.097 47.1897 166.52C47.4344 166.944 47.7758 167.304 48.1862 167.57L63.8494 176.614C64.2799 176.845 64.7628 176.961 65.2513 176.951V149.949Z" fill="#BA68C8"/>
<path opacity="0.7" d="M65.2513 149.949L48.1862 159.803C47.7758 160.07 47.4344 160.429 47.1897 160.853C46.945 161.276 46.8041 161.752 46.7784 162.24V165.133C46.8041 165.621 46.945 166.097 47.1897 166.52C47.4344 166.944 47.7758 167.304 48.1862 167.57L63.8494 176.614C64.2799 176.845 64.7628 176.961 65.2513 176.951V149.949Z" fill="black"/>
<path d="M48.2039 161.424L63.8613 170.468C64.2974 170.69 64.7798 170.806 65.2691 170.806C65.7584 170.806 66.2407 170.69 66.6769 170.468L98.1749 152.285C98.9557 151.836 98.9557 151.102 98.1749 150.659L82.5117 141.614C82.0766 141.393 81.5952 141.277 81.1068 141.277C80.6185 141.277 80.1371 141.393 79.702 141.614L48.2039 159.803C47.4231 160.253 47.4231 160.98 48.2039 161.424Z" fill="#BA68C8"/>
<path opacity="0.5" d="M48.2039 161.424L63.8613 170.468C64.2974 170.69 64.7798 170.806 65.2691 170.806C65.7584 170.806 66.2407 170.69 66.6769 170.468L98.1749 152.285C98.9557 151.836 98.9557 151.102 98.1749 150.659L82.5117 141.614C82.0766 141.393 81.5952 141.277 81.1068 141.277C80.6185 141.277 80.1371 141.393 79.702 141.614L48.2039 159.803C47.4231 160.253 47.4231 160.98 48.2039 161.424Z" fill="black"/>
<path d="M70.0485 154.237C68.3154 155.243 68.3154 156.858 70.0485 157.851C71.023 158.341 72.0986 158.597 73.1894 158.597C74.2802 158.597 75.3558 158.341 76.3304 157.851C78.0635 156.858 78.0635 155.243 76.3304 154.237C75.3567 153.745 74.2807 153.488 73.1894 153.488C72.0981 153.488 71.0222 153.745 70.0485 154.237V154.237Z" fill="#BA68C8"/>
<path d="M95.6255 155.296C95.4648 155.401 95.3312 155.543 95.2356 155.709C95.14 155.876 95.0851 156.063 95.0754 156.254C95.0754 156.609 95.3238 156.757 95.6255 156.586C95.7862 156.48 95.9198 156.339 96.0154 156.172C96.111 156.006 96.1659 155.819 96.1756 155.627C96.1756 155.272 95.9272 155.125 95.6255 155.296Z" fill="#BA68C8"/>
<path d="M95.6255 157.42C95.4648 157.525 95.3312 157.666 95.2356 157.833C95.14 157.999 95.0851 158.186 95.0754 158.378C95.0754 158.733 95.3238 158.881 95.6255 158.709C95.7883 158.606 95.9234 158.465 96.0193 158.298C96.1152 158.131 96.1688 157.943 96.1756 157.751C96.1756 157.396 95.9272 157.248 95.6255 157.42Z" fill="#BA68C8"/>
<path d="M57.3073 194.608C57.2349 194.608 57.1637 194.59 57.1003 194.555L41.922 185.735C41.5291 185.508 41.2028 185.181 40.976 184.787C40.7492 184.394 40.6299 183.948 40.6299 183.493C40.6299 183.039 40.7492 182.593 40.976 182.2C41.2028 181.806 41.5291 181.479 41.922 181.252L53.0484 174.828C53.1428 174.78 53.252 174.77 53.3535 174.8C53.455 174.83 53.5411 174.898 53.5942 174.99C53.6472 175.081 53.6631 175.19 53.6386 175.293C53.6141 175.396 53.5511 175.486 53.4624 175.544L42.342 181.95C42.0772 182.107 41.8578 182.33 41.7055 182.598C41.5531 182.865 41.473 183.168 41.473 183.476C41.473 183.784 41.5531 184.086 41.7055 184.354C41.8578 184.621 42.0772 184.845 42.342 185.002L57.5202 193.809C57.5712 193.836 57.616 193.873 57.6516 193.919C57.6873 193.964 57.7129 194.016 57.7269 194.072C57.7408 194.128 57.7428 194.186 57.7327 194.243C57.7226 194.299 57.7005 194.353 57.6681 194.401C57.6325 194.465 57.5801 194.518 57.5165 194.555C57.4529 194.591 57.3806 194.61 57.3073 194.608V194.608Z" fill="#BA68C8"/>
<path d="M76.3185 186.09L73.0297 172.888C72.9828 172.706 72.9215 172.528 72.8463 172.355L73.8046 172.219L71.7165 171.036C71.2784 170.798 70.7837 170.684 70.2856 170.706C69.7874 170.728 69.3047 170.885 68.8891 171.16L55.1956 179.087C54.2554 179.702 53.4736 180.531 52.9135 181.505C52.3534 182.479 52.0308 183.572 51.9718 184.694V200.57C51.9718 201.836 52.2794 202.706 52.9123 203.008L54.8762 204.143L54.403 202.889L54.5094 202.848C56.7631 201.771 57.5794 199.807 58.2537 197.861L60.8623 190.32C61.5366 188.373 63.2283 186.143 64.6125 185.333C65.9966 184.523 67.9723 185.333 68.9897 187.108L70.3028 189.403C70.7037 190.131 71.308 190.727 72.0419 191.118L74.0412 192.301L73.5325 191.508C73.9483 191.509 74.3567 191.399 74.7155 191.189C76.0819 190.373 76.8154 188.101 76.3185 186.09Z" fill="#BA68C8"/>
<path opacity="0.7" d="M76.3185 186.09L73.0297 172.888C72.9828 172.706 72.9215 172.528 72.8463 172.355L73.8046 172.219L71.7165 171.036C71.2784 170.798 70.7837 170.684 70.2856 170.706C69.7874 170.728 69.3047 170.885 68.8891 171.16L55.1956 179.087C54.2554 179.702 53.4736 180.531 52.9135 181.505C52.3534 182.479 52.0308 183.572 51.9718 184.694V200.57C51.9718 201.836 52.2794 202.706 52.9123 203.008L54.8762 204.143L54.403 202.889L54.5094 202.848C56.7631 201.771 57.5794 199.807 58.2537 197.861L60.8623 190.32C61.5366 188.373 63.2283 186.143 64.6125 185.333C65.9966 184.523 67.9723 185.333 68.9897 187.108L70.3028 189.403C70.7037 190.131 71.308 190.727 72.0419 191.118L74.0412 192.301L73.5325 191.508C73.9483 191.509 74.3567 191.399 74.7155 191.189C76.0819 190.373 76.8154 188.101 76.3185 186.09Z" fill="black"/>
<path d="M72.8463 172.355L73.8046 172.219L71.7165 171.036C71.2784 170.798 70.7837 170.684 70.2856 170.706C69.7874 170.728 69.3047 170.885 68.8891 171.16L55.1956 179.087C54.4307 179.563 53.7771 180.199 53.2791 180.95L56.5383 182.937L73.2072 173.521L73.0475 172.888C72.9948 172.705 72.9275 172.527 72.8463 172.355V172.355Z" fill="#BA68C8"/>
<path opacity="0.5" d="M72.8463 172.355L73.8046 172.219L71.7165 171.036C71.2784 170.798 70.7837 170.684 70.2856 170.706C69.7874 170.728 69.3047 170.885 68.8891 171.16L55.1956 179.087C54.4307 179.563 53.7771 180.199 53.2791 180.95L56.5383 182.937L73.2072 173.521L73.0475 172.888C72.9948 172.705 72.9275 172.527 72.8463 172.355V172.355Z" fill="black"/>
<path d="M76.8036 192.419C75.4017 193.23 73.4319 192.419 72.4086 190.645L71.1014 188.35C70.0781 186.575 68.1438 185.765 66.7183 186.575C65.2927 187.386 63.6424 189.61 62.9681 191.562L60.3654 199.098C59.6911 201.044 58.8689 203.008 56.6152 204.084C54.9116 204.9 54.0894 203.871 54.0894 201.813V185.925C54.1504 184.803 54.4746 183.712 55.0357 182.738C55.5967 181.765 56.379 180.938 57.3191 180.323L71.0363 172.367C71.4058 172.108 71.8353 171.948 72.284 171.902C72.7327 171.855 73.1859 171.924 73.6005 172.102C74.0152 172.28 74.3776 172.56 74.6535 172.917C74.9293 173.274 75.1095 173.696 75.1769 174.142L78.4657 187.35C78.9507 189.326 78.2114 191.609 76.8036 192.419Z" fill="#BA68C8"/>
<path opacity="0.6" d="M76.8036 192.419C75.4017 193.23 73.4319 192.419 72.4086 190.645L71.1014 188.35C70.0781 186.575 68.1438 185.765 66.7183 186.575C65.2927 187.386 63.6424 189.61 62.9681 191.562L60.3654 199.098C59.6911 201.044 58.8689 203.008 56.6152 204.084C54.9116 204.9 54.0894 203.871 54.0894 201.813V185.925C54.1504 184.803 54.4746 183.712 55.0357 182.738C55.5967 181.765 56.379 180.938 57.3191 180.323L71.0363 172.367C71.4058 172.108 71.8353 171.948 72.284 171.902C72.7327 171.855 73.1859 171.924 73.6005 172.102C74.0152 172.28 74.3776 172.56 74.6535 172.917C74.9293 173.274 75.1095 173.696 75.1769 174.142L78.4657 187.35C78.9507 189.326 78.2114 191.609 76.8036 192.419Z" fill="black"/>
<path d="M71.4859 176.939L71.8289 178.886L73.3491 177.915L73.6863 179.862L72.172 180.838L72.5151 182.784L71.0008 183.754L70.6577 181.808L69.1435 182.784L68.8004 180.832L70.3147 179.862L69.9716 177.915L71.4859 176.939Z" fill="#263238"/>
<path d="M71.9236 177.17L72.2667 179.116L73.7809 178.146L74.124 180.092L72.6097 181.068L72.9528 183.014L71.4385 183.984L71.0955 182.038L69.5812 183.008L69.2381 181.062L70.7524 180.092L70.4093 178.146L71.9236 177.17Z" fill="#BA68C8"/>
<path d="M60.0105 183.831C60.051 184.105 60.0175 184.385 59.9135 184.642C59.8095 184.898 59.6388 185.123 59.419 185.292C58.999 185.558 58.585 185.339 58.4903 184.801C58.4479 184.526 58.4805 184.246 58.5847 183.989C58.6888 183.731 58.8606 183.507 59.0818 183.34C59.4959 183.074 59.9277 183.292 60.0105 183.831Z" fill="#263238"/>
<path d="M60.6967 187.723C60.739 187.997 60.7064 188.278 60.6023 188.535C60.4982 188.792 60.3264 189.016 60.1051 189.184C59.6852 189.45 59.2711 189.231 59.1765 188.699C59.1334 188.425 59.1657 188.144 59.2699 187.886C59.3741 187.629 59.5463 187.405 59.768 187.238C60.182 186.966 60.602 187.185 60.6967 187.723Z" fill="#263238"/>
<path d="M61.8679 184.801C61.9109 185.075 61.8786 185.356 61.7744 185.613C61.6702 185.871 61.4981 186.095 61.2763 186.262C60.8564 186.534 60.4423 186.315 60.3477 185.777C60.3046 185.503 60.3369 185.222 60.4411 184.964C60.5453 184.707 60.7175 184.483 60.9392 184.316C61.3592 184.05 61.7732 184.263 61.8679 184.801Z" fill="#263238"/>
<path d="M58.8393 186.747C58.8823 187.021 58.85 187.302 58.7459 187.559C58.6417 187.817 58.4695 188.041 58.2478 188.208C57.8278 188.48 57.4138 188.261 57.3191 187.723C57.2767 187.449 57.3093 187.168 57.4135 186.911C57.5176 186.654 57.6894 186.429 57.9106 186.262C58.3306 185.996 58.7447 186.209 58.8393 186.747Z" fill="#263238"/>
<path d="M60.0401 183.848C60.0825 184.123 60.0499 184.403 59.9457 184.66C59.8416 184.918 59.6698 185.142 59.4486 185.309C59.0286 185.576 58.6145 185.363 58.5199 184.824C58.4768 184.55 58.5091 184.269 58.6133 184.012C58.7175 183.755 58.8897 183.53 59.1114 183.363C59.5314 183.091 59.9277 183.31 60.0401 183.848Z" fill="#263238"/>
<path d="M60.7262 187.741C60.7693 188.015 60.737 188.296 60.6328 188.553C60.5286 188.81 60.3564 189.035 60.1347 189.202C59.7147 189.474 59.3007 189.255 59.206 188.717C59.163 188.442 59.1953 188.162 59.2995 187.904C59.4037 187.647 59.5758 187.423 59.7976 187.256C60.2175 186.989 60.6316 187.202 60.7262 187.741Z" fill="#263238"/>
<path d="M61.8974 184.824C61.9394 185.098 61.9065 185.377 61.8024 185.634C61.6982 185.89 61.5267 186.113 61.3059 186.28C60.8919 186.552 60.4719 186.333 60.3772 185.794C60.3361 185.52 60.3694 185.24 60.4734 184.983C60.5774 184.726 60.7485 184.502 60.9688 184.333C61.3887 184.067 61.8028 184.286 61.8974 184.824Z" fill="#263238"/>
<path d="M58.8689 186.771C58.9113 187.045 58.8787 187.325 58.7745 187.583C58.6704 187.84 58.4986 188.064 58.2774 188.232C57.8633 188.498 57.4433 188.279 57.3487 187.741C57.3082 187.467 57.3417 187.187 57.4457 186.93C57.5497 186.673 57.7204 186.448 57.9402 186.28C58.3602 186.013 58.7742 186.232 58.8689 186.771Z" fill="#263238"/>
<path d="M60.0697 183.866C60.1127 184.14 60.0804 184.421 59.9762 184.679C59.872 184.936 59.6999 185.16 59.4781 185.327C59.0641 185.599 58.6441 185.38 58.5495 184.842C58.5084 184.568 58.5416 184.288 58.6456 184.031C58.7496 183.774 58.9207 183.549 59.141 183.381C59.5609 183.115 59.975 183.328 60.0697 183.866Z" fill="#263238"/>
<path d="M60.7558 187.764C60.7977 188.038 60.7649 188.317 60.6607 188.573C60.5566 188.83 60.385 189.053 60.1643 189.219C59.7502 189.492 59.3303 189.273 59.2356 188.734C59.1945 188.46 59.2277 188.18 59.3318 187.923C59.4358 187.666 59.6069 187.442 59.8271 187.273C60.2471 187.007 60.6612 187.226 60.7558 187.764Z" fill="#263238"/>
<path d="M61.9329 184.842C61.974 185.116 61.9408 185.396 61.8368 185.653C61.7327 185.91 61.5617 186.135 61.3414 186.303C60.9214 186.569 60.5074 186.35 60.4127 185.818C60.3697 185.544 60.402 185.263 60.5062 185.006C60.6104 184.748 60.7825 184.524 61.0042 184.357C61.4183 184.085 61.8383 184.304 61.9329 184.842Z" fill="#263238"/>
<path d="M58.9044 186.788C58.9455 187.062 58.9123 187.343 58.8082 187.6C58.7042 187.857 58.5331 188.081 58.3129 188.249C57.8929 188.515 57.4788 188.303 57.3842 187.764C57.3411 187.49 57.3734 187.209 57.4776 186.952C57.5818 186.694 57.754 186.47 57.9757 186.303C58.3898 186.031 58.8097 186.25 58.9044 186.788Z" fill="#263238"/>
<path d="M60.1051 183.89C60.1462 184.164 60.113 184.444 60.009 184.701C59.905 184.958 59.7339 185.183 59.5136 185.351C59.0937 185.617 58.6796 185.398 58.5849 184.86C58.543 184.587 58.5759 184.307 58.68 184.051C58.7842 183.795 58.9557 183.571 59.1765 183.405C59.5905 183.133 60.0105 183.369 60.1051 183.89Z" fill="#263238"/>
<path d="M60.7913 187.782C60.8324 188.056 60.7992 188.336 60.6952 188.593C60.5911 188.85 60.4201 189.075 60.1998 189.243C59.7798 189.509 59.3658 189.296 59.2711 188.758C59.2281 188.484 59.2604 188.203 59.3646 187.946C59.4687 187.688 59.6409 187.464 59.8626 187.297C60.2767 187.025 60.6967 187.244 60.7913 187.782Z" fill="#263238"/>
<path d="M61.9625 184.86C62.0055 185.134 61.9732 185.415 61.8691 185.672C61.7649 185.93 61.5927 186.154 61.371 186.321C60.951 186.593 60.5369 186.374 60.4423 185.836C60.3999 185.562 60.4325 185.281 60.5367 185.024C60.6408 184.767 60.8126 184.542 61.0338 184.375C61.4538 184.109 61.8679 184.322 61.9625 184.86Z" fill="#263238"/>
<path d="M58.9339 186.806C58.977 187.08 58.9447 187.361 58.8405 187.618C58.7363 187.876 58.5642 188.1 58.3424 188.267C57.9225 188.539 57.5084 188.32 57.4138 187.782C57.3714 187.508 57.404 187.227 57.5081 186.97C57.6122 186.713 57.784 186.488 58.0053 186.321C58.4252 186.055 58.8393 186.268 58.9339 186.806Z" fill="#263238"/>
<path d="M60.1347 183.908C60.1771 184.182 60.1445 184.462 60.0404 184.72C59.9362 184.977 59.7644 185.201 59.5432 185.369C59.1232 185.635 58.7092 185.422 58.6145 184.884C58.5715 184.609 58.6038 184.328 58.708 184.071C58.8122 183.814 58.9843 183.59 59.206 183.422C59.626 183.15 60.0401 183.369 60.1347 183.908Z" fill="#263238"/>
<path d="M60.8209 187.8C60.8639 188.074 60.8316 188.355 60.7274 188.612C60.6232 188.869 60.4511 189.094 60.2294 189.261C59.8094 189.533 59.3953 189.314 59.3007 188.776C59.2583 188.501 59.2909 188.221 59.395 187.964C59.4992 187.706 59.671 187.482 59.8922 187.315C60.3122 187.048 60.7262 187.261 60.8209 187.8Z" fill="#263238"/>
<path d="M61.9921 184.883C62.0338 185.158 62.0009 185.438 61.8968 185.695C61.7927 185.952 61.6213 186.177 61.4006 186.345C60.9806 186.611 60.5665 186.392 60.4719 185.854C60.4295 185.579 60.4621 185.299 60.5662 185.042C60.6704 184.784 60.8422 184.56 61.0634 184.393C61.4834 184.126 61.8974 184.345 61.9921 184.883Z" fill="#263238"/>
<path d="M58.9635 186.83C59.0059 187.104 58.9733 187.384 58.8692 187.642C58.765 187.899 58.5932 188.123 58.372 188.291C57.9579 188.557 57.538 188.338 57.4433 187.8C57.4027 187.526 57.4362 187.247 57.5402 186.991C57.6442 186.735 57.8151 186.512 58.0349 186.345C58.4548 186.072 58.8689 186.291 58.9635 186.83Z" fill="#263238"/>
<path d="M60.1643 183.925C60.2073 184.2 60.175 184.48 60.0709 184.738C59.9667 184.995 59.7945 185.219 59.5728 185.386C59.1587 185.659 58.7388 185.44 58.6441 184.901C58.603 184.627 58.6362 184.347 58.7402 184.09C58.8443 183.833 59.0154 183.609 59.2356 183.44C59.6556 183.174 60.0697 183.369 60.1643 183.925Z" fill="#263238"/>
<path d="M60.8504 187.823C60.8922 188.098 60.8593 188.378 60.7552 188.635C60.6511 188.892 60.4797 189.116 60.2589 189.284C59.8449 189.551 59.4249 189.332 59.3303 188.793C59.2892 188.519 59.3224 188.239 59.4264 187.982C59.5304 187.725 59.7015 187.501 59.9218 187.332C60.3417 187.066 60.7558 187.285 60.8504 187.823Z" fill="#263238"/>
<path d="M62.0216 184.901C62.064 185.176 62.0314 185.456 61.9273 185.713C61.8232 185.971 61.6514 186.195 61.4301 186.362C61.0161 186.629 60.5961 186.416 60.5015 185.877C60.4597 185.603 60.4926 185.323 60.5967 185.066C60.7008 184.808 60.8722 184.584 61.093 184.416C61.5129 184.144 61.927 184.363 62.0216 184.901Z" fill="#263238"/>
<path d="M58.999 186.847C59.0401 187.122 59.0069 187.402 58.9029 187.659C58.7988 187.916 58.6278 188.14 58.4075 188.309C57.9875 188.575 57.5735 188.362 57.4788 187.823C57.4358 187.549 57.4681 187.268 57.5723 187.011C57.6764 186.754 57.8486 186.53 58.0703 186.362C58.4844 186.09 58.9044 186.327 58.999 186.847Z" fill="#263238"/>
<path d="M60.1998 183.961C60.2409 184.235 60.2077 184.515 60.1036 184.772C59.9996 185.029 59.8285 185.253 59.6083 185.422C59.1883 185.688 58.7742 185.469 58.6796 184.937C58.6366 184.663 58.6689 184.382 58.773 184.124C58.8772 183.867 59.0494 183.643 59.2711 183.476C59.6852 183.192 60.1051 183.411 60.1998 183.961Z" fill="#263238"/>
<path d="M60.8859 187.841C60.927 188.115 60.8938 188.396 60.7898 188.653C60.6858 188.91 60.5147 189.134 60.2944 189.302C59.8745 189.568 59.4604 189.355 59.3658 188.817C59.3227 188.543 59.355 188.262 59.4592 188.005C59.5634 187.747 59.7355 187.523 59.9573 187.356C60.3713 187.084 60.7913 187.303 60.8859 187.841Z" fill="#263238"/>
<path d="M62.0571 184.919C62.0989 185.193 62.066 185.474 61.9619 185.731C61.8578 185.988 61.6864 186.212 61.4656 186.38C61.0456 186.652 60.6316 186.433 60.5369 185.895C60.4946 185.621 60.5272 185.34 60.6313 185.083C60.7354 184.826 60.9072 184.602 61.1285 184.434C61.5425 184.168 61.9625 184.381 62.0571 184.919Z" fill="#263238"/>
<path d="M59.0286 186.865C59.0716 187.139 59.0393 187.42 58.9351 187.678C58.831 187.935 58.6588 188.159 58.4371 188.326C58.0171 188.598 57.603 188.379 57.5084 187.841C57.466 187.567 57.4986 187.286 57.6027 187.029C57.7069 186.772 57.8787 186.548 58.0999 186.38C58.5199 186.114 58.9339 186.327 59.0286 186.865Z" fill="#263238"/>
<path d="M60.2294 183.961C60.2724 184.235 60.2401 184.516 60.1359 184.773C60.0317 185.031 59.8596 185.255 59.6378 185.422C59.2179 185.694 58.8038 185.475 58.7092 184.937C58.6661 184.662 58.6984 184.382 58.8026 184.124C58.9068 183.867 59.079 183.643 59.3007 183.476C59.7207 183.21 60.1347 183.428 60.2294 183.961Z" fill="#263238"/>
<path d="M60.9155 187.859C60.9585 188.133 60.9262 188.414 60.8221 188.671C60.7179 188.929 60.5457 189.153 60.324 189.32C59.904 189.592 59.49 189.373 59.3953 188.835C59.3529 188.561 59.3855 188.28 59.4897 188.023C59.5938 187.766 59.7656 187.541 59.9868 187.374C60.4068 187.108 60.8209 187.321 60.9155 187.859Z" fill="#263238"/>
<path d="M62.0867 184.943C62.1291 185.217 62.0965 185.498 61.9924 185.755C61.8882 186.012 61.7164 186.236 61.4952 186.404C61.0752 186.67 60.6612 186.451 60.5665 185.913C60.5246 185.64 60.5575 185.36 60.6616 185.104C60.7657 184.848 60.9373 184.624 61.158 184.458C61.578 184.186 61.9921 184.405 62.0867 184.943Z" fill="#263238"/>
<path d="M59.0582 186.918C59.1005 187.193 59.068 187.473 58.9638 187.73C58.8597 187.988 58.6879 188.212 58.4666 188.379C58.0526 188.646 57.6326 188.427 57.538 187.894C57.4949 187.62 57.5272 187.339 57.6314 187.082C57.7356 186.825 57.9078 186.6 58.1295 186.433C58.5495 186.132 58.9635 186.327 59.0582 186.918Z" fill="#263238"/>
<path d="M60.2589 183.99C60.3009 184.264 60.268 184.543 60.1639 184.799C60.0597 185.056 59.8882 185.279 59.6674 185.445C59.2474 185.718 58.8334 185.499 58.7388 184.96C58.6964 184.686 58.729 184.406 58.8331 184.148C58.9372 183.891 59.109 183.667 59.3303 183.499C59.7502 183.233 60.1643 183.452 60.2589 183.99Z" fill="#263238"/>
<path d="M60.9451 187.883C60.9875 188.157 60.9549 188.437 60.8507 188.695C60.7466 188.952 60.5748 189.176 60.3536 189.344C59.9395 189.61 59.5195 189.391 59.4249 188.853C59.383 188.579 59.4158 188.3 59.52 188.044C59.6241 187.787 59.7957 187.564 60.0164 187.398C60.4364 187.125 60.8504 187.344 60.9451 187.883Z" fill="#263238"/>
<path d="M62.1163 184.96C62.1587 185.235 62.1261 185.515 62.0219 185.772C61.9178 186.03 61.746 186.254 61.5248 186.421C61.1107 186.688 60.6907 186.475 60.5961 185.936C60.5544 185.662 60.5873 185.382 60.6914 185.125C60.7954 184.868 60.9669 184.643 61.1876 184.475C61.6076 184.203 62.0216 184.422 62.1163 184.96Z" fill="#263238"/>
<path d="M59.0877 186.918C59.1308 187.193 59.0985 187.473 58.9943 187.731C58.8901 187.988 58.718 188.212 58.4962 188.379C58.0822 188.651 57.6681 188.433 57.5675 187.894C57.5258 187.62 57.5587 187.34 57.6628 187.083C57.7669 186.826 57.9383 186.601 58.1591 186.433C58.579 186.149 58.9931 186.368 59.0877 186.918Z" fill="#263238"/>
<path d="M60.2885 184.008C60.3309 184.282 60.2983 184.563 60.1942 184.82C60.09 185.077 59.9182 185.302 59.697 185.469C59.2829 185.735 58.863 185.517 58.7683 184.984C58.7266 184.71 58.7595 184.43 58.8636 184.173C58.9677 183.915 59.1391 183.691 59.3598 183.523C59.7798 183.251 60.1939 183.47 60.2885 184.008Z" fill="#263238"/>
<path d="M60.9747 187.9C61.0171 188.174 60.9845 188.455 60.8803 188.712C60.7762 188.969 60.6044 189.194 60.3832 189.361C59.9691 189.627 59.555 189.414 59.4604 188.876C59.4174 188.602 59.4497 188.321 59.5538 188.064C59.658 187.806 59.8302 187.582 60.0519 187.415C60.466 187.143 60.88 187.362 60.9747 187.9Z" fill="#263238"/>
<path d="M62.1518 184.978C62.1935 185.252 62.1606 185.533 62.0565 185.79C61.9524 186.047 61.781 186.271 61.5603 186.439C61.1403 186.711 60.7262 186.492 60.6316 185.954C60.5892 185.68 60.6218 185.399 60.7259 185.142C60.8301 184.885 61.0019 184.661 61.2231 184.493C61.6372 184.227 62.0571 184.446 62.1518 184.978Z" fill="#263238"/>
<path d="M59.1232 186.918C59.1639 187.192 59.1304 187.471 59.0264 187.727C58.9223 187.983 58.7515 188.206 58.5317 188.373C58.1117 188.646 57.6977 188.427 57.603 187.888C57.5607 187.614 57.5933 187.334 57.6974 187.076C57.8015 186.819 57.9733 186.595 58.1946 186.427C58.6086 186.173 59.0286 186.392 59.1232 186.918Z" fill="#263238"/>
<path d="M60.324 184.026C60.3657 184.3 60.3328 184.58 60.2288 184.838C60.1247 185.095 59.9532 185.319 59.7325 185.487C59.3125 185.759 58.8985 185.54 58.8038 185.002C58.7614 184.728 58.794 184.447 58.8982 184.19C59.0023 183.933 59.1741 183.708 59.3953 183.541C59.8094 183.275 60.2294 183.488 60.324 184.026Z" fill="#263238"/>
<path d="M61.0102 187.918C61.0519 188.192 61.019 188.473 60.9149 188.73C60.8108 188.987 60.6394 189.211 60.4186 189.379C59.9987 189.651 59.5846 189.432 59.49 188.894C59.4476 188.62 59.4802 188.339 59.5843 188.082C59.6885 187.825 59.8602 187.6 60.0815 187.433C60.5192 187.167 60.9155 187.386 61.0102 187.918Z" fill="#263238"/>
<path d="M62.1813 185.002C62.2237 185.276 62.1911 185.557 62.087 185.814C61.9829 186.071 61.8111 186.295 61.5898 186.463C61.1699 186.729 60.7558 186.51 60.6612 185.978C60.6181 185.703 60.6504 185.423 60.7546 185.165C60.8588 184.908 61.0309 184.684 61.2527 184.517C61.7022 184.245 62.0867 184.463 62.1813 185.002Z" fill="#263238"/>
<path d="M59.1528 186.948C59.1952 187.222 59.1626 187.503 59.0585 187.76C58.9543 188.017 58.7825 188.241 58.5613 188.409C58.1413 188.675 57.7273 188.456 57.6326 187.924C57.5896 187.65 57.6219 187.369 57.7261 187.111C57.8303 186.854 58.0024 186.63 58.2241 186.463C58.6441 186.191 59.0582 186.41 59.1528 186.948Z" fill="#263238"/>
<path d="M60.3536 184.05C60.3953 184.324 60.3624 184.604 60.2583 184.861C60.1542 185.118 59.9828 185.343 59.7621 185.511C59.3421 185.777 58.928 185.558 58.8334 185.02C58.791 184.745 58.8236 184.465 58.9277 184.208C59.0319 183.95 59.2037 183.726 59.4249 183.559C59.8449 183.292 60.2589 183.511 60.3536 184.05Z" fill="#263238"/>
<path d="M61.0397 187.942C61.0821 188.216 61.0495 188.496 60.9454 188.754C60.8412 189.011 60.6695 189.235 60.4482 189.403C60.0283 189.669 59.6142 189.45 59.5195 188.918C59.4765 188.643 59.5088 188.362 59.613 188.105C59.7172 187.848 59.8893 187.624 60.1111 187.457C60.5192 187.184 60.9451 187.403 61.0397 187.942Z" fill="#263238"/>
<path d="M62.2109 185.02C62.254 185.294 62.2217 185.575 62.1175 185.832C62.0133 186.089 61.8411 186.314 61.6194 186.481C61.2054 186.753 60.7854 186.534 60.6907 185.996C60.649 185.721 60.6819 185.441 60.786 185.184C60.8901 184.927 61.0615 184.702 61.2823 184.535C61.7022 184.262 62.1163 184.481 62.2109 185.02Z" fill="#263238"/>
<path d="M59.1824 186.966C59.2254 187.24 59.1931 187.521 59.0889 187.778C58.9848 188.035 58.8126 188.26 58.5909 188.427C58.1768 188.699 57.7568 188.48 57.6622 187.942C57.6211 187.668 57.6543 187.387 57.7583 187.13C57.8624 186.873 58.0334 186.649 58.2537 186.481C58.6737 186.214 59.0877 186.427 59.1824 186.966Z" fill="#263238"/>
<path d="M71.4859 176.939L71.9236 177.17L70.4093 178.146L69.9716 177.915L71.4859 176.939Z" fill="#263238"/>
<path d="M70.3147 179.862L70.7524 180.092L69.2381 181.062L68.8004 180.832L70.3147 179.862Z" fill="#263238"/>
<path d="M72.2667 179.116L72.1838 178.661L73.3491 177.915L73.7809 178.146L72.2667 179.116Z" fill="#263238"/>
<path d="M68.8004 180.832L69.2381 181.062L69.5812 183.008L69.1435 182.784L68.8004 180.832Z" fill="#263238"/>
<path d="M71.0008 183.754L71.4385 183.984L71.0955 182.038L70.7406 182.269L71.0008 183.754Z" fill="#263238"/>
<path d="M60.3536 184.05C60.3953 184.324 60.3624 184.604 60.2583 184.861C60.1542 185.118 59.9828 185.343 59.7621 185.511C59.3421 185.777 58.928 185.558 58.8334 185.02C58.791 184.745 58.8236 184.465 58.9277 184.208C59.0319 183.95 59.2037 183.726 59.4249 183.559C59.8449 183.292 60.2589 183.511 60.3536 184.05Z" fill="#BA68C8"/>
<path d="M61.0397 187.942C61.0821 188.216 61.0495 188.496 60.9454 188.754C60.8412 189.011 60.6695 189.235 60.4482 189.403C60.0283 189.669 59.6142 189.45 59.5195 188.918C59.4765 188.643 59.5088 188.362 59.613 188.105C59.7172 187.848 59.8893 187.624 60.1111 187.457C60.5192 187.184 60.9451 187.403 61.0397 187.942Z" fill="#BA68C8"/>
<path d="M62.2109 185.02C62.254 185.294 62.2217 185.575 62.1175 185.832C62.0133 186.089 61.8411 186.314 61.6194 186.481C61.2054 186.753 60.7854 186.534 60.6907 185.996C60.649 185.721 60.6819 185.441 60.786 185.184C60.8901 184.927 61.0615 184.702 61.2823 184.535C61.7022 184.262 62.1163 184.481 62.2109 185.02Z" fill="#BA68C8"/>
<path d="M59.1824 186.966C59.2254 187.24 59.1931 187.521 59.0889 187.778C58.9848 188.035 58.8126 188.26 58.5909 188.427C58.1768 188.699 57.7568 188.48 57.6622 187.942C57.6211 187.668 57.6543 187.387 57.7583 187.13C57.8624 186.873 58.0334 186.649 58.2537 186.481C58.6737 186.214 59.0877 186.427 59.1824 186.966Z" fill="#BA68C8"/>
<path d="M74.9048 18.7452L68.546 22.4126C68.5813 22.134 68.599 21.8535 68.5993 21.5726V19.733C68.5993 16.4561 66.2983 15.1252 63.4649 16.7755C62.24 17.5259 61.1942 18.5354 60.4009 19.733C59.9336 15.5925 56.7039 14.0782 52.7763 16.3437C48.5292 18.7985 45.0866 24.7609 45.0866 29.6586V32.4151C45.0595 33.5153 45.282 34.6073 45.7373 35.6093L40.4551 38.6555C39.6255 39.1973 38.9352 39.9267 38.4398 40.7847C37.9445 41.6428 37.6582 42.6054 37.604 43.5947C37.604 45.4106 38.8816 46.15 40.4551 45.2391L74.9048 25.3524C75.7344 24.8107 76.4247 24.0813 76.92 23.2232C77.4153 22.3652 77.7017 21.4026 77.7559 20.4133C77.7559 18.5737 76.4901 17.8343 74.9048 18.7452Z" fill="#F0F0F0"/>
<path d="M207.019 184.026L205.836 183.357L206.676 182.979C206.676 182.979 207.333 183.156 207.351 183.186C207.345 183.339 207.329 183.491 207.303 183.641L207.019 184.026Z" fill="#E0E0E0"/>
<path d="M207.019 184.026L205.836 183.357L206.676 182.979C206.676 182.979 207.333 183.156 207.351 183.186C207.345 183.339 207.329 183.491 207.303 183.641L207.019 184.026Z" fill="#BA68C8"/>
<path opacity="0.1" d="M207.019 184.026L205.836 183.357L206.676 182.979C206.676 182.979 207.333 183.156 207.351 183.186C207.345 183.339 207.329 183.491 207.303 183.641L207.019 184.026Z" fill="white"/>
<path d="M162.999 206.202C163.523 206.467 164.103 206.606 164.691 206.606C165.278 206.606 165.858 206.467 166.382 206.202L204.322 184.316L147.537 151.522L146.212 150.759L108.272 172.645C107.343 173.183 107.343 174.065 108.272 174.597L162.999 206.202Z" fill="#BA68C8"/>
<path opacity="0.8" d="M162.999 206.202C163.523 206.467 164.103 206.606 164.691 206.606C165.278 206.606 165.858 206.467 166.382 206.202L204.322 184.316L147.537 151.522L146.212 150.759L108.272 172.645C107.343 173.183 107.343 174.065 108.272 174.597L162.999 206.202Z" fill="white"/>
<path d="M177.248 164.819L190.481 172.432L199.046 167.487L208.989 173.248V180.412C208.989 181.281 208.013 182.517 207.658 182.316C207.002 182.475 206.363 182.701 205.753 182.991C204.758 183.556 203.835 184.239 203.003 185.025L172.599 167.475L177.248 164.819Z" fill="#E0E0E0"/>
<path d="M177.248 164.819L190.481 172.432L199.046 167.487L208.989 173.248V180.412C208.989 181.281 208.013 182.517 207.658 182.316C207.002 182.475 206.363 182.701 205.753 182.991C204.758 183.556 203.835 184.239 203.003 185.025L172.599 167.475L177.248 164.819Z" fill="#BA68C8"/>
<path opacity="0.1" d="M177.248 164.819L190.481 172.432L199.046 167.487L208.989 173.248V180.412C208.989 181.281 208.013 182.517 207.658 182.316C207.002 182.475 206.363 182.701 205.753 182.991C204.758 183.556 203.835 184.239 203.003 185.025L172.599 167.475L177.248 164.819Z" fill="white"/>
<path d="M166.4 206.196L168.689 204.871L203.038 185.043C203.064 184.595 203.227 184.165 203.506 183.813C203.911 183.274 204.423 182.823 205.008 182.488C205.498 182.188 206.055 182.015 206.629 181.985C207.013 181.98 207.387 182.103 207.694 182.334C208.141 181.456 208.359 180.479 208.327 179.495H209.628C209.628 181.269 209.036 183.091 208.309 183.505L207.652 183.89C207.28 184.103 206.984 184.114 206.984 183.89V183.541C206.984 183.15 206.392 183.168 205.659 183.594C204.925 184.02 204.34 184.67 204.34 185.061V185.416C204.34 185.617 203.831 186.066 203.216 186.421L169.996 205.604L166.4 207.674C165.879 207.944 165.3 208.08 164.714 208.071V206.568C165.299 206.592 165.88 206.464 166.4 206.196V206.196Z" fill="#BA68C8"/>
<path opacity="0.6" d="M166.4 206.196L168.689 204.871L203.038 185.043C203.064 184.595 203.227 184.165 203.506 183.813C203.911 183.274 204.423 182.823 205.008 182.488C205.498 182.188 206.055 182.015 206.629 181.985C207.013 181.98 207.387 182.103 207.694 182.334C208.141 181.456 208.359 180.479 208.327 179.495H209.628C209.628 181.269 209.036 183.091 208.309 183.505L207.652 183.89C207.28 184.103 206.984 184.114 206.984 183.89V183.541C206.984 183.15 206.392 183.168 205.659 183.594C204.925 184.02 204.34 184.67 204.34 185.061V185.416C204.34 185.617 203.831 186.066 203.216 186.421L169.996 205.604L166.4 207.674C165.879 207.944 165.3 208.08 164.714 208.071V206.568C165.299 206.592 165.88 206.464 166.4 206.196V206.196Z" fill="white"/>
<path d="M107.562 173.591V175.123C107.582 175.328 107.654 175.524 107.772 175.692C107.891 175.86 108.051 175.994 108.237 176.082V176.082L159.385 205.61L162.975 207.68C163.496 207.95 164.075 208.086 164.661 208.077V206.574C164.071 206.588 163.488 206.448 162.969 206.166L160.686 204.847L108.237 174.556C108.05 174.468 107.889 174.332 107.771 174.163C107.653 173.994 107.581 173.797 107.562 173.591Z" fill="#BA68C8"/>
<path opacity="0.1" d="M107.562 173.591V175.123C107.582 175.328 107.654 175.524 107.772 175.692C107.891 175.86 108.051 175.994 108.237 176.082V176.082L159.385 205.61L162.975 207.68C163.496 207.95 164.075 208.086 164.661 208.077V206.574C164.071 206.588 163.488 206.448 162.969 206.166L160.686 204.847L108.237 174.556C108.05 174.468 107.889 174.332 107.771 174.163C107.653 173.994 107.581 173.797 107.562 173.591Z" fill="white"/>
<path d="M164.691 196.477V205.255C165.082 205.267 165.47 205.175 165.814 204.989L169.955 202.587L201.654 184.286V175.129L164.691 196.477Z" fill="white"/>
<path d="M109.213 165.541V172.29C109.233 172.681 109.346 173.061 109.541 173.401C109.736 173.74 110.009 174.028 110.336 174.242L159.432 202.576L163.573 204.977C163.918 205.163 164.305 205.254 164.697 205.243V197.406L109.213 165.541Z" fill="#F0F0F0"/>
<path d="M201.678 184.274C201.709 183.825 201.876 183.396 202.157 183.044C202.565 182.508 203.075 182.059 203.659 181.725C204.146 181.42 204.701 181.245 205.274 181.216C205.66 181.213 206.035 181.336 206.345 181.565V172.426L201.69 175.118L201.678 184.274Z" fill="#455A64"/>
<path d="M203.541 181.802C203.002 182.12 202.532 182.542 202.157 183.044C201.876 183.396 201.709 183.825 201.678 184.274V175.543H203.535L203.541 181.802Z" fill="#F5F5F5"/>
<path d="M147.525 140.78L204.31 173.574V174.337C204.31 174.757 204.902 174.928 205.629 174.491C206.357 174.053 206.954 173.544 206.954 172.817L207.025 172.095L149.157 138.686L148.927 138.55C148.866 138.657 148.832 138.777 148.826 138.899V139.254C148.838 139.692 148.252 140.372 147.525 140.78Z" fill="#BA68C8"/>
<path opacity="0.6" d="M147.525 140.78L204.31 173.574V174.337C204.31 174.757 204.902 174.928 205.629 174.491C206.357 174.053 206.954 173.544 206.954 172.817L207.025 172.095L149.157 138.686L148.927 138.55C148.866 138.657 148.832 138.777 148.826 138.899V139.254C148.838 139.692 148.252 140.372 147.525 140.78Z" fill="white"/>
<path d="M166.4 195.501L203.5 174.077C203.967 173.834 204.399 173.633 204.582 173.728L204.34 173.592L147.554 140.798L146.892 140.414C146.594 140.329 146.282 140.309 145.976 140.355C145.67 140.401 145.377 140.511 145.117 140.68L108.308 161.939C107.379 162.477 107.379 163.352 108.308 163.891L163.046 195.501C163.567 195.762 164.141 195.898 164.723 195.898C165.305 195.898 165.88 195.762 166.4 195.501V195.501Z" fill="#BA68C8"/>
<path opacity="0.8" d="M166.4 195.501L203.5 174.077C203.967 173.834 204.399 173.633 204.582 173.728L204.34 173.592L147.554 140.798L146.892 140.414C146.594 140.329 146.282 140.309 145.976 140.355C145.67 140.401 145.377 140.511 145.117 140.68L108.308 161.939C107.379 162.477 107.379 163.352 108.308 163.891L163.046 195.501C163.567 195.762 164.141 195.898 164.723 195.898C165.305 195.898 165.88 195.762 166.4 195.501V195.501Z" fill="white"/>
<path d="M148.939 138.568L149.169 138.704L207.037 172.13C207.066 172.069 207.109 172.014 207.161 171.971L207.356 171.858L207.776 171.622L208.291 171.32C208.391 171.254 208.51 171.223 208.63 171.234C208.749 171.245 208.861 171.296 208.948 171.379C208.972 171.395 208.994 171.415 209.013 171.438C209.082 171.509 209.14 171.591 209.184 171.681C209.247 171.783 209.299 171.892 209.338 172.006C209.383 172.128 209.421 172.252 209.45 172.379C209.486 172.527 209.51 172.669 209.539 172.822C209.555 172.91 209.565 172.999 209.569 173.089C209.569 173.16 209.569 173.225 209.569 173.307C209.569 173.39 209.569 173.639 209.569 173.81V172.184C209.508 171.649 209.323 171.136 209.029 170.686C208.736 170.235 208.341 169.859 207.877 169.587L153.132 137.976C152.681 137.71 152.175 137.552 151.653 137.514C151.13 137.476 150.606 137.559 150.122 137.758L149.43 138.16L149.134 138.325C149.048 138.387 148.981 138.471 148.939 138.568Z" fill="#BA68C8"/>
<path opacity="0.8" d="M148.939 138.568L149.169 138.704L207.037 172.13C207.066 172.069 207.109 172.014 207.161 171.971L207.356 171.858L207.776 171.622L208.291 171.32C208.391 171.254 208.51 171.223 208.63 171.234C208.749 171.245 208.861 171.296 208.948 171.379C208.972 171.395 208.994 171.415 209.013 171.438C209.082 171.509 209.14 171.591 209.184 171.681C209.247 171.783 209.299 171.892 209.338 172.006C209.383 172.128 209.421 172.252 209.45 172.379C209.486 172.527 209.51 172.669 209.539 172.822C209.555 172.91 209.565 172.999 209.569 173.089C209.569 173.16 209.569 173.225 209.569 173.307C209.569 173.39 209.569 173.639 209.569 173.81V172.184C209.508 171.649 209.323 171.136 209.029 170.686C208.736 170.235 208.341 169.859 207.877 169.587L153.132 137.976C152.681 137.71 152.175 137.552 151.653 137.514C151.13 137.476 150.606 137.559 150.122 137.758L149.43 138.16L149.134 138.325C149.048 138.387 148.981 138.471 148.939 138.568Z" fill="white"/>
<path d="M166.4 195.507L168.695 194.176L195.083 178.95L203.506 174.088C204.097 173.733 204.594 173.609 204.624 173.792V174.171C204.624 174.597 205.215 174.597 205.943 174.171C206.212 174.054 206.449 173.871 206.631 173.64C206.812 173.409 206.934 173.136 206.984 172.846V172.432C206.975 172.34 206.988 172.247 207.022 172.16C207.056 172.074 207.11 171.997 207.179 171.935L207.374 171.823L207.794 171.586L208.309 171.284C208.409 171.218 208.528 171.188 208.647 171.199C208.767 171.209 208.879 171.26 208.965 171.344C208.99 171.36 209.012 171.38 209.03 171.403C209.074 171.449 209.112 171.501 209.143 171.557C209.168 171.582 209.188 171.612 209.202 171.645C209.265 171.748 209.316 171.857 209.356 171.971C209.401 172.092 209.439 172.217 209.468 172.343C209.504 172.491 209.527 172.633 209.557 172.787C209.573 172.875 209.583 172.964 209.586 173.053C209.586 173.124 209.586 173.189 209.586 173.272C209.586 173.355 209.586 173.603 209.586 173.775V179.477H208.285V173.775C208.285 173.639 208.285 173.503 208.285 173.373L208.25 173.047C208.252 173.037 208.252 173.027 208.25 173.018C208.131 174.053 207.144 174.976 206.286 175.461C205.81 175.761 205.263 175.932 204.701 175.957C204.267 175.963 203.846 175.809 203.518 175.526L203.399 175.591L203.174 175.727L169.955 194.909L166.4 197.003C165.888 197.265 165.319 197.398 164.744 197.388V195.885C165.319 195.898 165.888 195.768 166.4 195.507V195.507Z" fill="#BA68C8"/>
<path opacity="0.6" d="M166.4 195.507L168.695 194.176L195.083 178.95L203.506 174.088C204.097 173.733 204.594 173.609 204.624 173.792V174.171C204.624 174.597 205.215 174.597 205.943 174.171C206.212 174.054 206.449 173.871 206.631 173.64C206.812 173.409 206.934 173.136 206.984 172.846V172.432C206.975 172.34 206.988 172.247 207.022 172.16C207.056 172.074 207.11 171.997 207.179 171.935L207.374 171.823L207.794 171.586L208.309 171.284C208.409 171.218 208.528 171.188 208.647 171.199C208.767 171.209 208.879 171.26 208.965 171.344C208.99 171.36 209.012 171.38 209.03 171.403C209.074 171.449 209.112 171.501 209.143 171.557C209.168 171.582 209.188 171.612 209.202 171.645C209.265 171.748 209.316 171.857 209.356 171.971C209.401 172.092 209.439 172.217 209.468 172.343C209.504 172.491 209.527 172.633 209.557 172.787C209.573 172.875 209.583 172.964 209.586 173.053C209.586 173.124 209.586 173.189 209.586 173.272C209.586 173.355 209.586 173.603 209.586 173.775V179.477H208.285V173.775C208.285 173.639 208.285 173.503 208.285 173.373L208.25 173.047C208.252 173.037 208.252 173.027 208.25 173.018C208.131 174.053 207.144 174.976 206.286 175.461C205.81 175.761 205.263 175.932 204.701 175.957C204.267 175.963 203.846 175.809 203.518 175.526L203.399 175.591L203.174 175.727L169.955 194.909L166.4 197.003C165.888 197.265 165.319 197.398 164.744 197.388V195.885C165.319 195.898 165.888 195.768 166.4 195.507V195.507Z" fill="white"/>
<path d="M107.562 162.897V164.441C107.581 164.646 107.653 164.844 107.771 165.013C107.889 165.182 108.05 165.317 108.237 165.405V165.405L159.385 194.933L162.975 197.01C163.496 197.279 164.075 197.415 164.661 197.406V195.903C164.072 195.916 163.489 195.778 162.969 195.501L160.686 194.182L108.237 163.891C108.046 163.8 107.883 163.661 107.764 163.486C107.645 163.311 107.576 163.108 107.562 162.897Z" fill="#BA68C8"/>
<path opacity="0.1" d="M107.562 162.897V164.441C107.581 164.646 107.653 164.844 107.771 165.013C107.889 165.182 108.05 165.317 108.237 165.405V165.405L159.385 194.933L162.975 197.01C163.496 197.279 164.075 197.415 164.661 197.406V195.903C164.072 195.916 163.489 195.778 162.969 195.501L160.686 194.182L108.237 163.891C108.046 163.8 107.883 163.661 107.764 163.486C107.645 163.311 107.576 163.108 107.562 162.897Z" fill="white"/>
<path d="M145.07 140.68C145.33 140.511 145.623 140.4 145.929 140.355C146.235 140.309 146.547 140.329 146.845 140.413L147.507 140.798C148.235 140.372 148.82 139.692 148.82 139.272V138.917C148.826 138.794 148.86 138.675 148.921 138.568C148.967 138.472 149.039 138.39 149.128 138.331L149.424 138.166L150.116 137.763C150.6 137.565 151.124 137.482 151.647 137.52C152.169 137.558 152.676 137.716 153.127 137.982L207.871 169.593L207.93 169.628L169.298 191.934C168.95 192.112 168.563 192.205 168.172 192.205C167.78 192.205 167.394 192.112 167.045 191.934L111.945 159.809L145.07 140.68Z" fill="#263238"/>
<path d="M172.392 188.693L170.931 187.853C171.324 187.716 171.747 187.686 172.155 187.764C172.546 187.965 172.392 188.693 172.392 188.693Z" fill="#BA68C8"/>
<path opacity="0.7" d="M172.392 188.693L170.931 187.853C171.324 187.716 171.747 187.686 172.155 187.764C172.546 187.965 172.392 188.693 172.392 188.693Z" fill="black"/>
<path d="M173.398 187.788C173.231 187.608 173.03 187.464 172.805 187.366C172.581 187.267 172.338 187.217 172.093 187.217C171.848 187.217 171.606 187.267 171.381 187.366C171.157 187.464 170.955 187.608 170.789 187.788C169.364 189.095 169.293 190.39 168.701 190.373C168.11 190.355 168.11 179.932 168.11 179.932L173.735 185.144L173.398 187.788Z" fill="#BA68C8"/>
<path opacity="0.7" d="M173.398 187.788C173.231 187.608 173.03 187.464 172.805 187.366C172.581 187.267 172.338 187.217 172.093 187.217C171.848 187.217 171.606 187.267 171.381 187.366C171.157 187.464 170.955 187.608 170.789 187.788C169.364 189.095 169.293 190.39 168.701 190.373C168.11 190.355 168.11 179.932 168.11 179.932L173.735 185.144L173.398 187.788Z" fill="black"/>
<path d="M114.589 149.901L114.495 149.848L115.394 149.327L154.126 126.968L210.562 163.488C211.491 164.027 211.657 164.807 210.929 165.221L209.61 165.984L173.41 186.918L173.149 186.729L114.589 149.901Z" fill="#BA68C8"/>
<path opacity="0.5" d="M114.589 149.901L114.495 149.848L115.394 149.327L154.126 126.968L210.562 163.488C211.491 164.027 211.657 164.807 210.929 165.221L209.61 165.984L173.41 186.918L173.149 186.729L114.589 149.901Z" fill="black"/>
<path d="M168.577 174.999L171.381 174.408V185.647C169.689 186.368 168.612 187.043 168.423 188.456L168.577 174.999Z" fill="#455A64"/>
<path d="M172.617 185.794L208.48 165.091C208.809 164.878 209.083 164.59 209.279 164.251C209.475 163.912 209.589 163.531 209.61 163.139V152.072L173.398 173.16C173.398 173.16 172.966 174.727 171.682 175.218C170.399 175.709 171.381 176.212 171.381 176.212V185.676C172.487 185.516 172.617 185.794 172.617 185.794Z" fill="#F0F0F0"/>
<path d="M169.31 174.615C169.683 174.402 169.979 174.39 169.979 174.615V174.964C169.979 175.354 170.57 175.336 171.304 174.911C172.037 174.485 172.629 173.834 172.629 173.444V173.089C172.629 172.888 173.132 172.438 173.747 172.083L115.4 138.651L114.495 139.171C114.369 139.304 114.291 139.475 114.27 139.656V140.011C114.27 140.402 113.678 141.058 112.951 141.478C112.223 141.898 111.626 141.922 111.626 141.531V141.177C111.626 140.975 111.33 140.993 110.963 141.206L169.31 174.615Z" fill="#BA68C8"/>
<path opacity="0.6" d="M169.31 174.615C169.683 174.402 169.979 174.39 169.979 174.615V174.964C169.979 175.354 170.57 175.336 171.304 174.911C172.037 174.485 172.629 173.834 172.629 173.444V173.089C172.629 172.888 173.132 172.438 173.747 172.083L115.4 138.651L114.495 139.171C114.369 139.304 114.291 139.475 114.27 139.656V140.011C114.27 140.402 113.678 141.058 112.951 141.478C112.223 141.898 111.626 141.922 111.626 141.531V141.177C111.626 140.975 111.33 140.993 110.963 141.206L169.31 174.615Z" fill="black"/>
<path d="M114.589 139.201L114.495 139.148L115.394 138.627L154.126 116.268L210.562 148.86C211.491 149.399 211.657 150.173 210.929 150.593L209.61 151.351L173.398 173.16L114.589 139.201Z" fill="#BA68C8"/>
<path opacity="0.5" d="M114.589 139.201L114.495 139.148L115.394 138.627L154.126 116.268L210.562 148.86C211.491 149.399 211.657 150.173 210.929 150.593L209.61 151.351L173.398 173.16L114.589 139.201Z" fill="black"/>
<path d="M111.614 140.816L169.949 174.496L167.908 176.094L109.792 142.543C109.934 142.111 110.204 141.734 110.567 141.46L111.614 140.816Z" fill="#BA68C8"/>
<path opacity="0.5" d="M111.614 140.816L169.949 174.496L167.908 176.094L109.792 142.543C109.934 142.111 110.204 141.734 110.567 141.46L111.614 140.816Z" fill="black"/>
<path d="M109.987 157.597C109.951 157.575 109.918 157.549 109.887 157.52C109.86 157.507 109.838 157.486 109.822 157.461C109.774 157.414 109.734 157.36 109.704 157.301C109.677 157.279 109.657 157.25 109.644 157.218C109.581 157.117 109.531 157.007 109.496 156.893C109.447 156.77 109.408 156.644 109.378 156.514C109.343 156.373 109.319 156.231 109.295 156.077C109.275 155.989 109.263 155.9 109.26 155.811V155.592C109.26 155.432 109.26 155.26 109.26 155.089V145.453C109.249 144.441 109.434 143.437 109.804 142.496L167.92 176.046L168.163 191.142L110.053 157.579L109.987 157.597Z" fill="#BA68C8"/>
<path opacity="0.7" d="M109.987 157.597C109.951 157.575 109.918 157.549 109.887 157.52C109.86 157.507 109.838 157.486 109.822 157.461C109.774 157.414 109.734 157.36 109.704 157.301C109.677 157.279 109.657 157.25 109.644 157.218C109.581 157.117 109.531 157.007 109.496 156.893C109.447 156.77 109.408 156.644 109.378 156.514C109.343 156.373 109.319 156.231 109.295 156.077C109.275 155.989 109.263 155.9 109.26 155.811V155.592C109.26 155.432 109.26 155.26 109.26 155.089V145.453C109.249 144.441 109.434 143.437 109.804 142.496L167.92 176.046L168.163 191.142L110.053 157.579L109.987 157.597Z" fill="black"/>
<path opacity="0.79" d="M167.879 176.07C167.879 176.07 122.108 154.651 117.943 152.687C115.193 151.392 113.844 154.113 114.495 156.929C115.086 159.389 117.494 161.927 117.494 161.927L110.011 157.603C109.975 157.581 109.941 157.555 109.911 157.526C109.884 157.513 109.861 157.492 109.845 157.467C109.798 157.42 109.758 157.366 109.727 157.307C109.701 157.285 109.681 157.256 109.668 157.224C109.605 157.123 109.555 157.013 109.52 156.899C109.471 156.776 109.431 156.649 109.402 156.52C109.366 156.378 109.343 156.236 109.319 156.083C109.299 155.995 109.287 155.906 109.284 155.816V155.598C109.284 155.438 109.284 155.266 109.284 155.095V145.453C109.273 144.441 109.458 143.437 109.828 142.496L167.879 176.07Z" fill="#263238"/>
<path d="M167.341 179.01H168.642C168.611 178.026 168.827 177.05 169.269 176.17C169.578 176.4 169.954 176.522 170.34 176.519C170.912 176.49 171.468 176.315 171.954 176.011C172.54 175.678 173.051 175.229 173.457 174.692C173.488 174.655 173.515 174.615 173.54 174.573C173.769 174.246 173.903 173.861 173.924 173.461L208.273 153.634L209.456 152.954L210.947 152.096C211.077 152.037 211.188 151.943 211.268 151.825C211.348 151.707 211.395 151.57 211.402 151.427V149.907C211.396 150.052 211.35 150.193 211.27 150.314C211.19 150.434 211.078 150.531 210.947 150.593V150.593L207.002 152.865L173.788 172.048C173.167 172.402 172.664 172.852 172.664 173.053V173.408C172.627 173.633 172.519 173.84 172.357 174C172.072 174.342 171.727 174.631 171.339 174.851C170.606 175.277 170.014 175.295 170.014 174.905V174.556C170.014 174.349 169.724 174.366 169.352 174.556L168.695 174.94C167.932 175.413 167.341 177.217 167.341 179.01Z" fill="#BA68C8"/>
<path d="M168.642 179.01V188.646C168.642 188.782 168.642 188.918 168.642 189.048L168.671 189.373C168.669 189.383 168.669 189.393 168.671 189.403C168.79 188.368 169.778 187.445 170.635 186.96C171.113 186.658 171.662 186.487 172.226 186.463C172.66 186.457 173.081 186.611 173.41 186.895L173.522 186.83L173.753 186.694L206.966 167.511L208.877 166.411L209.421 166.091L211.03 165.162C211.136 165.096 211.223 165.005 211.285 164.896C211.347 164.788 211.381 164.666 211.385 164.541V166.062C211.38 166.179 211.348 166.294 211.29 166.397C211.233 166.5 211.151 166.588 211.053 166.653V166.653C210.864 166.765 210.663 166.872 210.462 166.996L210.089 167.215L209.45 167.582C209.308 167.67 209.178 167.747 209.054 167.812C208.93 167.878 208.859 167.931 208.776 167.972L208.285 168.262L181.898 183.488L173.475 188.35C172.883 188.705 172.392 188.829 172.357 188.646C172.355 188.624 172.355 188.602 172.357 188.58V188.243C172.357 187.817 171.765 187.817 171.038 188.243C170.768 188.361 170.531 188.543 170.35 188.774C170.168 189.006 170.047 189.278 169.996 189.568V189.982C170.005 190.075 169.992 190.168 169.958 190.254C169.924 190.34 169.87 190.417 169.801 190.479L169.606 190.592L169.192 190.828L168.677 191.13C168.578 191.196 168.458 191.227 168.339 191.216C168.219 191.205 168.107 191.154 168.021 191.071C167.994 191.057 167.971 191.037 167.956 191.012C167.908 190.967 167.868 190.915 167.837 190.858V190.858C167.814 190.833 167.795 190.805 167.778 190.775C167.715 190.673 167.665 190.564 167.63 190.45C167.58 190.329 167.541 190.204 167.512 190.077C167.477 189.929 167.453 189.787 167.429 189.633C167.408 189.546 167.397 189.457 167.394 189.367C167.394 189.296 167.394 189.231 167.394 189.148C167.394 189.066 167.394 188.817 167.394 188.646V179.01H168.642Z" fill="#BA68C8"/>
<g opacity="0.6">
<path opacity="0.6" d="M167.341 179.01H168.642C168.611 178.026 168.827 177.05 169.269 176.17C169.578 176.4 169.954 176.522 170.34 176.519C170.912 176.49 171.468 176.315 171.954 176.011C172.54 175.678 173.051 175.229 173.457 174.692C173.488 174.655 173.515 174.615 173.54 174.573C173.769 174.246 173.903 173.861 173.924 173.461L208.273 153.634L209.456 152.954L210.947 152.096C211.077 152.037 211.188 151.943 211.268 151.825C211.348 151.707 211.395 151.57 211.402 151.427V149.907C211.396 150.052 211.35 150.193 211.27 150.314C211.19 150.434 211.078 150.531 210.947 150.593V150.593L207.002 152.865L173.788 172.048C173.167 172.402 172.664 172.852 172.664 173.053V173.408C172.627 173.633 172.519 173.84 172.357 174C172.072 174.342 171.727 174.631 171.339 174.851C170.606 175.277 170.014 175.295 170.014 174.905V174.556C170.014 174.349 169.724 174.366 169.352 174.556L168.695 174.94C167.932 175.413 167.341 177.217 167.341 179.01Z" fill="black"/>
<path opacity="0.6" d="M168.642 179.01V188.645C168.642 188.781 168.642 188.917 168.642 189.048L168.671 189.373C168.669 189.383 168.669 189.393 168.671 189.402C168.79 188.367 169.778 187.445 170.635 186.959C171.113 186.658 171.662 186.487 172.226 186.463C172.66 186.457 173.081 186.611 173.41 186.894L173.522 186.829L173.753 186.693L206.966 167.511L208.877 166.41L209.421 166.091L211.03 165.162C211.136 165.096 211.223 165.005 211.285 164.896C211.347 164.788 211.381 164.666 211.385 164.541V166.061C211.38 166.179 211.348 166.294 211.29 166.397C211.233 166.5 211.151 166.587 211.053 166.653V166.653C210.864 166.765 210.663 166.872 210.462 166.996L210.089 167.215L209.45 167.582C209.308 167.67 209.178 167.747 209.054 167.812C208.93 167.877 208.859 167.931 208.776 167.972L208.285 168.262L181.898 183.487L173.475 188.35C172.883 188.704 172.392 188.829 172.357 188.645C172.355 188.624 172.355 188.602 172.357 188.58V188.243C172.357 187.817 171.765 187.817 171.038 188.243C170.768 188.36 170.531 188.543 170.35 188.774C170.168 189.005 170.047 189.278 169.996 189.568V189.982C170.005 190.074 169.992 190.168 169.958 190.254C169.924 190.34 169.87 190.417 169.801 190.479L169.606 190.591L169.192 190.828L168.677 191.13C168.578 191.196 168.458 191.226 168.339 191.216C168.219 191.205 168.107 191.154 168.021 191.07C167.994 191.057 167.971 191.037 167.956 191.011C167.908 190.967 167.868 190.915 167.837 190.858V190.858C167.814 190.832 167.795 190.805 167.778 190.775C167.715 190.673 167.665 190.564 167.63 190.449C167.58 190.329 167.541 190.204 167.512 190.077C167.477 189.929 167.453 189.787 167.429 189.633C167.408 189.546 167.397 189.457 167.394 189.367C167.394 189.296 167.394 189.231 167.394 189.148C167.394 189.065 167.394 188.817 167.394 188.645V179.01H168.642Z" fill="black"/>
</g>
<path d="M109.763 142.513L164.998 174.408L206.747 150.304C206.884 150.258 207.002 150.171 207.086 150.054C207.17 149.937 207.216 149.797 207.216 149.653C207.216 149.509 207.17 149.369 207.086 149.252C207.002 149.135 206.884 149.048 206.747 149.002L152.091 117.439L115.418 138.627L114.513 139.154C114.39 139.286 114.313 139.454 114.294 139.633V139.988C114.294 140.378 113.702 141.035 112.975 141.455C112.938 141.479 112.898 141.499 112.856 141.514L111.638 140.81L111.046 141.141L110.963 141.182L110.538 141.431C110.175 141.705 109.905 142.082 109.763 142.513V142.513Z" fill="#263238"/>
<path d="M203.665 150.54L202.003 149.653L203.518 149.292C203.663 149.462 203.755 149.672 203.781 149.894C203.807 150.116 203.767 150.341 203.665 150.54V150.54Z" fill="#E0E0E0"/>
<g style="mix-blend-mode:multiply" opacity="0.5">
<path d="M203.665 150.54L202.003 149.653L203.518 149.292C203.663 149.462 203.755 149.672 203.781 149.894C203.807 150.116 203.767 150.341 203.665 150.54V150.54Z" fill="#E0E0E0"/>
</g>
<path d="M159.615 172.722C160.139 172.987 160.717 173.126 161.304 173.126C161.891 173.126 162.47 172.987 162.993 172.722L200.933 150.836L144.147 114.937L142.816 114.168L104.883 139.153C103.954 139.692 103.954 140.567 104.883 141.105L159.615 172.722Z" fill="#BA68C8"/>
<path d="M173.859 128.222L202.524 147.648L187.091 135.817L195.656 130.872L205.617 136.64V146.926C205.617 147.801 204.641 149.038 204.286 148.837C203.63 148.995 202.992 149.221 202.382 149.511C201.387 150.077 200.463 150.76 199.631 151.546L169.233 130.884L173.859 128.222Z" fill="#BA68C8"/>
<path opacity="0.2" d="M173.859 128.222L202.524 147.648L187.091 135.817L195.656 130.872L205.617 136.64V146.926C205.617 147.801 204.641 149.038 204.286 148.837C203.63 148.995 202.992 149.221 202.382 149.511C201.387 150.077 200.463 150.76 199.631 151.546L169.233 130.884L173.859 128.222Z" fill="black"/>
<path d="M161.301 159.88V171.758C161.694 171.767 162.083 171.675 162.431 171.492L166.572 169.09L198.277 150.789V138.521L161.301 159.88Z" fill="white"/>
<path d="M105.823 128.95V138.81C105.845 139.201 105.958 139.581 106.153 139.92C106.348 140.259 106.62 140.548 106.947 140.762L156.043 169.096L160.183 171.497C160.529 171.68 160.916 171.772 161.307 171.764V160.809L105.823 128.95Z" fill="#F0F0F0"/>
<path d="M198.294 150.789C198.324 150.34 198.489 149.911 198.768 149.558C199.172 149.019 199.683 148.57 200.27 148.239C200.758 147.935 201.316 147.76 201.891 147.73C202.264 147.693 202.638 147.78 202.956 147.979V135.829L198.3 138.521L198.294 150.789Z" fill="#455A64"/>
<path d="M200.152 148.31C199.615 148.635 199.146 149.058 198.768 149.558C198.489 149.911 198.324 150.34 198.294 150.789V138.958H200.146L200.152 148.31Z" fill="#F5F5F5"/>
<path d="M144.141 104.201L200.927 137V137.758C200.927 138.183 201.518 138.349 202.246 137.917C202.973 137.485 203.577 136.965 203.577 136.237L203.648 135.516L145.78 102.107L145.543 101.971C145.484 102.08 145.451 102.202 145.449 102.326V102.675C145.455 103.095 144.869 103.775 144.141 104.201Z" fill="#BA68C8"/>
<path opacity="0.2" d="M144.141 104.201L200.927 137V137.758C200.927 138.183 201.518 138.349 202.246 137.917C202.973 137.485 203.577 136.965 203.577 136.237L203.648 135.516L145.78 102.107L145.543 101.971C145.484 102.08 145.451 102.202 145.449 102.326V102.675C145.455 103.095 144.869 103.775 144.141 104.201Z" fill="black"/>
<path d="M162.993 158.904L200.116 137.486C200.59 137.237 201.021 137.036 201.199 137.131L200.956 137.001L144.171 104.201L143.503 103.823C143.205 103.734 142.892 103.712 142.586 103.758C142.279 103.804 141.986 103.917 141.728 104.089L104.883 125.342C103.954 125.88 103.954 126.761 104.883 127.294L159.627 158.904C160.149 159.168 160.725 159.305 161.31 159.305C161.895 159.305 162.471 159.168 162.993 158.904V158.904Z" fill="#BA68C8"/>
<path d="M145.549 101.971L145.786 102.107L203.665 135.516C203.695 135.454 203.737 135.4 203.79 135.356L203.985 135.25L204.399 135.007L204.913 134.705C205.014 134.64 205.133 134.61 205.252 134.621C205.371 134.632 205.483 134.682 205.57 134.764C205.594 134.781 205.616 134.801 205.635 134.824C205.704 134.897 205.763 134.979 205.813 135.066C205.874 135.169 205.923 135.278 205.96 135.392C206.007 135.515 206.046 135.642 206.079 135.77C206.108 135.912 206.138 136.054 206.162 136.208C206.18 136.298 206.191 136.388 206.197 136.48V136.693C206.197 136.853 206.197 137.024 206.197 137.202V135.575C206.138 135.039 205.954 134.525 205.66 134.073C205.366 133.621 204.971 133.244 204.505 132.972L149.761 101.362C149.31 101.096 148.803 100.939 148.28 100.902C147.758 100.865 147.234 100.949 146.75 101.149L146.058 101.551L145.768 101.723C145.673 101.783 145.597 101.869 145.549 101.971V101.971Z" fill="#BA68C8"/>
<path d="M162.993 172.722L165.282 171.397L199.631 151.564C199.661 151.115 199.826 150.686 200.104 150.333C200.511 149.796 201.022 149.347 201.607 149.014C202.095 148.714 202.65 148.541 203.222 148.511C203.608 148.503 203.985 148.626 204.292 148.86C204.734 147.978 204.949 147.001 204.919 146.015H206.221C206.221 147.79 205.629 149.612 204.902 150.032L204.245 150.416C203.872 150.629 203.583 150.641 203.583 150.416V150.067C203.583 149.677 202.991 149.694 202.252 150.114C201.512 150.534 200.933 151.197 200.933 151.587V151.936C200.933 152.137 200.43 152.587 199.809 152.948L166.589 172.13L162.993 174.207C162.472 174.476 161.893 174.612 161.307 174.603V173.101C161.892 173.12 162.473 172.99 162.993 172.722V172.722Z" fill="#BA68C8"/>
<path opacity="0.4" d="M162.993 172.722L165.282 171.397L199.631 151.564C199.661 151.115 199.826 150.686 200.104 150.333C200.511 149.796 201.022 149.347 201.607 149.014C202.095 148.714 202.65 148.541 203.222 148.511C203.608 148.503 203.985 148.626 204.292 148.86C204.734 147.978 204.949 147.001 204.919 146.015H206.221C206.221 147.79 205.629 149.612 204.902 150.032L204.245 150.416C203.872 150.629 203.583 150.641 203.583 150.416V150.067C203.583 149.677 202.991 149.694 202.252 150.114C201.512 150.534 200.933 151.197 200.933 151.587V151.936C200.933 152.137 200.43 152.587 199.809 152.948L166.589 172.13L162.993 174.207C162.472 174.476 161.893 174.612 161.307 174.603V173.101C161.892 173.12 162.473 172.99 162.993 172.722V172.722Z" fill="black"/>
<path d="M162.981 158.91L165.27 157.585L191.658 142.36L200.116 137.485C200.708 137.136 201.205 137.012 201.24 137.196V137.58C201.24 138 201.832 138 202.559 137.58C202.83 137.462 203.067 137.279 203.248 137.047C203.43 136.814 203.551 136.54 203.6 136.249V135.835C203.592 135.743 203.605 135.65 203.639 135.563C203.673 135.477 203.726 135.4 203.796 135.338L203.991 135.232L204.405 134.989L204.919 134.688C205.02 134.622 205.139 134.593 205.258 134.603C205.377 134.614 205.489 134.665 205.576 134.747C205.6 134.763 205.622 134.783 205.641 134.806C205.687 134.854 205.727 134.908 205.759 134.966C205.782 134.991 205.802 135.019 205.819 135.048C205.879 135.151 205.929 135.26 205.966 135.374C206.013 135.498 206.052 135.624 206.085 135.752C206.114 135.894 206.144 136.036 206.168 136.19C206.186 136.28 206.197 136.371 206.203 136.462V136.675C206.203 136.835 206.203 137.006 206.203 137.184V145.986H204.902V137.231C204.902 137.095 204.902 136.953 204.902 136.823L204.872 136.498C204.754 137.533 203.766 138.456 202.902 138.941C202.427 139.243 201.88 139.414 201.317 139.437C200.883 139.443 200.462 139.289 200.134 139.006L200.022 139.071L199.791 139.207L166.572 158.39L162.975 160.466C162.461 160.729 161.89 160.861 161.313 160.85V159.348C161.897 159.344 162.47 159.193 162.981 158.91V158.91Z" fill="#BA68C8"/>
<path opacity="0.4" d="M162.981 158.91L165.27 157.585L191.658 142.36L200.116 137.485C200.708 137.136 201.205 137.012 201.24 137.196V137.58C201.24 138 201.832 138 202.559 137.58C202.83 137.462 203.067 137.279 203.248 137.047C203.43 136.814 203.551 136.54 203.6 136.249V135.835C203.592 135.743 203.605 135.65 203.639 135.563C203.673 135.477 203.726 135.4 203.796 135.338L203.991 135.232L204.405 134.989L204.919 134.688C205.02 134.622 205.139 134.593 205.258 134.603C205.377 134.614 205.489 134.665 205.576 134.747C205.6 134.763 205.622 134.783 205.641 134.806C205.687 134.854 205.727 134.908 205.759 134.966C205.782 134.991 205.802 135.019 205.819 135.048C205.879 135.151 205.929 135.26 205.966 135.374C206.013 135.498 206.052 135.624 206.085 135.752C206.114 135.894 206.144 136.036 206.168 136.19C206.186 136.28 206.197 136.371 206.203 136.462V136.675C206.203 136.835 206.203 137.006 206.203 137.184V145.986H204.902V137.231C204.902 137.095 204.902 136.953 204.902 136.823L204.872 136.498C204.754 137.533 203.766 138.456 202.902 138.941C202.427 139.243 201.88 139.414 201.317 139.437C200.883 139.443 200.462 139.289 200.134 139.006L200.022 139.071L199.791 139.207L166.572 158.39L162.975 160.466C162.461 160.729 161.89 160.861 161.313 160.85V159.348C161.897 159.344 162.47 159.193 162.981 158.91V158.91Z" fill="black"/>
<path d="M104.179 126.3V127.826C104.197 128.031 104.268 128.228 104.385 128.397C104.502 128.566 104.662 128.702 104.847 128.79V128.79L156.001 158.319L159.592 160.395C160.111 160.663 160.688 160.799 161.272 160.791V159.289C160.684 159.302 160.104 159.163 159.586 158.887L157.303 157.567L104.883 127.294C104.684 127.211 104.513 127.074 104.388 126.898C104.264 126.722 104.191 126.515 104.179 126.3V126.3Z" fill="#BA68C8"/>
<path opacity="0.2" d="M104.179 126.3V127.826C104.197 128.031 104.268 128.228 104.385 128.397C104.502 128.566 104.662 128.702 104.847 128.79V128.79L156.001 158.319L159.592 160.395C160.111 160.663 160.688 160.799 161.272 160.791V159.289C160.684 159.302 160.104 159.163 159.586 158.887L157.303 157.567L104.883 127.294C104.684 127.211 104.513 127.074 104.388 126.898C104.264 126.722 104.191 126.515 104.179 126.3V126.3Z" fill="black"/>
<path d="M104.179 140.106V141.632C104.197 141.837 104.268 142.034 104.385 142.203C104.502 142.372 104.662 142.508 104.847 142.596L156.025 172.13L159.615 174.207C160.134 174.475 160.711 174.611 161.295 174.603V173.101C160.708 173.114 160.128 172.975 159.609 172.698L157.326 171.379L104.883 141.1C104.684 141.017 104.513 140.88 104.388 140.704C104.264 140.528 104.191 140.321 104.179 140.106V140.106Z" fill="#BA68C8"/>
<path opacity="0.2" d="M104.179 140.106V141.632C104.197 141.837 104.268 142.034 104.385 142.203C104.502 142.372 104.662 142.508 104.847 142.596L156.025 172.13L159.615 174.207C160.134 174.475 160.711 174.611 161.295 174.603V173.101C160.708 173.114 160.128 172.975 159.609 172.698L157.326 171.379L104.883 141.1C104.684 141.017 104.513 140.88 104.388 140.704C104.264 140.528 104.191 140.321 104.179 140.106V140.106Z" fill="black"/>
<path d="M127.804 86.438L122.374 96.1151L130.288 100.327L136.05 91.7498L127.804 86.438Z" fill="#FFA8A7"/>
<path d="M147.069 64.6407C144.053 64.1261 139.486 63.99 136.517 69.0829C133.547 74.1759 127.147 86.7455 127.147 86.7455C127.147 86.7455 130.886 91.5841 136.298 92.4655L145.141 78.4348L147.069 64.6407Z" fill="#BA68C8"/>
<path d="M139.942 183.156H133.187V194.72H139.942V183.156Z" fill="#FFA8A7"/>
<path d="M120.386 180.341L113.631 180.571L113.294 168.333L120.043 168.102L120.386 180.341Z" fill="#FFA8A7"/>
<path d="M133.187 191.384V190.42C132.542 190.698 131.039 196.43 128.36 198.873C126.23 200.819 123.326 203.061 122.587 205.226C121.818 207.479 126.633 208.727 128.62 208.372C130.933 207.964 134.943 206.338 135.949 204.823C136.955 203.309 137.428 201.091 138.244 199.985C139.06 198.879 140.947 197.619 141.391 196.359C141.633 195.655 141.344 194.117 141.006 192.81C140.693 191.627 140.35 190.302 139.942 190.414V191.148C139.451 191.692 138.096 192.23 136.564 192.289C135.576 192.336 133.181 192.141 133.187 191.384Z" fill="#263238"/>
<path d="M113.56 178.489C113.211 178.489 112.927 178.998 112.152 179.832C110.996 181 109.653 181.966 108.177 182.689C105.646 183.961 100.742 185.907 98.5062 186.918C97.1161 187.545 97.1812 189.225 98.6186 190.183C100.056 191.142 103.522 191.828 107.692 190.893C109.958 190.385 112.915 188.291 114.791 188.403C116.666 188.515 120.161 188.492 121.54 187.539C122.918 186.587 122.368 184.582 121.977 182.807C121.552 180.903 120.942 177.986 120.309 178.117V178.708C119.499 179.938 115.364 180.441 113.578 179.536L113.56 178.489Z" fill="#263238"/>
<path d="M167.151 112.831C168.63 123.271 166.637 125.253 156.717 135.273C151.393 140.65 142.787 148.535 142.787 148.535C142.787 148.535 142.911 151.871 142.976 159.348C143.041 165.931 140.291 187.356 140.291 187.356C140.291 187.356 135.807 189.243 132.731 187.285C132.731 187.285 131.341 171.344 130.59 163.033C129.572 151.794 129.04 146.128 129.614 143.708C130.123 141.573 140.22 128.82 142.55 125.247L121.09 137.716C121.506 140.876 121.716 144.059 121.717 147.245C121.481 156.183 120.38 174.035 120.38 174.035C120.38 174.035 115.471 176.23 113.034 174.337C113.034 174.337 106.852 135.297 106.852 132.091C106.852 127.223 127.993 112.689 131.998 109.306C134.281 107.377 136.824 105.289 136.824 105.289L167.151 112.831Z" fill="#455A64"/>
<path d="M142.55 125.253C140.293 123.425 138.594 121.001 137.647 118.255C137.765 120.047 138.02 121.827 138.41 123.579C139.001 125.898 121.09 137.716 121.09 137.716L142.55 125.253Z" fill="#37474F"/>
<path d="M154.477 45.9694C155.686 40.8136 152.486 35.6544 147.33 34.446C142.174 33.2377 137.015 36.4378 135.806 41.5936C134.598 46.7494 137.798 51.9086 142.954 53.117C148.11 54.3253 153.269 51.1252 154.477 45.9694Z" fill="#263238"/>
<path d="M165.288 70.4493C165.288 70.4493 167.654 72.3895 167.654 78.5175V91.7497L167.317 114.002C162.585 119.154 141.29 117.202 136.02 105.964C136.02 105.964 136.061 82.4747 136.061 77.2103C136.061 71.9458 139.019 65.1138 147.064 64.6406L157.486 67.0658L165.288 70.4493Z" fill="#263238"/>
<path d="M161.715 50.5981C161.715 50.5981 160.16 57.8974 159.539 59.0982C159.124 59.8384 158.44 60.3896 157.628 60.6361L157.734 55.5018L161.715 50.5981Z" fill="#263238"/>
<path d="M159.763 40.1401C160.303 40.0794 160.85 40.1421 161.362 40.3235C161.875 40.5049 162.339 40.8001 162.721 41.1871C163.999 42.4944 163.283 46.5876 161.692 50.5981L158.764 50.9353L159.763 40.1401Z" fill="#263238"/>
<path d="M157.912 50.9353C158.503 51.2843 159.337 50.1604 160.059 49.4033C160.781 48.6461 163.147 47.6287 164.324 50.0954C165.501 52.562 163.283 55.9691 161.425 56.5547C158.219 57.5603 157.734 55.5018 157.734 55.5018L157.492 67.0659C154.73 70.1536 145.283 69.4319 147.064 66.7583V63.2092C147.064 63.2092 144.159 63.6528 142.745 63.434C140.379 63.0672 138.901 61.2099 138.185 58.6546C137.037 54.5554 136.6 51.2488 137.593 43.1865C138.664 34.3493 148.939 34.2605 154.487 37.7505C160.035 41.2404 157.912 50.9353 157.912 50.9353Z" fill="#FFA8A7"/>
<path d="M149.743 52.9581H149.246C148.379 52.9581 147.547 52.6135 146.933 52.0001C146.32 51.3866 145.975 50.5546 145.975 49.6871C145.975 48.8195 146.32 47.9875 146.933 47.3741C147.547 46.7606 148.379 46.416 149.246 46.416H149.749C150.617 46.416 151.449 46.7606 152.062 47.3741C152.675 47.9875 153.02 48.8195 153.02 49.6871C153.02 50.5546 152.675 51.3866 152.062 52.0001C151.449 52.6135 150.617 52.9581 149.749 52.9581H149.743ZM149.246 46.9661C148.525 46.9661 147.832 47.2528 147.322 47.7631C146.812 48.2734 146.525 48.9654 146.525 49.6871C146.525 50.4087 146.812 51.1008 147.322 51.6111C147.832 52.1214 148.525 52.408 149.246 52.408H149.749C150.471 52.408 151.163 52.1214 151.673 51.6111C152.183 51.1008 152.47 50.4087 152.47 49.6871C152.47 48.9654 152.183 48.2734 151.673 47.7631C151.163 47.2528 150.471 46.9661 149.749 46.9661H149.246Z" fill="#263238"/>
<path d="M139.782 52.9581H139.279C138.412 52.9581 137.58 52.6135 136.966 52.0001C136.353 51.3866 136.008 50.5546 136.008 49.6871C136.008 48.8195 136.353 47.9875 136.966 47.3741C137.58 46.7606 138.412 46.416 139.279 46.416H139.782C140.65 46.416 141.482 46.7606 142.095 47.3741C142.708 47.9875 143.053 48.8195 143.053 49.6871C143.053 50.5546 142.708 51.3866 142.095 52.0001C141.482 52.6135 140.65 52.9581 139.782 52.9581V52.9581ZM139.279 46.9661C138.558 46.9661 137.865 47.2528 137.355 47.7631C136.845 48.2734 136.558 48.9654 136.558 49.6871C136.558 50.4087 136.845 51.1008 137.355 51.6111C137.865 52.1214 138.558 52.408 139.279 52.408H139.782C140.504 52.408 141.196 52.1214 141.706 51.6111C142.216 51.1008 142.503 50.4087 142.503 49.6871C142.503 48.9654 142.216 48.2734 141.706 47.7631C141.196 47.2528 140.504 46.9661 139.782 46.9661H139.279Z" fill="#263238"/>
<path d="M146.011 49.0424C145.811 48.7714 145.551 48.5506 145.251 48.3976C144.951 48.2446 144.62 48.1636 144.283 48.1611C144.003 48.1328 143.72 48.1718 143.458 48.2746C143.195 48.3775 142.961 48.5413 142.775 48.7526L142.337 48.4213C142.577 48.1381 142.882 47.9182 143.227 47.781C143.571 47.6438 143.944 47.5936 144.313 47.6346C144.739 47.6388 145.159 47.7446 145.536 47.9431C145.914 48.1416 146.239 48.4272 146.484 48.7762L146.011 49.0424Z" fill="#263238"/>
<path d="M159.669 49.0188H152.712V49.5689H159.669V49.0188Z" fill="#263238"/>
<path d="M157.912 51.9231C158.208 51.9231 159.326 50.0657 160.059 49.4033C161.071 48.4805 159.763 40.1402 159.763 40.1402C159.763 40.1402 160.739 38.0639 158.787 35.9227C157.403 34.3966 155.084 34.225 151.127 33.6039C149.051 33.2786 145.904 32.693 143.828 32.3085C141.355 31.8471 139.303 31.3621 137.558 32.9C136.873 33.4938 136.389 34.2852 136.171 35.1653C135.954 36.0455 136.015 36.9713 136.345 37.8155C136.846 38.8684 137.737 39.6851 138.83 40.0928C138.83 40.0928 139.906 41.0511 143.662 41.5066C147.418 41.962 153.268 41.4237 154.067 41.3114C155.155 41.1635 155.386 42.2164 155.978 45.103C156.492 47.6169 156.936 51.9054 157.912 51.9231Z" fill="#263238"/>
<path d="M159.757 40.8146L163.306 38.904C163.193 38.6654 163.032 38.4523 162.834 38.2776C162.636 38.1028 162.404 37.97 162.153 37.8871C161.902 37.8041 161.637 37.7729 161.374 37.7952C161.11 37.8175 160.854 37.8928 160.621 38.0167C160.147 38.2842 159.793 38.7233 159.632 39.2437C159.471 39.7641 159.516 40.3262 159.757 40.8146V40.8146Z" fill="#263238"/>
<path d="M147.069 63.2387C147.069 63.2387 152.334 62.1799 154.168 61.2039C155.25 60.6389 156.136 59.7607 156.711 58.6841C156.433 59.7566 155.942 60.7623 155.268 61.6416C153.919 63.363 147.063 64.6288 147.063 64.6288L147.069 63.2387Z" fill="#F28F8F"/>
<path d="M148.335 49.6222C148.343 49.8299 148.412 50.0306 148.534 50.1993C148.655 50.368 148.824 50.4973 149.018 50.5709C149.213 50.6446 149.424 50.6594 149.627 50.6135C149.83 50.5676 150.014 50.463 150.158 50.3128C150.302 50.1627 150.398 49.9735 150.435 49.7689C150.472 49.5644 150.448 49.3535 150.366 49.1625C150.284 48.9716 150.147 48.809 149.973 48.6951C149.8 48.5812 149.596 48.521 149.388 48.522C149.247 48.5251 149.107 48.556 148.978 48.6129C148.848 48.6699 148.732 48.7518 148.634 48.854C148.536 48.9561 148.459 49.0766 148.408 49.2084C148.357 49.3402 148.332 49.4808 148.335 49.6222V49.6222Z" fill="#263238"/>
<path d="M150.027 45.2567L152.287 46.4989C152.439 46.1912 152.469 45.8374 152.372 45.5083C152.274 45.1792 152.056 44.8991 151.76 44.7243C151.612 44.6425 151.449 44.5912 151.281 44.5738C151.112 44.5563 150.942 44.5729 150.781 44.6226C150.619 44.6722 150.469 44.754 150.339 44.8629C150.21 44.9719 150.104 45.1058 150.027 45.2567V45.2567Z" fill="#263238"/>
<path d="M147.549 56.9037L145.141 57.8087C145.193 57.9703 145.277 58.1198 145.388 58.2482C145.499 58.3766 145.635 58.4812 145.787 58.5558C145.94 58.6304 146.106 58.6734 146.275 58.6822C146.445 58.6911 146.614 58.6656 146.774 58.6072C147.098 58.4787 147.36 58.2294 147.505 57.9117C147.649 57.5941 147.665 57.2327 147.549 56.9037Z" fill="#F28F8F"/>
<path d="M138.658 46.1796L140.717 44.6003C140.621 44.4624 140.498 44.3454 140.356 44.2563C140.213 44.1672 140.055 44.1078 139.889 44.0819C139.723 44.0559 139.553 44.0638 139.391 44.1051C139.228 44.1464 139.075 44.2203 138.942 44.3223C138.665 44.5359 138.481 44.8481 138.428 45.194C138.375 45.5399 138.457 45.8929 138.658 46.1796Z" fill="#263238"/>
<path d="M139.563 49.3206C139.571 49.5283 139.64 49.729 139.762 49.8977C139.883 50.0664 140.052 50.1956 140.246 50.2693C140.44 50.3429 140.652 50.3577 140.855 50.3118C141.058 50.2659 141.242 50.1614 141.386 50.0112C141.53 49.861 141.626 49.6719 141.663 49.4673C141.7 49.2628 141.676 49.0519 141.594 48.8609C141.512 48.6699 141.375 48.5074 141.201 48.3935C141.027 48.2796 140.824 48.2193 140.616 48.2203C140.475 48.2234 140.335 48.2543 140.206 48.3113C140.076 48.3682 139.959 48.4502 139.862 48.5523C139.764 48.6545 139.687 48.7749 139.636 48.9067C139.585 49.0386 139.56 49.1792 139.563 49.3206V49.3206Z" fill="#263238"/>
<path d="M144.774 48.4745L144.656 54.8687L140.876 54.0347L144.774 48.4745Z" fill="#F28F8F"/>
<path d="M138.315 101.634V102.225C138.315 102.528 138.235 102.825 138.083 103.086C137.931 103.348 137.714 103.565 137.451 103.716L121.025 113.18C120.763 113.331 120.467 113.411 120.164 113.411C119.862 113.411 119.565 113.331 119.304 113.18L89.1662 95.7838C88.904 95.6331 88.6861 95.4159 88.5345 95.1543C88.3829 94.8926 88.3029 94.5956 88.3026 94.2931V93.8732L120.161 112.263L138.315 101.634Z" fill="#BA68C8"/>
<path opacity="0.6" d="M138.315 101.634V102.225C138.315 102.528 138.235 102.825 138.083 103.086C137.931 103.348 137.714 103.565 137.451 103.716L121.025 113.18C120.763 113.331 120.467 113.411 120.164 113.411C119.862 113.411 119.565 113.331 119.304 113.18L89.1662 95.7838C88.904 95.6331 88.6861 95.4159 88.5345 95.1543C88.3829 94.8926 88.3029 94.5956 88.3026 94.2931V93.8732L120.161 112.263L138.315 101.634Z" fill="black"/>
<path d="M88.3203 93.8792L106.19 83.5632C106.346 83.4729 106.524 83.4253 106.705 83.4253C106.885 83.4253 107.063 83.4729 107.219 83.5632L138.214 101.462C138.249 101.483 138.277 101.512 138.297 101.547C138.317 101.581 138.327 101.621 138.327 101.661C138.327 101.7 138.317 101.74 138.297 101.774C138.277 101.809 138.249 101.838 138.214 101.859L120.179 112.269L88.3203 93.8792Z" fill="#BA68C8"/>
<path opacity="0.5" d="M88.3203 93.8792L106.19 83.5632C106.346 83.4729 106.524 83.4253 106.705 83.4253C106.885 83.4253 107.063 83.4729 107.219 83.5632L138.214 101.462C138.249 101.483 138.277 101.512 138.297 101.547C138.317 101.581 138.327 101.621 138.327 101.661C138.327 101.7 138.317 101.74 138.297 101.774C138.277 101.809 138.249 101.838 138.214 101.859L120.179 112.269L88.3203 93.8792Z" fill="black"/>
<path d="M120.327 110.755L129.963 105.195L101.783 88.9282L92.0942 94.4589L120.327 110.755Z" fill="#263238"/>
<path d="M125.065 95.2929L124.888 95.3934L120.161 98.1203L111.762 93.2699L111.59 93.1694L116.488 90.3419L125.065 95.2929Z" fill="#263238"/>
<path d="M124.888 95.3934L120.161 98.1203L111.762 93.2698L116.488 90.543L124.888 95.3934Z" fill="#263238"/>
<path opacity="0.7" d="M120.161 112.269V113.417C119.86 113.417 119.564 113.337 119.304 113.186L89.1662 95.7899C88.904 95.6392 88.6861 95.422 88.5345 95.1604C88.3829 94.8987 88.3029 94.6017 88.3026 94.2992V93.8793L120.161 112.269Z" fill="black"/>
<path d="M119.671 112.524C119.384 112.638 119.075 112.685 118.767 112.661C118.46 112.638 118.162 112.544 117.896 112.388L87.8944 95.0681C87.6338 94.9186 87.4095 94.7132 87.2377 94.4667C87.0659 94.2203 86.9508 93.9388 86.9007 93.6425L83.6178 74.0516C83.5991 73.9422 83.5892 73.8314 83.5882 73.7204C83.5846 73.1761 83.7974 72.6527 84.1797 72.2653L115.358 90.2709C115.556 90.3797 115.727 90.5311 115.859 90.7143C115.991 90.8974 116.081 91.1077 116.121 91.3297L119.671 112.524Z" fill="#BA68C8"/>
<path opacity="0.5" d="M119.671 112.524C119.384 112.638 119.075 112.685 118.767 112.661C118.46 112.638 118.162 112.544 117.896 112.388L87.8944 95.0681C87.6338 94.9186 87.4095 94.7132 87.2377 94.4667C87.0659 94.2203 86.9508 93.9388 86.9007 93.6425L83.6178 74.0516C83.5991 73.9422 83.5892 73.8314 83.5882 73.7204C83.5846 73.1761 83.7974 72.6527 84.1797 72.2653L115.358 90.2709C115.556 90.3797 115.727 90.5311 115.859 90.7143C115.991 90.8974 116.081 91.1077 116.121 91.3297L119.671 112.524Z" fill="black"/>
<path d="M120.161 112.269L119.96 112.388C119.869 112.44 119.774 112.485 119.676 112.524L116.127 91.3296C116.09 91.1102 116.005 90.9017 115.878 90.7187C115.752 90.5358 115.586 90.3829 115.394 90.2708L84.2152 72.2652C84.3391 72.1432 84.4782 72.0378 84.6293 71.9517L115.873 89.9869C116.065 90.0989 116.231 90.2518 116.357 90.4348C116.484 90.6177 116.569 90.8263 116.606 91.0457L120.161 112.269Z" fill="#E0E0E0"/>
<path d="M102.777 94.4412C102.558 93.1339 101.203 91.389 99.7543 90.5549C98.3051 89.7209 97.3054 90.0995 97.5302 91.4126C97.755 92.7258 99.1036 94.4648 100.553 95.3048C102.002 96.1447 103.002 95.7544 102.777 94.4412Z" fill="#BA68C8"/>
<path d="M108.923 107.194C108.86 106.345 108.695 105.507 108.432 104.698C107.97 103.249 106.598 97.6648 103.463 96.8248C103.09 96.7128 102.695 96.7006 102.316 96.7894C101.446 97.026 101.05 97.931 100.878 98.7413C100.718 99.9388 100.718 101.152 100.878 102.35C100.396 101.798 99.8315 101.325 99.2042 100.948C98.648 100.529 97.9774 100.29 97.2817 100.262C97.185 100.257 97.0885 100.276 97.0008 100.317C96.9132 100.358 96.837 100.421 96.779 100.498C96.6666 100.705 96.779 100.965 96.9564 101.149C97.2699 101.527 97.6544 101.847 97.9679 102.225C98.2136 102.556 98.4407 102.899 98.6481 103.255C99.0445 103.893 99.4881 104.497 99.9317 105.106C100.784 106.372 101.853 107.477 103.09 108.371C104.513 109.334 106.127 109.978 107.823 110.258C110.112 110.542 112.336 110.507 113.779 110.004L108.923 107.194Z" fill="#FFA8A7"/>
<path d="M164.661 70.6207C162.549 69.5323 159.462 73.8445 160.444 78.3518C161.425 82.8591 166.264 98.7058 166.264 98.7058C166.264 98.7058 144.408 100.658 142.55 100.888C141.255 101.042 139.806 100.386 138.605 99.9893C136.972 99.4451 135.322 99.0666 133.713 98.4751C133.433 98.3465 133.128 98.2818 132.82 98.2858C132.665 98.2925 132.517 98.35 132.398 98.4495C132.28 98.5489 132.197 98.6847 132.163 98.8359C132.155 99.021 132.203 99.2042 132.299 99.3623C132.815 100.415 133.591 101.319 134.553 101.989C135.019 102.264 135.462 102.577 135.878 102.923C136.132 103.178 136.694 103.881 136.469 104.266L127.786 109.264C127.786 109.264 129.785 111.003 137.026 108.974C139.635 108.292 142.182 107.387 144.638 106.271C144.638 106.271 170.393 107.342 175.048 105.934C176.692 105.431 177.284 104.266 176.172 98.966C174.9 92.8261 171.25 81.6288 170.422 78.6712C168.606 72.2651 168.175 72.413 164.661 70.6207Z" fill="#FFA8A7"/>
<path d="M163.573 69.704C163.573 69.704 167.063 70.6859 168.565 72.6615C170.067 74.6372 175.864 93.749 175.864 93.749C174.349 95.0129 172.577 95.9321 170.671 96.4428C168.765 96.9535 166.771 97.0435 164.827 96.7066C164.827 96.7066 160.166 83.4862 159.669 79.9549C158.787 74.4834 161.461 70.1772 163.573 69.704Z" fill="#BA68C8"/>
<path d="M144.739 82.528C144.455 81.0492 145.378 80.2506 146.803 80.7534C147.558 81.0634 148.229 81.5459 148.763 82.1623C149.297 82.7786 149.68 83.5117 149.879 84.3025C150.163 85.799 145.017 83.9949 144.739 82.528Z" fill="#BA68C8"/>
<path d="M154.493 87.1358L150.299 84.4681C150.512 85.6038 148.98 85.4441 147.602 84.965C146.224 84.4859 144.538 83.5158 144.319 82.3801L140.663 82.3328C140.326 82.3328 140.32 82.7705 140.663 83.1313C141.568 84.1428 143.674 85.9351 148.099 87.4789C152.523 89.0228 154.221 88.5437 154.86 88.0704C155.067 87.893 154.877 87.3784 154.493 87.1358Z" fill="#BA68C8"/>
</svg>
