<svg width="655" height="546" viewBox="0 0 655 546" fill="none" xmlns="http://www.w3.org/2000/svg">
<path d="M77.6173 133.927L212.965 235.363L208.192 428.753" stroke="#263238" stroke-linecap="round" stroke-linejoin="round"/>
<path d="M183.31 243.109L172.716 436.249" stroke="#263238" stroke-linecap="round" stroke-linejoin="round"/>
<path d="M184.719 217.367L183.921 232.014" stroke="#263238" stroke-linecap="round" stroke-linejoin="round"/>
<path d="M132.013 328.224L118.477 443.807" stroke="#263238" stroke-linecap="round" stroke-linejoin="round"/>
<path d="M148.46 186.695L133.234 317.786" stroke="#263238" stroke-linecap="round" stroke-linejoin="round"/>
<path d="M94.659 180.482L42.9705 454.871" stroke="#263238" stroke-linecap="round" stroke-linejoin="round"/>
<path d="M100.089 151.61L95.7388 174.661" stroke="#263238" stroke-linecap="round" stroke-linejoin="round"/>
<path d="M66.0214 156.508L88.2273 170.232" stroke="#263238" stroke-linecap="round" stroke-linejoin="round"/>
<path d="M137.96 200.951L103.438 179.621" stroke="#263238" stroke-linecap="round" stroke-linejoin="round"/>
<path d="M177.301 225.27L152.92 210.2" stroke="#263238" stroke-linecap="round" stroke-linejoin="round"/>
<path d="M208.443 244.502L188.412 232.124" stroke="#263238" stroke-linecap="round" stroke-linejoin="round"/>
<path d="M85.9113 179.919L57.5084 163.253" stroke="#263238" stroke-linecap="round" stroke-linejoin="round"/>
<path d="M136.583 209.636L101.826 189.246" stroke="#263238" stroke-linecap="round" stroke-linejoin="round"/>
<path d="M177.958 233.908L153.718 219.683" stroke="#263238" stroke-linecap="round" stroke-linejoin="round"/>
<path d="M207.081 250.996L187.504 239.51" stroke="#263238" stroke-linecap="round" stroke-linejoin="round"/>
<path d="M83.4544 194.112L62.5004 183.236" stroke="#263238" stroke-linecap="round" stroke-linejoin="round"/>
<path d="M134.986 220.857L101.372 203.408" stroke="#263238" stroke-linecap="round" stroke-linejoin="round"/>
<path d="M178.084 243.219L152.091 229.729" stroke="#263238" stroke-linecap="round" stroke-linejoin="round"/>
<path d="M206.956 258.211L186.972 247.835" stroke="#263238" stroke-linecap="round" stroke-linejoin="round"/>
<path d="M80.262 207.211L65.1764 200.45" stroke="#263238" stroke-linecap="round" stroke-linejoin="round"/>
<path d="M134.673 231.654L97.5228 214.973" stroke="#263238" stroke-linecap="round" stroke-linejoin="round"/>
<path d="M176.534 250.449L150.776 238.884" stroke="#263238" stroke-linecap="round" stroke-linejoin="round"/>
<path d="M206.972 264.11L187.332 255.3" stroke="#263238" stroke-linecap="round" stroke-linejoin="round"/>
<path d="M43.2835 409.552L1 410.209" stroke="#263238" stroke-linecap="round" stroke-linejoin="round"/>
<path d="M113.532 408.456L62.0936 409.254" stroke="#263238" stroke-linecap="round" stroke-linejoin="round"/>
<path d="M168.757 407.58L130.448 408.19" stroke="#263238" stroke-linecap="round" stroke-linejoin="round"/>
<path d="M203.873 407.032L181.135 407.392" stroke="#263238" stroke-linecap="round" stroke-linejoin="round"/>
<path d="M39.2461 421.82L3.45689 423.479" stroke="#263238" stroke-linecap="round" stroke-linejoin="round"/>
<path d="M111.716 418.456L59.6523 420.866" stroke="#263238" stroke-linecap="round" stroke-linejoin="round"/>
<path d="M167.834 415.843L130.699 417.58" stroke="#263238" stroke-linecap="round" stroke-linejoin="round"/>
<path d="M203.106 414.215L180.306 415.279" stroke="#263238" stroke-linecap="round" stroke-linejoin="round"/>
<path d="M35.8972 436.202L7.65081 438.8" stroke="#263238" stroke-linecap="round" stroke-linejoin="round"/>
<path d="M110.668 429.348L56.1783 434.355" stroke="#263238" stroke-linecap="round" stroke-linejoin="round"/>
<path d="M167.004 424.183L130.12 427.564" stroke="#263238" stroke-linecap="round" stroke-linejoin="round"/>
<path d="M203.685 420.819L179.93 422.994" stroke="#263238" stroke-linecap="round" stroke-linejoin="round"/>
<path d="M33.2212 449.253L10.1077 452.07" stroke="#263238" stroke-linecap="round" stroke-linejoin="round"/>
<path d="M108.07 440.161L52.8137 446.874" stroke="#263238" stroke-linecap="round" stroke-linejoin="round"/>
<path d="M166.112 433.103L127.882 437.751" stroke="#263238" stroke-linecap="round" stroke-linejoin="round"/>
<path d="M202.84 428.643L181.12 431.288" stroke="#263238" stroke-linecap="round" stroke-linejoin="round"/>
<path d="M125.315 243.234L135.503 247.35L132.78 276.942L121.106 273.985L125.315 243.234Z" stroke="#263238" stroke-linecap="round" stroke-linejoin="round"/>
<path d="M165.643 285.299L167.881 260.386L175.517 263.469L174.156 287.458L165.643 285.299Z" stroke="#263238" stroke-linecap="round" stroke-linejoin="round"/>
<path d="M62.3283 217.852L77.8521 224.111L71.5925 261.419L55.7557 257.397L62.3283 217.852Z" stroke="#263238" stroke-linecap="round" stroke-linejoin="round"/>
<path d="M198.85 272.874L206.346 275.894L206.174 295.58L198.819 293.718L198.85 272.874Z" stroke="#263238" stroke-linecap="round" stroke-linejoin="round"/>
<path d="M577.383 133.927L442.035 235.363L446.808 428.753" stroke="#263238" stroke-linecap="round" stroke-linejoin="round"/>
<path d="M471.69 243.109L482.284 436.249" stroke="#263238" stroke-linecap="round" stroke-linejoin="round"/>
<path d="M470.281 217.367L471.079 232.014" stroke="#263238" stroke-linecap="round" stroke-linejoin="round"/>
<path d="M522.987 328.224L536.523 443.807" stroke="#263238" stroke-linecap="round" stroke-linejoin="round"/>
<path d="M506.54 186.695L521.766 317.786" stroke="#263238" stroke-linecap="round" stroke-linejoin="round"/>
<path d="M560.341 180.482L612.029 454.871" stroke="#263238" stroke-linecap="round" stroke-linejoin="round"/>
<path d="M554.911 151.61L559.261 174.661" stroke="#263238" stroke-linecap="round" stroke-linejoin="round"/>
<path d="M566.773 170.232L588.978 156.508" stroke="#263238" stroke-linecap="round" stroke-linejoin="round"/>
<path d="M517.04 200.951L551.562 179.621" stroke="#263238" stroke-linecap="round" stroke-linejoin="round"/>
<path d="M477.699 225.27L502.08 210.2" stroke="#263238" stroke-linecap="round" stroke-linejoin="round"/>
<path d="M446.557 244.502L466.588 232.124" stroke="#263238" stroke-linecap="round" stroke-linejoin="round"/>
<path d="M569.089 179.919L597.492 163.253" stroke="#263238" stroke-linecap="round" stroke-linejoin="round"/>
<path d="M518.417 209.636L553.174 189.246" stroke="#263238" stroke-linecap="round" stroke-linejoin="round"/>
<path d="M477.041 233.908L501.282 219.683" stroke="#263238" stroke-linecap="round" stroke-linejoin="round"/>
<path d="M447.919 250.996L467.496 239.51" stroke="#263238" stroke-linecap="round" stroke-linejoin="round"/>
<path d="M571.546 194.112L592.499 183.236" stroke="#263238" stroke-linecap="round" stroke-linejoin="round"/>
<path d="M520.013 220.857L553.627 203.408" stroke="#263238" stroke-linecap="round" stroke-linejoin="round"/>
<path d="M476.916 243.219L502.909 229.729" stroke="#263238" stroke-linecap="round" stroke-linejoin="round"/>
<path d="M448.044 258.211L468.028 247.835" stroke="#263238" stroke-linecap="round" stroke-linejoin="round"/>
<path d="M574.738 207.211L589.824 200.45" stroke="#263238" stroke-linecap="round" stroke-linejoin="round"/>
<path d="M520.326 231.654L557.477 214.973" stroke="#263238" stroke-linecap="round" stroke-linejoin="round"/>
<path d="M478.465 250.449L504.224 238.884" stroke="#263238" stroke-linecap="round" stroke-linejoin="round"/>
<path d="M448.028 264.11L467.668 255.3" stroke="#263238" stroke-linecap="round" stroke-linejoin="round"/>
<path d="M611.716 409.552L654 410.209" stroke="#263238" stroke-linecap="round" stroke-linejoin="round"/>
<path d="M541.468 408.456L592.906 409.254" stroke="#263238" stroke-linecap="round" stroke-linejoin="round"/>
<path d="M486.243 407.58L524.552 408.19" stroke="#263238" stroke-linecap="round" stroke-linejoin="round"/>
<path d="M451.127 407.032L473.865 407.392" stroke="#263238" stroke-linecap="round" stroke-linejoin="round"/>
<path d="M615.754 421.82L651.543 423.479" stroke="#263238" stroke-linecap="round" stroke-linejoin="round"/>
<path d="M543.284 418.456L595.348 420.866" stroke="#263238" stroke-linecap="round" stroke-linejoin="round"/>
<path d="M487.166 415.843L524.301 417.58" stroke="#263238" stroke-linecap="round" stroke-linejoin="round"/>
<path d="M451.894 414.215L474.694 415.279" stroke="#263238" stroke-linecap="round" stroke-linejoin="round"/>
<path d="M619.103 436.202L647.349 438.8" stroke="#263238" stroke-linecap="round" stroke-linejoin="round"/>
<path d="M544.332 429.348L598.822 434.355" stroke="#263238" stroke-linecap="round" stroke-linejoin="round"/>
<path d="M487.996 424.183L524.88 427.564" stroke="#263238" stroke-linecap="round" stroke-linejoin="round"/>
<path d="M451.315 420.819L475.07 422.994" stroke="#263238" stroke-linecap="round" stroke-linejoin="round"/>
<path d="M621.779 449.253L644.892 452.07" stroke="#263238" stroke-linecap="round" stroke-linejoin="round"/>
<path d="M546.93 440.161L602.186 446.874" stroke="#263238" stroke-linecap="round" stroke-linejoin="round"/>
<path d="M488.888 433.103L527.118 437.751" stroke="#263238" stroke-linecap="round" stroke-linejoin="round"/>
<path d="M452.16 428.643L473.88 431.288" stroke="#263238" stroke-linecap="round" stroke-linejoin="round"/>
<path d="M529.685 243.234L519.497 247.35L522.22 276.942L533.894 273.985L529.685 243.234Z" stroke="#263238" stroke-linecap="round" stroke-linejoin="round"/>
<path d="M489.357 285.299L487.119 260.386L479.483 263.469L480.844 287.458L489.357 285.299Z" stroke="#263238" stroke-linecap="round" stroke-linejoin="round"/>
<path d="M592.672 217.852L577.148 224.111L583.407 261.419L599.244 257.397L592.672 217.852Z" stroke="#263238" stroke-linecap="round" stroke-linejoin="round"/>
<path d="M456.15 272.874L448.654 275.894L448.826 295.58L456.181 293.718L456.15 272.874Z" stroke="#263238" stroke-linecap="round" stroke-linejoin="round"/>
<path d="M83.3761 463.306C120.245 456.514 169.852 447.375 207.566 440.365" stroke="#263238" stroke-linecap="round" stroke-linejoin="round"/>
<path d="M31.9067 472.695L70.3249 465.638" stroke="#263238" stroke-linecap="round" stroke-linejoin="round"/>
<path d="M594.816 468.001C555.443 458.611 491.251 443.666 446.776 435.404" stroke="#263238" stroke-linecap="round" stroke-linejoin="round"/>
<path d="M635.581 476.482C635.581 476.482 626.395 474.26 611.669 470.661" stroke="#263238" stroke-linecap="round" stroke-linejoin="round"/>
<path d="M182.653 213.611L191.37 115.179L126.583 42.9278" stroke="#263238" stroke-linecap="round" stroke-linejoin="round"/>
<path d="M457.981 223.579L453.005 116.431L531.484 42.9278" stroke="#263238" stroke-linecap="round" stroke-linejoin="round"/>
<path d="M277.971 498.782C277.971 498.782 253.699 503.117 236.36 510.065C219.021 517.013 283.182 516.137 269.301 518.734C255.421 521.332 212.965 527.404 229.412 536.934C245.859 546.464 371.614 548.217 408.03 539.548C444.445 530.878 343.869 510.065 362.084 502.256C380.3 494.447 399.36 502.256 398.499 491.85C397.639 481.443 362.992 468.846 357.343 469.08C351.693 469.315 388.093 484.056 367.28 488.391C346.467 492.726 305.717 488.344 277.971 498.782Z" fill="#92E3A9"/>
<path opacity="0.6" d="M277.971 498.782C277.971 498.782 253.699 503.117 236.36 510.065C219.021 517.013 283.182 516.137 269.301 518.734C255.421 521.332 212.965 527.404 229.412 536.934C245.859 546.464 371.614 548.217 408.03 539.548C444.445 530.878 343.869 510.065 362.084 502.256C380.3 494.447 399.36 502.256 398.499 491.85C397.639 481.443 362.992 468.846 357.343 469.08C351.693 469.315 388.093 484.056 367.28 488.391C346.467 492.726 305.717 488.344 277.971 498.782Z" fill="white"/>
<path d="M329.769 120.296C329.769 120.296 313.776 126.086 308.33 128.465C302.884 130.844 285.545 132.894 282.822 134.599C280.099 136.305 212.402 211.154 213.748 212.516C215.093 213.877 230.414 214.55 234.842 213.533C239.271 212.516 294.387 159.09 294.387 159.09C294.387 159.09 301.538 159.434 301.538 164.88C301.538 170.326 304.934 229.526 304.934 229.526L375.354 228.165L375.699 156.367C375.699 156.367 376.372 149.231 381.818 149.56C387.263 149.888 445.462 170.67 445.462 170.67L462.081 156.367C462.081 156.367 403.21 133.567 391.974 126.431C380.738 119.295 377.686 111.799 373.195 111.799C368.704 111.799 329.769 120.296 329.769 120.296Z" fill="white"/>
<g style="mix-blend-mode:multiply">
<path d="M451.972 152.392L447.997 156.68L434.492 151.328L437.622 146.633L435.4 145.741L432.27 150.436C427.575 148.558 423.021 146.727 419.187 145.162L421.863 140.186L419.688 139.278L417.012 144.27C412.975 142.706 410.017 141.391 409.047 140.906C407.748 140.249 405.369 139.028 402.505 137.51L403.413 132.189L401.207 131.172L400.315 136.352C395.823 133.942 390.55 131.063 386.231 128.528L385.745 121.705C384.838 120.922 384.008 120.14 383.226 119.436L383.774 127.088C381.758 125.956 379.823 124.685 377.984 123.285C373.524 119.451 372.882 119.451 372.491 119.451V119.67C371.771 115.633 371.301 112.832 371.286 112.738L368.97 113.129C368.97 113.473 369.47 116.149 370.143 119.921L364.682 121.047V113.113L362.335 113.552V121.533L351.85 123.692V115.649L349.518 116.134V124.177L337.922 126.571L337.531 118.637L335.215 119.138L335.606 127.057L318.862 130.515L317.907 124.694L315.669 125.539L316.561 131L309.613 132.424L308.972 128.199L308.393 128.449C307.85 128.681 307.297 128.884 306.734 129.06L307.313 132.909L295.169 135.413L294.559 131.783L292.258 132.221L292.869 135.898L285.232 137.463L284.027 134.099C283.629 134.217 283.246 134.38 282.885 134.584C282.563 134.821 282.264 135.088 281.993 135.382L282.963 138.073L275.013 147.369L273.245 144.583L271.68 146.367L273.495 149.247L258.801 166.461L255.89 163.675L254.325 165.412L257.283 168.245L246.094 181.327L242.464 178.636L240.899 180.388L244.576 183.111L231.353 198.588L227.081 196.1L225.516 197.915L229.804 200.403L218.552 213.564C219.444 213.658 220.414 213.752 221.431 213.814L231.869 201.593L235.343 203.611L225.719 214.002C226.799 214.002 227.879 214.002 228.849 214.002L237.378 204.801L240.977 206.882L234.42 213.611L234.936 213.517C236.235 213.22 241.884 208.416 249.224 201.78L257.815 192.97L258.379 193.393L260.116 191.828L259.458 191.327L269.99 180.513L271.054 181.546L272.776 179.981L271.633 178.886L284.152 166.101L285.373 168.026L287.094 166.367L285.827 164.364L290.662 159.403L291.601 162.016L293.463 160.232L292.603 157.838L296.437 157.118L296.844 159.591C297.756 159.835 298.623 160.226 299.41 160.749L298.753 156.68L310.662 154.442L312.383 165.803L301.601 167.54C301.601 168.229 301.601 169.027 301.71 169.903L312.587 168.041L314.058 177.791L302.462 180.06L302.086 177.791C302.399 184.05 302.822 191.609 303.228 199.104L305.2 211.045L303.917 211.545C303.917 212.39 304.011 213.204 304.058 214.002L305.623 213.392L308.267 229.432H310.646L307.876 212.625C311.601 211.279 315.278 210.137 318.83 209.182L321.866 229.213H324.245L321.115 208.65C323.729 207.993 326.295 207.445 328.846 206.992L332.429 229.057H334.792L331.146 206.632C333.947 206.178 336.702 205.833 339.393 205.567L340.473 227.476L338.908 229.041H342.288L342.883 228.462L341.756 205.505C344.51 205.301 347.202 205.192 349.847 205.161L349.956 228.9H352.304L352.194 205.208C355.559 205.208 358.814 205.411 361.975 205.693L361.928 228.431H364.275L364.353 205.693C368.266 206.131 371.99 206.72 375.527 207.461V205.098C371.974 204.394 368.25 203.799 364.353 203.377V189.026C368.096 189.149 371.831 189.462 375.542 189.965V187.618C371.831 187.125 368.096 186.822 364.353 186.71V170.248L375.574 168.01V165.616L364.353 167.853V159.215L375.574 157.29V156.445C375.638 155.917 375.743 155.393 375.887 154.88L364.353 156.852V144.333L374.431 142.44C374.976 144.856 375.661 147.238 376.481 149.575L378.672 148.746C377.958 146.722 377.362 144.658 376.888 142.565L385.01 147.666L385.401 150.327C386.121 150.514 386.966 150.749 387.795 151.015L387.655 149.059L393.633 152.815C396.418 153.707 399.548 154.74 402.85 155.835L399.72 153.863L400.565 148.996C403.961 150.718 407.685 152.58 411.519 154.489L409.594 158.151L411.848 158.918L413.647 155.553C417.388 157.4 421.253 159.278 425.04 161.124L423.757 163.018L426.057 163.816L427.184 162.157C430.987 164.004 434.711 165.788 438.138 167.431L437.7 167.9L440.11 168.761L440.345 168.495L443.193 169.857L445.431 170.655L447.183 169.09L442.003 166.633L448.639 159.387L455.383 162.048L457.402 160.326L450.344 157.525L454.288 153.237L451.972 152.392ZM349.549 144.646L338.845 146.649L338.407 137.698L349.502 135.163L349.549 144.646ZM349.549 126.587V132.768L338.345 135.304L338.032 128.966L349.549 126.587ZM337.922 175.365L338.548 188.103C335.105 188.573 331.71 189.136 328.439 189.668L326.467 177.571L337.922 175.365ZM337.797 173.002L326.092 175.365L324.527 165.976L337.312 163.785L337.797 173.002ZM337.234 161.359L324.182 163.597L322.305 152.079L336.639 149.388L337.234 161.359ZM323.791 175.787L316.374 177.258L314.903 167.572L322.242 166.304L323.791 175.787ZM336.514 147.025L321.929 149.763L320.614 141.673L336.091 138.152L336.514 147.025ZM335.653 129.388L335.966 135.773L320.317 139.357L319.253 132.784L335.653 129.388ZM293.182 138.167L294.355 145.256L289.191 146.43L288.894 145.554L288.315 146.18L285.968 139.654L293.182 138.167ZM283.792 140.577L286.5 148.12L279.943 155.209L276.25 149.403L283.792 140.577ZM274.669 151.266L278.3 156.993L264.435 171.953L260.35 168.026L274.669 151.266ZM258.817 169.81L262.87 173.8L251.806 185.74L247.847 182.798L258.817 169.81ZM236.83 201.78L233.262 199.715L246.298 184.457L250.194 187.336L236.83 201.78ZM242.557 205.098L238.911 202.985L252.088 188.745L255.796 191.499L242.557 205.098ZM257.455 189.809L253.684 187.023L264.544 175.287L268.19 178.792L257.455 189.809ZM269.818 177.102L266.14 173.565L279.598 159.043L282.728 163.894L269.818 177.102ZM284.371 162.173L281.242 157.259L287.392 150.608L289.614 156.79L284.371 162.173ZM292.196 155.334L289.942 148.762L294.747 147.666L295.92 154.724L292.196 155.334ZM295.482 137.807L307.61 135.304L308.643 142.127L296.64 144.849L295.482 137.807ZM298.205 154.333L297.031 147.166L308.987 144.443L310.161 152.095L298.205 154.333ZM309.911 134.834L316.874 133.394L317.954 139.998L310.928 141.563L309.911 134.834ZM312.461 151.657L311.288 143.926L318.33 142.361L319.675 150.327L312.461 151.657ZM312.821 153.973L320.004 152.627L321.866 164.113L314.543 165.365L312.821 153.973ZM304.997 195.536L302.853 182.47L314.417 180.169L316.295 192.501C312.227 193.439 308.424 194.472 304.997 195.474V195.536ZM307.438 210.309L305.388 197.79C308.799 196.788 312.587 195.756 316.64 194.754L318.471 206.835C314.856 207.79 311.178 208.916 307.438 210.246V210.309ZM318.58 191.953L316.718 179.715L324.167 178.15L326.123 190.247C323.541 190.779 321.021 191.327 318.58 191.89V191.953ZM320.755 206.319L318.924 194.269C321.366 193.69 323.901 193.142 326.498 192.61L328.455 204.66C325.935 205.098 323.369 205.614 320.755 206.256V206.319ZM330.771 204.269L328.814 192.172C331.944 191.562 335.309 191.014 338.658 190.607L339.284 203.236C336.498 203.434 333.66 203.757 330.771 204.206V204.269ZM338.971 149.075L349.565 147.087V159.356L339.518 161.077L338.971 149.075ZM339.675 163.44L349.628 161.735V170.764L340.082 172.658L339.675 163.44ZM340.238 175.036L349.628 173.158V187.039C346.639 187.258 343.681 187.54 340.755 187.915L340.238 175.036ZM341.615 202.985L340.989 190.231C343.89 189.866 346.811 189.574 349.753 189.355V202.641C347.139 202.61 344.417 202.719 341.584 202.923L341.615 202.985ZM361.959 203.126C358.829 202.845 355.527 202.672 352.163 202.641V189.199C355.465 189.011 358.782 188.917 362.084 188.964L361.959 203.126ZM361.959 186.648C358.657 186.648 355.339 186.648 352.038 186.883L351.959 172.689L362.084 170.67L361.959 186.648ZM362.037 168.292L351.959 170.295V161.343L362.115 159.591L362.037 168.292ZM362.037 157.212L351.85 158.965V146.649L362.131 144.724L362.037 157.212ZM362.037 142.33L351.74 144.27V134.693L362.131 132.33L362.037 142.33ZM362.037 129.92L351.631 132.283V126.165L362.1 124.005L362.037 129.92ZM364.416 123.52L370.316 122.299C370.628 124.021 370.973 125.883 371.333 127.808L364.4 129.373L364.416 123.52ZM364.338 141.892V131.798L371.74 130.108C372.397 133.488 373.117 136.962 373.837 140.108L364.338 141.892ZM373.727 127.26H373.602C373.273 125.554 372.96 123.88 372.679 122.331C373.32 122.769 374.384 123.598 376.184 125.132C378.573 126.924 381.083 128.551 383.695 129.999L384.212 137.056C379.408 132.643 374.901 127.667 374.822 127.667L373.946 128.449L373.727 127.26ZM376.982 139.779L376.403 140.671C375.667 137.541 374.916 133.88 374.212 130.312C376.043 132.299 379.971 136.415 383.852 139.873L384.447 140.327L384.744 144.662L376.982 139.779ZM397.326 152.564L387.216 146.211L386.903 141.892C389.501 143.457 393.429 145.507 398.124 147.917L397.326 152.564ZM398.531 145.507C393.085 142.69 388.86 140.405 386.7 139.028L386.152 131.36C390.534 133.864 395.542 136.571 399.689 138.778L398.531 145.507ZM412.411 152.471C408.202 150.405 404.258 148.417 400.721 146.618L401.864 139.936C404.571 141.36 406.731 142.471 407.779 143.065C408.828 143.66 411.691 144.787 415.682 146.414L412.411 152.471ZM426.135 159.184C422.192 157.275 418.311 155.366 414.508 153.503L417.857 147.244L430.705 152.424L426.135 159.184ZM439.578 165.647L428.264 160.217L432.958 153.316L446.119 158.542L439.578 165.647Z" fill="#92E3A9"/>
</g>
<path d="M329.769 120.296C329.769 120.296 313.776 126.086 308.33 128.465C302.884 130.844 285.545 132.894 282.822 134.599C280.099 136.305 212.402 211.154 213.748 212.516C215.093 213.877 230.414 214.55 234.842 213.533C239.271 212.516 294.387 159.09 294.387 159.09C294.387 159.09 301.538 159.434 301.538 164.88C301.538 170.326 304.934 229.526 304.934 229.526L375.354 228.165L375.699 156.367C375.699 156.367 376.372 149.231 381.818 149.56C387.263 149.888 445.462 170.67 445.462 170.67L462.081 156.367C462.081 156.367 403.21 133.567 391.974 126.431C380.738 119.295 377.686 111.799 373.195 111.799C368.704 111.799 329.769 120.296 329.769 120.296Z" stroke="#263238" stroke-miterlimit="10"/>
<path d="M341.099 186.319C342.1 195.333 342.367 212.922 342.367 212.922" stroke="#263238" stroke-miterlimit="10"/>
<path d="M340.379 181.625C338.814 171.155 335.903 134.333 335.903 134.333" stroke="#263238" stroke-miterlimit="10"/>
<path d="M379.627 149.544L397.169 144.364" stroke="#263238" stroke-linecap="round" stroke-linejoin="round"/>
<path d="M399.548 143.566L405.134 142.377" stroke="#263238" stroke-linecap="round" stroke-linejoin="round"/>
<path d="M384.008 148.355H406.731" stroke="#263238" stroke-linecap="round" stroke-linejoin="round"/>
<path d="M274.059 152.345L294.387 159.09L283.229 159.106" stroke="#263238" stroke-linecap="round" stroke-linejoin="round"/>
<path d="M279.645 159.513H274.466" stroke="#263238" stroke-linecap="round" stroke-linejoin="round"/>
<path d="M342.179 141.375C342.179 142.377 341.647 143.175 340.989 143.175C340.332 143.175 339.8 142.377 339.8 141.375C339.8 140.374 340.332 139.591 340.989 139.591C341.647 139.591 342.179 140.39 342.179 141.375Z" stroke="#263238" stroke-linecap="round" stroke-linejoin="round"/>
<path d="M344.182 160.702C344.182 161.688 343.634 162.502 342.977 162.502C342.32 162.502 341.787 161.688 341.787 160.702C341.787 159.716 342.32 158.918 342.977 158.918C343.634 158.918 344.182 159.716 344.182 160.702Z" stroke="#263238" stroke-linecap="round" stroke-linejoin="round"/>
<path d="M345.371 184.41C346.028 184.41 346.56 183.604 346.56 182.61C346.56 181.617 346.028 180.811 345.371 180.811C344.714 180.811 344.182 181.617 344.182 182.61C344.182 183.604 344.714 184.41 345.371 184.41Z" stroke="#263238" stroke-linecap="round" stroke-linejoin="round"/>
<path d="M346.967 203.33C346.967 204.316 346.435 205.129 345.778 205.129C345.121 205.129 344.573 204.316 344.573 203.33C344.573 202.344 345.105 201.546 345.778 201.546C346.451 201.546 346.967 202.344 346.967 203.33Z" stroke="#263238" stroke-linecap="round" stroke-linejoin="round"/>
<path d="M322.32 117.088L320.474 118.309C318.701 119.503 317.25 121.115 316.248 123.004L312.101 130.75L323.056 140.233L331.772 127.714L348.063 138.308L354.103 124.662L350.269 119.138C349.558 118.119 348.626 117.275 347.541 116.668C346.457 116.061 345.25 115.707 344.01 115.633C337.328 115.148 324.01 114.553 322.32 117.088Z" fill="white" stroke="#263238" stroke-miterlimit="10"/>
<path d="M320.583 106.697C320.583 106.697 321.272 124.725 323.306 125.476C325.34 126.227 331.131 130.578 334.542 130.578C337.953 130.578 342.711 123.77 343.039 122.753C343.368 121.736 341.678 104.366 341.678 104.366L321.945 106.416L320.583 106.697Z" fill="white"/>
<g style="mix-blend-mode:multiply" opacity="0.5">
<path d="M341.678 104.303L321.945 106.353L320.583 106.697C320.583 106.697 320.802 112.534 321.381 117.652C325.404 118.439 329.512 118.707 333.603 118.45C336.736 118.324 339.833 117.728 342.789 116.681C342.366 111.361 341.678 104.303 341.678 104.303Z" fill="#92E3A9"/>
</g>
<path d="M320.583 106.697C320.583 106.697 321.272 124.725 323.306 125.476C325.34 126.227 331.131 130.578 334.542 130.578C337.953 130.578 342.711 123.77 343.039 122.753C343.368 121.736 341.678 104.366 341.678 104.366L321.945 106.416L320.583 106.697Z" stroke="#263238" stroke-miterlimit="10"/>
<path d="M305.591 77.4337C305.591 77.4337 301.851 69.6092 296.405 72.739C290.96 75.8688 298.8 86.0094 303.557 88.388C308.314 90.7666 310.364 90.4224 310.364 90.4224L305.591 77.4337Z" fill="white" stroke="#263238" stroke-miterlimit="10"/>
<path d="M351.193 75.3524C351.193 75.3524 352.679 66.8081 358.751 68.2791C364.823 69.7501 360.034 81.7059 356.091 85.2895C352.147 88.8731 350.097 89.0922 350.097 89.0922L351.193 75.3524Z" fill="white" stroke="#263238" stroke-miterlimit="10"/>
<path d="M303.917 75.728C303.917 75.728 304.042 76.1349 304.293 76.8547C305.748 81.2051 311.053 96.9636 313.103 101.893C315.482 107.683 324.668 114.146 336.921 112.112C349.174 110.077 352.57 95.7743 352.57 90.3285C352.57 84.8827 349.847 42.693 349.847 42.693C349.847 42.693 335.215 27.717 323.243 22.9597C311.272 18.2024 305.544 23.6326 301.131 31.8014C296.718 39.9701 294.324 44.7274 295.686 50.1732C297.047 55.6191 303.917 75.728 303.917 75.728Z" fill="white"/>
<g style="mix-blend-mode:multiply" opacity="0.5">
<path d="M308.721 53.4126C313.306 48.3267 313.306 38.1548 313.306 38.1548C320.675 43.1678 328.722 47.104 337.202 49.8446C341.514 51.0781 345.972 51.7256 350.457 51.7694C350.113 46.4331 349.878 42.7243 349.878 42.7243C349.878 42.7243 335.246 27.7483 323.275 22.991C311.303 18.2337 305.576 23.6639 301.163 31.8326C296.75 40.0014 294.355 44.7587 295.717 50.2045C296.327 52.6771 298.064 58.1542 299.786 63.4123C300.693 62.4107 304.652 57.9038 308.721 53.4126Z" fill="#92E3A9"/>
</g>
<g style="mix-blend-mode:multiply" opacity="0.5">
<path d="M346.826 98.685C341.741 106.822 335.637 109.874 325.481 106.822C316.311 104.068 309.629 91.4239 308.393 88.9357C310.177 94.1155 312.054 99.4205 313.087 101.94C315.466 107.73 324.652 114.193 336.905 112.159C349.158 110.124 352.554 95.8213 352.554 90.3754C352.554 88.5601 352.257 82.5509 351.85 75.5245" fill="#92E3A9"/>
</g>
<path d="M303.917 75.728C303.917 75.728 304.042 76.1349 304.293 76.8547C305.748 81.2051 311.053 96.9636 313.103 101.893C315.482 107.683 324.668 114.146 336.921 112.112C349.174 110.077 352.57 95.7743 352.57 90.3285C352.57 84.8827 349.847 42.693 349.847 42.693C349.847 42.693 335.215 27.717 323.243 22.9597C311.272 18.2024 305.544 23.6326 301.131 31.8014C296.718 39.9701 294.324 44.7274 295.686 50.1732C297.047 55.6191 303.917 75.728 303.917 75.728Z" stroke="#263238" stroke-miterlimit="10"/>
<path d="M315.466 57.6847C315.638 59.0775 315.09 60.2981 314.245 60.392C313.4 60.4859 312.587 59.4374 312.43 58.0447C312.274 56.6519 312.806 55.4313 313.651 55.3217C314.496 55.2122 315.309 56.292 315.466 57.6847Z" fill="#263238"/>
<path d="M339.284 54.9618C339.456 56.3702 338.908 57.5752 338.063 57.6691C337.218 57.763 336.42 56.7145 336.248 55.3217C336.076 53.929 336.639 52.7084 337.468 52.6145C338.298 52.5206 339.127 53.569 339.284 54.9618Z" fill="#263238"/>
<path d="M307.313 48.1702C307.313 48.1702 311.397 42.38 317.516 44.4301" stroke="#263238" stroke-width="2" stroke-linecap="round" stroke-linejoin="round"/>
<path d="M329.096 75.728L332.492 72.3322L330.113 58.3733" stroke="#263238" stroke-linecap="round" stroke-linejoin="round"/>
<path d="M317.516 80.4853C318.24 82.2557 319.462 83.7779 321.034 84.8669C322.607 85.9559 324.461 86.5648 326.373 86.6197" stroke="#263238" stroke-linecap="round" stroke-linejoin="round"/>
<path d="M309.363 28.7655C309.363 28.7655 313.447 36.5899 310.724 41.0186C308.001 45.4473 303.228 46.4644 301.194 48.8431C299.16 51.2217 299.833 62.802 301.194 65.8535C302.355 69.0699 303.265 72.3712 303.917 75.728C303.917 75.728 295.404 60.7519 292.963 56.3389C290.521 51.9259 284.45 36.5899 289.833 28.1708C295.216 19.7517 301.069 26.1208 303.103 21.3635C305.138 16.6062 305.826 7.076 322.837 2.30307C339.847 -2.46987 348.36 6.99775 350.739 12.5218C353.117 18.0459 361.693 22.3807 368.093 20.6749C374.494 18.9692 370.143 16.9348 370.143 16.9348C370.143 16.9348 377.624 16.9348 375.918 27.4822C374.212 38.0296 365.042 44.8369 352.1 45.1812C339.158 45.5255 318.549 42.0358 309.363 28.7655Z" fill="#263238" stroke="#263238" stroke-miterlimit="10"/>
<path d="M307.907 22.7093C307.907 22.7093 323.275 9.14166 332.195 9.48594C341.115 9.83021 345.762 25.1349 356.482 24.8376" stroke="white" stroke-width="0.5" stroke-miterlimit="10"/>
<path d="M304.699 24.8532L310.411 29.8609C310.411 29.8609 318.987 21.2853 330.066 25.1662C341.146 29.0472 351.146 41.5976 361.505 40.5335C371.865 39.4694 375.433 28.7342 374.024 22.6624" stroke="white" stroke-width="0.5" stroke-miterlimit="10"/>
<path d="M305.404 27.357C305.404 27.357 298.972 25.573 296.124 30.925C293.276 36.2769 296.828 43.7884 296.828 43.7884" stroke="white" stroke-width="0.5" stroke-miterlimit="10"/>
<path d="M310.411 29.8296C310.411 29.8296 306.483 30.1895 306.483 35.5415C306.483 40.8934 305.404 44.477 301.476 46.261C297.548 48.045 296.124 49.4847 297.548 51.6286" stroke="white" stroke-width="0.5" stroke-miterlimit="10"/>
<path d="M360.363 51.3C359.095 47.8416 353.931 46.6053 349.033 45.9637C344.135 45.3221 331.96 48.937 329.847 49.5629C328.406 48.9321 326.831 48.665 325.262 48.7851C323.693 48.9052 322.178 49.4087 320.849 50.2515C317.97 50.2515 305.873 50.1263 301.664 51.9729C297.141 53.976 292.478 56.4954 292.196 60.1729C291.992 62.9428 294.543 64.4764 296.656 65.118C297.642 69.5936 301.257 76.4948 309.504 76.0723C319.926 75.5715 324.386 69.6093 324.135 64.2573C323.979 60.971 323.275 54.9931 322.977 52.6145C323.851 52.1344 324.826 51.8697 325.822 51.8424C326.818 51.8152 327.807 52.0263 328.705 52.458C329.065 54.8992 329.988 60.7207 330.708 63.8817C331.913 69.0928 337.828 73.631 347.922 71.2994C355.95 69.4371 357.577 61.8317 357.311 57.2153C359.33 56.0729 361.38 53.9134 360.363 51.3ZM309.347 72.9738C301.069 73.365 299.629 64.0069 299.567 63.5844C299.519 63.2602 299.372 62.9589 299.144 62.7231C298.917 62.4873 298.621 62.3288 298.299 62.2699C297.517 62.1291 295.247 61.3779 295.326 60.3764C295.435 58.8115 298.002 56.9805 302.931 54.8053C305.984 53.9315 309.145 53.489 312.32 53.4908C315.106 53.35 317.892 53.3187 319.879 53.3343C320.192 55.8851 320.834 61.4092 320.974 64.4138C321.24 67.1993 318.94 72.52 309.41 72.9738H309.347ZM355.058 54.9931C354.772 55.135 354.536 55.361 354.382 55.6407C354.228 55.9205 354.164 56.2405 354.197 56.558C354.197 56.9649 355.386 66.3543 347.312 68.2165C338.016 70.3448 334.401 65.8379 333.775 63.1462C333.149 60.4546 332.21 54.7271 331.85 52.192C333.744 51.6443 336.436 50.9244 339.158 50.2984C342.212 49.4315 345.373 48.9995 348.548 49.0152C353.884 49.782 356.842 50.8931 357.374 52.3172C357.828 53.303 355.856 54.6332 355.12 54.9931H355.058Z" fill="#263238"/>
<path d="M252.745 401.164L268.738 429.801L272.181 407.893C272.181 407.893 258.989 400.507 252.745 401.164Z" fill="#92E3A9" stroke="#263238" stroke-miterlimit="10"/>
<path d="M348.83 413.949C348.83 413.949 341.349 418.033 338.955 421.774C336.561 425.514 332.836 426.875 336.232 431.632C340.336 437.717 343.217 444.541 344.714 451.726C346.075 458.877 351.521 464.652 357.311 469.08C363.101 473.509 372.272 474.526 373.289 469.425C374.306 464.323 361.724 443.557 360.77 439.817C359.873 436.494 359.639 433.027 360.081 429.614C360.363 425.858 354.62 411.915 348.83 413.949Z" fill="#263238" stroke="#263238" stroke-miterlimit="10"/>
<path d="M373.304 469.566C372.006 470.238 370.584 470.637 369.125 470.74C367.666 470.842 366.202 470.645 364.823 470.16C355.293 467.437 350.864 456.217 346.044 443.964C343.46 437.485 339.972 431.405 335.684 425.905C334.605 427.47 334.276 429.035 336.169 431.711C340.286 437.766 343.188 444.564 344.714 451.726C346.075 458.877 351.521 464.652 357.311 469.08C363.101 473.509 372.193 474.511 373.304 469.566Z" fill="white" stroke="#263238" stroke-miterlimit="10"/>
<path d="M356.31 407.486C356.31 407.486 345.089 414.638 344.745 418.034C344.401 421.429 347.468 431.992 348.83 433.682C350.191 435.373 354.275 427.892 355.637 429.927L359.033 435.044L360.394 425.842L356.31 407.486Z" fill="white" stroke="#263238" stroke-miterlimit="10"/>
<path d="M268.394 405.921L264.654 456.952L286.421 486.905L288.127 418.174L268.394 405.921Z" fill="white"/>
<g style="mix-blend-mode:multiply" opacity="0.5">
<path d="M266.86 426.844L271.226 427.11C277.096 427.656 282.758 429.557 287.767 432.665L288.127 418.174L268.394 405.921L266.86 426.844Z" fill="#92E3A9"/>
</g>
<path d="M268.394 405.921L264.654 456.952L286.421 486.905L288.127 418.174L268.394 405.921Z" stroke="#263238" stroke-miterlimit="10"/>
<path d="M287.329 450.396C281.621 444.524 274.034 440.841 265.89 439.989L264.654 457.046L286.421 486.983L287.329 450.396Z" fill="white" stroke="#263238" stroke-miterlimit="10"/>
<path d="M286.813 500.519C286.813 500.519 288.518 490.3 286.813 483.164C285.107 476.029 273.542 456.561 262.306 444.715C251.07 432.869 235.437 409.317 225.563 399.802C215.688 390.288 203.451 392.651 203.451 408.644C203.451 424.637 213.309 452.195 227.941 466.827C242.573 481.459 263.339 497.734 268.722 500.519C274.106 503.305 280.303 505.558 286.813 500.519Z" fill="#263238" stroke="#263238" stroke-miterlimit="10"/>
<path d="M287.517 491.474C282.866 485.14 277.363 479.479 271.164 474.651C258.566 464.448 249.036 441.648 243.262 427.36C239.678 418.519 231.431 407.22 225.641 399.881V399.802C215.766 390.272 203.529 392.651 203.529 408.644C203.529 424.637 213.388 452.195 228.02 466.827C242.651 481.459 263.339 497.734 268.722 500.519C274.106 503.305 280.303 505.621 286.766 500.519C287.219 497.524 287.47 494.503 287.517 491.474Z" fill="white" stroke="#263238" stroke-miterlimit="10"/>
<path d="M287 498.813C282.587 492.037 274.231 483.743 264.309 474.651C248.316 460.02 235.046 415.451 223.137 401.837C215.876 393.543 208.756 397.627 204.358 402.087C203.74 404.217 203.439 406.426 203.466 408.644C203.466 424.637 213.325 452.195 227.957 466.827C242.589 481.459 263.339 497.734 268.722 500.519C274.106 503.305 280.303 505.621 286.766 500.519C286.813 500.519 286.813 499.878 287 498.813Z" fill="white" stroke="#263238" stroke-miterlimit="10"/>
<path d="M298.127 266.958L302.211 223.752C302.211 223.752 332.492 215.239 347.468 216.944C358.212 218.405 368.809 220.792 379.142 224.08C379.142 224.08 384.932 280.573 391.661 308.131C398.39 335.689 401.52 376.532 401.864 391.837C402.208 407.142 391.989 412.588 389.266 415.999C386.544 419.411 369.204 440.161 369.204 440.161C369.204 440.161 358.25 433.354 354.901 422.462C351.552 411.57 353.54 407.157 353.54 407.157L379.142 387.753C379.142 387.753 368.594 325.485 360.363 311.527C352.131 297.568 346.075 292.138 337.234 289.759C328.392 287.38 328.048 288.397 316.812 295.878C309.724 300.677 303.116 306.148 297.078 312.215L288.8 427.313C288.8 427.313 276.281 415.404 268.05 409.959C263.144 406.685 258.031 403.732 252.745 401.117C252.745 401.117 266.485 297.834 273.292 292.091C280.099 286.347 298.127 266.958 298.127 266.958Z" fill="#92E3A9"/>
<g style="mix-blend-mode:multiply" opacity="0.2">
<path d="M401.879 393.418C397.999 393.418 391.927 393.715 388.046 384.67C381.974 370.508 376.591 329.382 367.139 309.148C357.687 288.914 338.814 271.371 328.705 271.371C318.596 271.371 341.521 286.207 341.521 286.207C341.521 286.207 332.742 282.169 330.724 282.169C328.705 282.169 303.745 295.659 295.654 300.369C287.564 305.079 288.91 309.148 286.265 321.276C283.965 331.604 282.65 400.851 282.306 421.429C286.077 424.763 288.847 427.392 288.847 427.392L297.157 312.246C303.177 306.166 309.77 300.679 316.843 295.862C328.079 288.382 328.408 287.365 337.265 289.743C346.122 292.122 352.225 297.568 360.394 311.511C368.563 325.454 379.173 387.737 379.173 387.737L353.649 407.142C353.649 407.142 351.615 411.555 355.011 422.447C358.407 433.338 369.314 440.145 369.314 440.145C369.314 440.145 386.653 419.379 389.376 415.983C392.099 412.588 401.504 407.502 401.879 393.418Z" fill="#263238"/>
</g>
<path d="M298.127 266.958L302.211 223.752C302.211 223.752 332.492 215.239 347.468 216.944C358.212 218.405 368.809 220.792 379.142 224.08C379.142 224.08 384.932 280.573 391.661 308.131C398.39 335.689 401.52 376.532 401.864 391.837C402.208 407.142 391.989 412.588 389.266 415.999C386.544 419.411 369.204 440.161 369.204 440.161C369.204 440.161 358.25 433.354 354.901 422.462C351.552 411.57 353.54 407.157 353.54 407.157L379.142 387.753C379.142 387.753 368.594 325.485 360.363 311.527C352.131 297.568 346.075 292.138 337.234 289.759C328.392 287.38 328.048 288.397 316.812 295.878C309.724 300.677 303.116 306.148 297.078 312.215L288.8 427.313C288.8 427.313 276.281 415.404 268.05 409.959C263.144 406.685 258.031 403.732 252.745 401.117C252.745 401.117 266.485 297.834 273.292 292.091C280.099 286.347 298.127 266.958 298.127 266.958Z" stroke="#263238" stroke-miterlimit="10"/>
<path d="M379.142 387.753C379.142 387.753 381.27 401.837 382.271 403.965" stroke="#263238" stroke-miterlimit="10"/>
<path d="M341.787 220.465L339.002 263.484C341.118 262.99 343.05 261.904 344.573 260.354C346.56 257.96 348.563 239.228 348.563 239.228" stroke="#263238" stroke-linecap="round" stroke-linejoin="round"/>
<path d="M317.876 223.642L329.034 222.061L329.832 219.26" stroke="#263238" stroke-linecap="round" stroke-linejoin="round"/>
<path d="M352.945 219.667L352.147 222.061L346.169 221.655" stroke="#263238" stroke-linecap="round" stroke-linejoin="round"/>
<path d="M356.92 219.667L356.529 222.86L365.683 224.847" stroke="#263238" stroke-linecap="round" stroke-linejoin="round"/>
<path d="M303.15 264.689C303.15 264.689 311.914 263.891 321.068 275.033" stroke="#263238" stroke-linecap="round" stroke-linejoin="round"/>
<path d="M317.485 268.273C317.485 268.273 319.472 268.273 324.652 276.238" stroke="#263238" stroke-linecap="round" stroke-linejoin="round"/>
<path d="M297.454 176.789C297.454 176.789 302.884 172.094 304.934 169.982C306.984 167.869 307.657 162.83 310.036 165.897C312.414 168.965 312.414 172.705 310.724 173.722C309.034 174.739 304.934 176.852 303.917 178.15C302.9 179.449 294.731 180.185 297.454 176.789Z" fill="white" stroke="#263238" stroke-miterlimit="10"/>
<path d="M378.124 153.691C378.124 153.691 371.505 150.765 368.938 149.419C366.372 148.073 364.244 143.41 362.851 147.056C361.458 150.702 362.616 154.255 364.541 154.724C366.466 155.193 370.973 155.913 372.366 156.915C373.758 157.916 381.739 156.132 378.124 153.691Z" fill="white" stroke="#263238" stroke-miterlimit="10"/>
<path d="M301.194 130.515L302.556 179.168L308.674 224.424L314.464 223.407L307.313 177.806L306.969 129.154L301.194 130.515Z" fill="#263238" stroke="#263238" stroke-miterlimit="10"/>
<path d="M359.033 114.177C359.033 114.177 369.58 151.61 370.613 156.038C371.646 160.467 374.353 184.958 375.026 187.336C375.699 189.715 370.613 225.442 370.613 225.442L376.387 226.803L380.472 183.596L375.777 156.367L365.23 113.505L359.033 114.177Z" fill="#263238" stroke="#263238" stroke-miterlimit="10"/>
<path d="M313.166 215.192L310.63 212.954L307.939 217.101L308.674 224.424L314.464 223.407L313.166 215.192Z" fill="white" stroke="#263238" stroke-miterlimit="10"/>
<path d="M377.123 219.182L375.667 215.035L371.677 217.789C371.067 222.312 370.613 225.504 370.613 225.504L376.387 226.866L377.123 219.182Z" fill="white" stroke="#263238" stroke-miterlimit="10"/>
<path d="M334.871 132.221C334.871 132.221 315.826 121.267 315.137 124.741C314.449 128.215 315.482 145.835 317.516 145.084C319.55 144.333 335.215 135.585 335.215 135.585C335.215 135.585 355.293 146.79 355.637 141.344C355.981 135.898 354.948 121.611 350.191 121.267C345.434 120.922 334.871 132.221 334.871 132.221Z" fill="#263238" stroke="#263238" stroke-miterlimit="10"/>
<path d="M338.047 133.41L347.984 128.888" stroke="white" stroke-width="0.5" stroke-linecap="round" stroke-linejoin="round"/>
<path d="M338.047 133.41L347.077 135.523" stroke="white" stroke-width="0.5" stroke-linecap="round" stroke-linejoin="round"/>
<path d="M324.793 131.297L332.633 134.005L325.106 136.415" stroke="white" stroke-width="0.5" stroke-linecap="round" stroke-linejoin="round"/>
<path d="M337.453 131C337.453 131 338.047 134.912 337.453 135.82C336.858 136.728 334.432 136.415 333.525 135.21" stroke="white" stroke-width="0.5" stroke-linecap="round" stroke-linejoin="round"/>
<path d="M410.674 173.456C410.674 173.456 405.338 171.202 409.109 167.509C412.881 163.816 452.613 154.99 460.141 155.131C467.668 155.272 471.877 160.733 473.473 167.008C475.07 173.284 471.408 179.778 463.489 182.97C455.571 186.163 421.691 190.67 416.433 189.825C411.175 188.98 410.674 173.456 410.674 173.456Z" fill="white"/>
<g style="mix-blend-mode:multiply">
<path d="M473.599 167.306L471.032 167.853C470.563 165.084 470.046 162.298 469.467 159.544H469.765C468.813 158.44 467.674 157.513 466.4 156.805C466.478 157.165 466.588 157.541 466.666 157.916L454.757 160.937C454.225 159.231 453.599 157.603 452.942 156.007L450.579 156.398C451.268 157.963 451.909 159.732 452.488 161.516L436.589 165.569C435.766 163.609 434.814 161.707 433.741 159.872L431.3 160.452C432.422 162.279 433.405 164.188 434.242 166.163L421.722 169.293C420.679 167.395 419.447 165.607 418.045 163.957C417.215 164.207 416.48 164.442 415.697 164.692C417.143 166.272 418.413 168.003 419.485 169.857L417.466 170.357C415.015 170.935 412.705 171.999 410.674 173.487C410.674 173.737 410.674 174.849 410.893 176.382C412.917 174.526 415.377 173.212 418.045 172.564L420.596 171.922C421.495 173.836 422.187 175.84 422.661 177.9L411.425 180.247C411.551 181.019 411.707 181.786 411.895 182.548L423.099 180.216C423.399 182.231 423.52 184.268 423.459 186.304L413.929 187.868C414.198 188.355 414.565 188.78 415.007 189.116C415.449 189.453 415.956 189.694 416.496 189.825L423.303 188.729C423.303 189.058 423.225 189.371 423.193 189.699L425.556 189.496C425.556 189.12 425.635 188.729 425.666 188.354L438.373 186.319V187.994L440.814 187.649C440.814 187.07 440.814 186.491 440.814 185.912L455.07 183.628C455.07 184.16 454.976 184.692 454.929 185.193L457.386 184.754C457.386 184.269 457.48 183.784 457.512 183.299L465.806 181.953C467.336 181.145 468.743 180.123 469.984 178.917L457.605 180.905C457.666 178.319 457.567 175.732 457.308 173.158L469.139 170.686C469.561 173.378 469.906 176.054 470.203 178.667C470.985 177.87 471.668 176.982 472.237 176.022C472.002 174.097 471.736 172.173 471.439 170.216L473.927 169.7C473.906 168.892 473.796 168.089 473.599 167.306ZM422.802 171.39L435.055 168.26C435.846 170.435 436.484 172.663 436.964 174.927L424.883 177.446C424.397 175.362 423.699 173.333 422.802 171.39ZM425.791 185.959C425.826 183.863 425.674 181.769 425.337 179.7L437.418 177.18C437.814 179.397 438.096 181.632 438.263 183.878L425.791 185.959ZM437.403 167.697L453.052 163.691C453.737 166.174 454.26 168.698 454.617 171.249L439.296 174.379C438.807 172.114 438.175 169.882 437.403 167.697ZM440.689 183.565C440.517 181.283 440.229 179.011 439.828 176.758L454.976 173.628C455.214 176.166 455.292 178.717 455.211 181.265L440.689 183.565ZM456.979 170.78C456.622 168.193 456.1 165.632 455.415 163.112L467.198 160.123C467.793 162.846 468.315 165.579 468.763 168.323L456.979 170.78Z" fill="#92E3A9"/>
</g>
<path d="M410.674 173.456C410.674 173.456 405.338 171.202 409.109 167.509C412.881 163.816 452.613 154.99 460.141 155.131C467.668 155.272 471.877 160.733 473.473 167.008C475.07 173.284 471.408 179.778 463.489 182.97C455.571 186.163 421.691 190.67 416.433 189.825C411.175 188.98 410.674 173.456 410.674 173.456Z" stroke="#263238" stroke-miterlimit="10"/>
<path d="M401.05 173.284L404.868 187.775L415.134 186.319C416.05 183.716 416.1 180.886 415.276 178.253C414.453 175.619 412.8 173.321 410.565 171.703L401.05 173.284Z" fill="white" stroke="#263238" stroke-miterlimit="10"/>
<path d="M401.05 173.284C401.05 173.284 384.008 152.94 381.739 153.644C379.47 154.348 366.2 155.209 364.525 156.868C362.851 158.527 366.231 163.472 366.231 163.472C365.59 165.456 365.155 167.501 364.932 169.575C364.932 171.734 368.062 173.941 368.062 173.941C367.95 175.815 368.061 177.695 368.391 179.543C368.891 181.108 369.752 181.625 370.049 182.673C370.347 183.722 369.846 187.728 372.632 188.635C375.083 189.621 377.761 189.898 380.362 189.433L383.93 188.322C383.93 188.322 391.974 190.075 395.323 189.386C398.671 188.698 404.821 187.822 404.821 187.822L401.05 173.284Z" fill="white"/>
<g style="mix-blend-mode:multiply" opacity="0.5">
<path d="M395.307 189.308C397.107 188.948 399.689 188.526 401.707 188.228C398.718 188.557 394.258 188.776 391.551 187.571C387.185 185.631 381.864 182.736 376.528 184.66C374.614 185.349 372.747 186.165 370.942 187.102C371.111 187.443 371.346 187.747 371.633 187.997C371.92 188.247 372.254 188.437 372.616 188.557C375.067 189.543 377.746 189.819 380.347 189.355L383.914 188.244C383.914 188.244 391.958 189.997 395.307 189.308Z" fill="#92E3A9"/>
</g>
<path d="M401.05 173.284C401.05 173.284 384.008 152.94 381.739 153.644C379.47 154.348 366.2 155.209 364.525 156.868C362.851 158.527 366.231 163.472 366.231 163.472C365.59 165.456 365.155 167.501 364.932 169.575C364.932 171.734 368.062 173.941 368.062 173.941C367.95 175.815 368.061 177.695 368.391 179.543C368.891 181.108 369.752 181.625 370.049 182.673C370.347 183.722 369.846 187.728 372.632 188.635C375.083 189.621 377.761 189.898 380.362 189.433L383.93 188.322C383.93 188.322 391.974 190.075 395.323 189.386C398.671 188.698 404.821 187.822 404.821 187.822L401.05 173.284Z" stroke="#263238" stroke-miterlimit="10"/>
<path d="M366.2 163.472L381.614 162.58" stroke="#263238" stroke-miterlimit="10"/>
<path d="M368.046 173.941L383.351 172.736" stroke="#263238" stroke-miterlimit="10"/>
<path d="M370.034 182.595L382.991 180.686" stroke="#263238" stroke-miterlimit="10"/>
<path d="M272.275 205.364C272.275 205.364 276.688 201.624 271.931 199.245C267.173 196.867 226.674 200.262 219.522 202.641C212.371 205.02 209.992 211.498 210.336 217.961C210.68 224.424 216.126 229.526 224.624 230.215C233.121 230.903 266.876 225.113 271.571 222.719C276.265 220.324 272.275 205.364 272.275 205.364Z" fill="white"/>
<g style="mix-blend-mode:multiply">
<path d="M272.729 221.733C273.247 220.967 273.589 220.096 273.73 219.182L261.211 221.279C261.211 219.511 261.211 217.742 261.43 216.005L273.949 214.206C273.949 213.423 273.793 212.641 273.699 211.874L261.712 213.595C261.972 211.569 262.406 209.569 263.011 207.617L272.744 206.757C272.556 205.896 272.416 205.364 272.416 205.364C272.763 205.059 273.078 204.718 273.355 204.347L263.965 205.176C264.987 202.644 266.596 200.391 268.66 198.604C267.721 198.604 266.61 198.478 265.405 198.463C263.597 200.494 262.195 202.853 261.274 205.411L248.582 206.522C249.468 203.864 250.583 201.288 251.915 198.823L249.193 198.995C247.927 201.509 246.88 204.126 246.063 206.819L232.26 208.04C232.685 205.445 233.307 202.887 234.123 200.388L231.572 200.685C230.824 203.161 230.254 205.686 229.866 208.243L219.475 209.167C220.269 206.659 221.335 204.245 222.652 201.968C221.642 202.141 220.644 202.376 219.663 202.672C218.562 204.807 217.661 207.038 216.971 209.339L211.698 209.793C211.366 210.58 211.094 211.39 210.884 212.218L216.33 211.733C215.711 214.515 215.505 217.373 215.719 220.215L210.931 220.919C211.176 221.692 211.501 222.436 211.901 223.141L216.001 222.547C216.352 224.564 216.924 226.538 217.707 228.431C219.393 229.213 221.186 229.74 223.027 229.996L229.85 228.869C229.85 229.276 229.976 229.683 230.038 230.089L232.37 229.902L232.041 228.571L245.108 226.396C245.265 227.022 245.468 227.664 245.656 228.29L248.003 227.93C247.8 227.288 247.596 226.647 247.44 226.005L258.691 224.127C258.691 224.769 258.691 225.395 258.785 226.021C259.599 225.864 260.35 225.708 261.164 225.536C261.164 224.941 261.164 224.346 261.164 223.736L272.729 221.733ZM218.708 211.498L229.459 210.559C229.169 213.121 229.033 215.697 229.052 218.274L218.02 219.839C217.787 217.043 217.999 214.228 218.646 211.498H218.708ZM220.148 228.118C219.294 226.223 218.674 224.231 218.302 222.187L229.115 220.622C229.115 222.64 229.35 224.612 229.569 226.537L220.148 228.118ZM231.869 226.162C231.65 224.252 231.494 222.312 231.415 220.309L244.216 218.462C244.236 220.325 244.408 222.183 244.733 224.018L231.869 226.162ZM244.263 216.084L231.384 217.946C231.384 215.404 231.53 212.865 231.822 210.34L245.312 209.167C244.731 211.423 244.359 213.728 244.201 216.052L244.263 216.084ZM258.645 221.686L246.939 223.626C246.612 221.814 246.445 219.976 246.438 218.134L258.832 216.35C258.738 218.118 258.645 219.902 258.645 221.686ZM259.083 213.94L246.564 215.755C246.724 213.455 247.101 211.176 247.69 208.948L260.319 207.837C259.756 209.835 259.358 211.876 259.13 213.94H259.083Z" fill="#92E3A9"/>
</g>
<path d="M272.275 205.364C272.275 205.364 276.688 201.624 271.931 199.245C267.173 196.867 226.674 200.262 219.522 202.641C212.371 205.02 209.992 211.498 210.336 217.961C210.68 224.424 216.126 229.526 224.624 230.215C233.121 230.903 266.876 225.113 271.571 222.719C276.265 220.324 272.275 205.364 272.275 205.364Z" stroke="#263238" stroke-miterlimit="10"/>
<path d="M281.461 202.312L282.134 217.273L271.931 218.979C270.28 216.769 269.388 214.085 269.388 211.326C269.388 208.568 270.28 205.884 271.931 203.674L281.461 202.312Z" fill="white" stroke="#263238" stroke-miterlimit="10"/>
<path d="M281.461 202.312C281.461 202.312 291.664 177.806 293.98 177.806C296.296 177.806 309.3 174.676 311.335 175.772C313.369 176.867 311.679 182.579 311.679 182.579C312.907 184.276 313.956 186.096 314.809 188.009C315.482 190.059 313.103 193.127 313.103 193.127C313.766 194.883 314.223 196.71 314.464 198.572C314.464 200.262 313.776 200.951 313.776 201.968C313.776 202.985 315.482 206.663 313.103 208.431C311.058 210.122 308.581 211.207 305.951 211.561H302.211C302.211 211.561 295.06 215.645 291.664 215.974C288.268 216.303 282.134 217.335 282.134 217.335L281.461 202.312Z" fill="white"/>
<g style="mix-blend-mode:multiply" opacity="0.5">
<path d="M302.211 211.498H305.951C308.581 211.144 311.058 210.06 313.103 208.369C313.639 207.911 314.036 207.312 314.246 206.639C314.457 205.966 314.473 205.247 314.292 204.566C312.15 205.927 309.772 206.877 307.282 207.367C301.945 208.337 296.139 208.822 291.288 211.232C288.154 212.945 285.179 214.935 282.4 217.179C283.62 216.976 288.659 216.146 291.664 215.849C295.06 215.583 302.211 211.498 302.211 211.498Z" fill="#92E3A9"/>
</g>
<path d="M281.461 202.312C281.461 202.312 291.664 177.806 293.98 177.806C296.296 177.806 309.3 174.676 311.335 175.772C313.369 176.867 311.679 182.579 311.679 182.579C312.907 184.276 313.956 186.096 314.809 188.009C315.482 190.059 313.103 193.127 313.103 193.127C313.766 194.883 314.223 196.71 314.464 198.572C314.464 200.262 313.776 200.951 313.776 201.968C313.776 202.985 315.482 206.663 313.103 208.431C311.058 210.122 308.581 211.207 305.951 211.561H302.211C302.211 211.561 295.06 215.645 291.664 215.974C288.268 216.303 282.134 217.335 282.134 217.335L281.461 202.312Z" stroke="#263238" stroke-miterlimit="10"/>
<path d="M311.741 182.579L296.765 186.319" stroke="#263238" stroke-miterlimit="10"/>
<path d="M313.103 193.127L298.127 196.522" stroke="#263238" stroke-miterlimit="10"/>
<path d="M313.776 201.968L300.85 204.003" stroke="#263238" stroke-miterlimit="10"/>
</svg>
