<svg width="72" height="72" viewBox="0 0 72 72" fill="none" xmlns="http://www.w3.org/2000/svg">
<g clip-path="url(#clip0)">
<path d="M72 35C72 54.8825 55.8825 71 36 71C16.1175 71 0 54.8825 0 35C0 15.1175 16.1175 -1 36 -1C55.8825 -1 72 15.1175 72 35Z" fill="#FFD400"/>
<path d="M43.3108 70.2568C59.6876 66.8785 72 52.3771 72 35C72 34.0211 71.9593 33.0521 71.883 32.093L61.3932 21.6033L10.6068 28.7746L24.889 43.0568L19.036 45.9819L43.3108 70.2568Z" fill="#FDBA12"/>
<path d="M52.964 45.982L36 48.7945L19.036 45.982V26.5159H52.964V45.982Z" fill="#171617"/>
<path d="M35.9999 48.7945L52.9639 45.982V26.5159H35.9664L35.9999 48.7945Z" fill="#171617"/>
<path d="M57.7969 26.5159H59.625V46.1094H57.7969V26.5159Z" fill="#171617"/>
<path d="M58.6505 26.5159H59.625V46.1094H58.6505V26.5159Z" fill="#171617"/>
<path d="M61.418 52.2969H56.0039L57.1965 45.1426C57.3195 44.4021 57.96 43.8594 58.7109 43.8594C59.4619 43.8594 60.1024 44.4021 60.2254 45.1426L61.418 52.2969Z" fill="#FA5D0F"/>
<path d="M60.2254 45.1426C60.1024 44.4021 59.4619 43.8594 58.7109 43.8594C58.6906 43.8594 58.6708 43.8616 58.6505 43.8621V52.2969H61.418L60.2254 45.1426Z" fill="#EF3800"/>
<path d="M10.6068 21.6033H61.3927V28.7746H10.6068V21.6033Z" fill="#171617"/>
<path d="M35.9664 21.6033H61.3932V28.7746H35.9664V21.6033Z" fill="#23272B"/>
</g>
<defs>
<clipPath id="clip0">
<rect width="72" height="72" fill="white"/>
</clipPath>
</defs>
</svg>
