<svg width="440" height="316" viewBox="0 0 440 316" fill="none" xmlns="http://www.w3.org/2000/svg">
<path d="M284.939 118.736V151.614C284.988 154.436 286.146 157.124 288.163 159.098C290.18 161.071 292.893 162.171 295.714 162.159H413.59C415.006 162.162 416.409 161.885 417.719 161.346C419.028 160.806 420.218 160.013 421.221 159.013C422.224 158.013 423.02 156.825 423.563 155.517C424.107 154.209 424.387 152.807 424.388 151.391V123.598L439.063 108.176L295.729 107.729C294.295 107.734 292.876 108.023 291.555 108.581C290.234 109.138 289.037 109.952 288.033 110.976C287.029 112 286.239 113.214 285.707 114.546C285.176 115.878 284.915 117.302 284.939 118.736Z" fill="#F5F5F5"/>
<path d="M406.983 127.654L299.98 127.155L299.995 123.866L406.99 124.366L406.983 127.654Z" fill="#E0E0E0"/>
<path d="M406.983 138.475L299.98 137.975L299.995 134.687L406.99 135.186L406.983 138.475Z" fill="#E0E0E0"/>
<path d="M364.649 145.52L364.633 148.808L406.967 149.015L406.983 145.727L364.649 145.52Z" fill="#E0E0E0"/>
<path d="M83.9454 286.35C100.433 274.829 104.169 253.449 103.52 234.225C103.409 231.018 103.759 227.633 102.238 224.821C100.717 222.01 97.1521 220.079 94.2736 221.436C91.8948 222.554 90.8582 225.328 89.5234 227.618C87.7433 230.676 85.1348 233.168 81.9991 234.806C79.9558 235.865 77.4278 236.514 75.4144 235.403C72.6403 233.874 72.3197 230.049 72.3346 226.857L72.4464 209.02C72.4464 205.828 72.4464 202.569 71.4845 199.542C70.5225 196.514 68.3003 193.703 65.2652 192.83C62.2301 191.958 58.4792 193.725 57.808 196.849C57.5396 198.147 57.808 199.497 57.7111 200.824C57.6141 202.152 57.0101 203.613 55.7498 203.986C54.4896 204.359 53.1995 203.457 52.245 202.495C48.9489 199.273 46.7192 195.127 44.6312 190.996C42.5432 186.864 40.5148 182.644 37.5245 179.131C34.5342 175.619 30.4029 172.83 25.8317 172.569C21.2604 172.308 16.3909 175.134 15.2425 179.623C14.0941 184.113 16.7339 188.684 19.5602 192.301C23.7955 197.714 28.7913 202.486 34.3925 206.469C35.3992 207.215 36.488 207.961 36.8757 209.131C37.5618 211.264 35.5483 213.375 33.4529 214.076C31.074 214.866 28.4864 214.62 25.9957 214.911C23.505 215.202 20.7757 216.305 19.8734 218.639C18.5609 221.898 21.2902 225.351 23.9748 227.588C29.3528 232.077 35.4621 235.608 42.0361 238.028C44.3776 238.886 46.8534 239.639 48.7475 241.287C50.6417 242.935 51.7826 245.806 50.6417 248.05C49.5007 250.295 46.5626 251.033 44.1017 250.563C41.6409 250.094 39.4484 248.774 37.0994 247.894C32.7146 246.238 27.0546 246.537 24.2433 250.332C22.4014 252.823 22.2373 256.298 23.1694 259.281C24.1016 262.264 25.9957 264.807 28.0092 267.163C35.0338 275.411 44.0346 282.078 54.2062 285.575C64.3778 289.072 73.8036 290.049 83.9156 286.365" fill="#F5F5F5"/>
<path d="M84.1915 300.594C83.2979 291.682 81.5499 282.877 78.9715 274.3C75.7836 263.829 71.9941 253.551 67.6217 243.516C66.4832 240.837 65.3547 238.197 64.2361 235.597C63.1175 233.002 61.9989 230.429 60.7685 227.976C58.3804 223.277 55.734 218.713 52.8415 214.307C50.1047 210.079 47.3605 206.163 44.758 202.524C42.1554 198.885 39.6647 195.552 37.3008 192.599C33.5351 187.925 29.4032 183.559 24.9442 179.541C23.3708 178.117 22.1105 177.051 21.2157 176.342L20.2089 175.529C20.1034 175.434 19.9884 175.349 19.8659 175.276C19.9595 175.384 20.0617 175.483 20.1716 175.574L21.1187 176.424C21.9539 177.17 23.1918 178.251 24.7354 179.698C29.1233 183.771 33.1989 188.169 36.9279 192.852C39.2993 195.835 41.7676 199.154 44.3478 202.8C46.928 206.447 49.6573 210.362 52.3717 214.59C55.2436 218.989 57.8725 223.543 60.2465 228.229C61.4769 230.668 62.5731 233.218 63.6917 235.821L67.0773 243.733C71.438 253.749 75.2347 264.001 78.4495 274.441C81.0373 282.983 82.8174 291.749 83.7664 300.624" fill="#E0E0E0"/>
<path d="M60.6045 227.953C60.7615 227.515 60.8666 227.059 60.9177 226.596C61.0892 225.716 61.2831 224.426 61.5068 222.868C61.9617 219.691 62.4315 215.284 62.9386 210.422C63.4457 205.559 63.9751 201.167 64.4747 198.005C64.7208 196.424 64.9296 195.149 65.0862 194.277C65.1972 193.825 65.2573 193.362 65.2652 192.897C65.0826 193.326 64.9476 193.774 64.8625 194.232C64.6388 195.097 64.3629 196.372 64.0646 197.961C63.4606 201.115 62.8565 205.515 62.3569 210.392L61.0967 222.845C60.9401 224.337 60.7984 225.604 60.694 226.619C60.6184 227.059 60.5884 227.507 60.6045 227.953Z" fill="#E0E0E0"/>
<path d="M19.5825 220.272C20.1188 220.393 20.6661 220.458 21.2156 220.466C22.2671 220.563 23.7958 220.69 25.6899 220.906C29.4185 221.316 34.6385 222.055 40.2911 223.143C45.9436 224.232 51.0518 225.418 54.7058 226.387C56.5328 226.864 58.0093 227.282 59.031 227.573C59.5503 227.749 60.0844 227.879 60.6268 227.961C60.1494 227.712 59.6502 227.507 59.1354 227.349C58.1286 226.999 56.6745 226.514 54.8475 225.984C51.2158 224.911 46.1226 223.643 40.4328 222.562C35.5844 221.626 30.691 220.942 25.772 220.511C23.8853 220.347 22.3491 220.28 21.2977 220.265C20.7271 220.212 20.1526 220.214 19.5825 220.272Z" fill="#E0E0E0"/>
<path d="M78.4793 273.547C78.5912 273.392 78.6839 273.224 78.7552 273.047C78.9491 272.644 79.1803 272.152 79.4562 271.555C80.0602 270.258 80.888 268.371 81.8723 266.015C83.8559 261.317 86.3839 254.74 89.076 247.446C91.768 240.153 94.2363 233.554 96.1155 228.804L98.3527 223.203C98.5913 222.592 98.7852 222.085 98.9492 221.712C99.0368 221.539 99.0948 221.352 99.1208 221.16C99.008 221.317 98.9153 221.487 98.8449 221.667C98.651 222.062 98.4198 222.554 98.1439 223.158C97.5398 224.456 96.7121 226.343 95.7278 228.699C93.7441 233.397 91.2162 239.974 88.5241 247.275C85.8321 254.576 83.3638 261.16 81.4845 265.918C80.5599 268.222 79.8067 270.116 79.2474 271.518C79.0088 272.13 78.8149 272.637 78.6508 273.047C78.5694 273.204 78.5116 273.372 78.4793 273.547Z" fill="#E0E0E0"/>
<path d="M23.9375 255.977C24.1101 256.07 24.2928 256.143 24.4819 256.194L26.0628 256.731L31.9018 258.617C36.8309 260.22 43.6095 262.502 51.104 265.038C58.5984 267.573 65.4068 269.803 70.3733 271.302C72.8491 272.048 74.8476 272.637 76.2645 273.01L77.8827 273.435C78.0693 273.493 78.2619 273.531 78.4569 273.546C78.2859 273.449 78.1029 273.373 77.9125 273.323L76.3316 272.793L70.4926 270.899C65.5634 269.303 58.7774 267.014 51.2904 264.479C43.8034 261.943 36.9876 259.713 32.0211 258.214C29.5453 257.469 27.5468 256.88 26.1299 256.507L24.5341 256.067C24.3411 256.006 24.1398 255.976 23.9375 255.977Z" fill="#E0E0E0"/>
<path d="M121.985 84.7084V110.19C121.985 112.403 121.106 114.527 119.541 116.093C117.976 117.659 115.854 118.54 113.64 118.542H22.2746C20.0608 118.54 17.9384 117.659 16.3737 116.093C14.809 114.527 13.9301 112.403 13.9301 110.19V88.6607L2.55786 76.7292L113.618 76.3489C114.717 76.346 115.805 76.5601 116.821 76.9791C117.837 77.3981 118.76 78.0136 119.538 78.7903C120.315 79.5671 120.932 80.4897 121.351 81.5053C121.771 82.5209 121.986 83.6094 121.985 84.7084Z" fill="#E0E0E0"/>
<path d="M27.3977 91.8003L110.307 91.42L110.299 88.8696L27.3902 89.25L27.3977 91.8003Z" fill="#FAFAFA"/>
<path d="M27.3977 100.182L110.307 99.8018L110.299 97.2515L27.3902 97.6392L27.3977 100.182Z" fill="#FAFAFA"/>
<path d="M60.1825 105.655L27.3788 105.815L27.3912 108.366L60.195 108.205L60.1825 105.655Z" fill="#FAFAFA"/>
<path d="M77.2191 131.734L77.2191 306.977C77.2191 311.734 81.0752 315.59 85.8321 315.59H344.82C349.577 315.59 353.433 311.734 353.433 306.977V131.734C353.433 126.977 349.577 123.121 344.82 123.121L85.8321 123.121C81.0752 123.121 77.2191 126.977 77.2191 131.734Z" fill="#263238"/>
<path d="M96.1155 129.191L96.1155 309.528H326.788V129.191H96.1155Z" fill="white"/>
<path d="M346.763 221.071C347.696 217.102 345.235 213.128 341.266 212.195C337.297 211.262 333.323 213.723 332.39 217.692C331.457 221.661 333.918 225.635 337.887 226.568C341.856 227.501 345.83 225.04 346.763 221.071Z" fill="#455A64"/>
<path d="M85.1684 191.279V247.432C85.1684 247.934 85.5757 248.342 86.0782 248.342H87.3086C87.8111 248.342 88.2184 247.934 88.2184 247.432V191.279C88.2184 190.777 87.8111 190.369 87.3086 190.369H86.0782C85.5757 190.369 85.1684 190.777 85.1684 191.279Z" fill="#455A64"/>
<path d="M161.55 235C167.208 226.403 164.826 214.847 156.228 209.189C147.631 203.53 136.075 205.913 130.417 214.51C124.759 223.108 127.141 234.664 135.739 240.322C144.336 245.98 155.892 243.597 161.55 235Z" fill="#FF725E"/>
<path opacity="0.3" d="M161.55 235C167.208 226.403 164.826 214.847 156.228 209.189C147.631 203.53 136.075 205.913 130.417 214.51C124.759 223.108 127.141 234.664 135.739 240.322C144.336 245.98 155.892 243.597 161.55 235Z" fill="white"/>
<path d="M139.524 220.079C140.225 220.019 140.866 220.824 140.956 221.824C141.045 222.823 140.53 223.71 139.822 223.77C139.114 223.83 138.48 223.024 138.398 222.032C138.316 221.041 138.845 220.138 139.524 220.079Z" fill="#263238"/>
<path d="M151.396 219.833C150.695 219.833 150.083 220.578 150.038 221.637C149.994 222.696 150.538 223.509 151.246 223.539C151.955 223.569 152.566 222.793 152.604 221.742C152.641 220.69 152.104 219.862 151.396 219.833Z" fill="#263238"/>
<path d="M153.431 228.475C153.431 228.692 149.956 228.871 145.676 228.871C141.395 228.871 137.913 228.692 137.913 228.475C137.913 228.259 141.388 228.073 145.676 228.073C149.964 228.073 153.431 228.244 153.431 228.475Z" fill="#263238"/>
<path d="M141.015 217.938C140.97 218.162 140.083 218.155 139.047 218.319C138.01 218.483 137.167 218.751 137.055 218.557C136.944 218.364 137.727 217.722 138.927 217.536C140.128 217.349 141.015 217.73 141.015 217.938Z" fill="#263238"/>
<path d="M154.759 218.841C154.624 219.02 153.819 218.602 152.783 218.289C151.746 217.976 150.851 217.864 150.829 217.633C150.806 217.401 151.821 217.155 153.014 217.528C154.207 217.901 154.9 218.684 154.759 218.841Z" fill="#263238"/>
<path d="M299.976 226.278C301.654 215.744 294.474 205.844 283.94 204.166C273.406 202.488 263.506 209.668 261.828 220.202C260.151 230.736 267.33 240.636 277.864 242.313C288.398 243.991 298.298 236.812 299.976 226.278Z" fill="#FF725E"/>
<path opacity="0.3" d="M299.976 226.278C301.654 215.744 294.474 205.844 283.94 204.166C273.406 202.488 263.506 209.668 261.828 220.202C260.151 230.736 267.33 240.636 277.864 242.313C288.398 243.991 298.298 236.812 299.976 226.278Z" fill="black"/>
<path d="M274.223 218.363C274.968 218.304 275.625 219.109 275.714 220.168C275.804 221.227 275.282 222.129 274.551 222.189C273.82 222.249 273.149 221.443 273.059 220.384C272.97 219.325 273.492 218.423 274.223 218.363Z" fill="#263238"/>
<path d="M286.505 218.11C285.759 218.11 285.14 218.915 285.095 219.974C285.051 221.033 285.617 221.913 286.348 221.943C287.079 221.973 287.713 221.138 287.757 220.079C287.802 219.02 287.243 218.14 286.505 218.11Z" fill="#263238"/>
<path d="M288.615 227.059C288.533 227.163 287.728 226.589 286.378 225.88C284.603 224.953 282.631 224.468 280.628 224.463C278.624 224.552 276.66 225.06 274.864 225.955C273.462 226.641 272.627 227.163 272.56 227.059C272.493 226.954 273.223 226.313 274.603 225.463C276.422 224.363 278.49 223.745 280.613 223.666C282.749 223.66 284.843 224.257 286.654 225.388C287.989 226.238 288.667 226.984 288.615 227.059Z" fill="#263238"/>
<path d="M275.699 216.141C275.766 216.223 275.64 216.47 275.319 216.745C274.898 217.125 274.383 217.382 273.827 217.491C273.262 217.599 272.677 217.534 272.15 217.305C271.754 217.126 271.575 216.917 271.62 216.82C271.665 216.723 272.627 216.917 273.686 216.708C274.745 216.499 275.557 215.962 275.699 216.141Z" fill="#263238"/>
<path d="M289.995 217.081C289.995 217.178 289.816 217.364 289.383 217.498C288.814 217.659 288.21 217.639 287.653 217.439C287.107 217.246 286.618 216.921 286.229 216.492C285.945 216.164 285.841 215.903 285.916 215.828C285.99 215.753 286.863 216.32 287.907 216.686C288.951 217.051 289.92 216.857 289.995 217.081Z" fill="#263238"/>
<path d="M243.872 276.843L248.346 274.628L252.716 277.059L251.985 272.115L255.647 268.714L250.718 267.879L248.615 263.345L246.303 267.775L241.344 268.371L244.834 271.943L243.872 276.843Z" fill="#E0E0E0"/>
<path d="M225.617 276.843L230.091 274.628L234.461 277.059L233.73 272.115L237.392 268.714L232.462 267.879L230.36 263.345L228.048 267.775L223.089 268.371L226.579 271.943L225.617 276.843Z" fill="#FF725E"/>
<path d="M207.362 276.843L211.836 274.628L216.198 277.059L215.475 272.115L219.136 268.714L214.207 267.879L212.104 263.345L209.793 267.775L204.834 268.371L208.324 271.943L207.362 276.843Z" fill="#FF725E"/>
<path d="M189.106 276.843L193.581 274.628L197.943 277.059L197.22 272.115L200.881 268.714L195.952 267.879L193.849 263.345L191.538 267.775L186.578 268.371L190.068 271.943L189.106 276.843Z" fill="#FF725E"/>
<path d="M170.851 276.843L175.326 274.628L179.688 277.059L178.965 272.115L182.626 268.714L177.697 267.879L175.594 263.345L173.282 267.775L168.323 268.371L171.813 271.943L170.851 276.843Z" fill="#FF725E"/>
<path d="M255.856 166.961C255.856 167.073 235.826 167.163 211.113 167.163C186.4 167.163 166.37 167.073 166.37 166.961C166.37 166.849 186.392 166.767 211.113 166.767C235.833 166.767 255.856 166.857 255.856 166.961Z" fill="#263238"/>
<path d="M233.857 161.592C233.857 161.704 223.969 161.794 211.769 161.794C199.569 161.794 189.673 161.704 189.673 161.592C189.673 161.48 199.561 161.391 211.769 161.391C223.976 161.391 233.857 161.48 233.857 161.592Z" fill="#263238"/>
<path d="M239.175 226.606C243.485 213.231 236.136 198.895 222.761 194.585C209.386 190.275 195.049 197.624 190.74 210.999C186.43 224.374 193.779 238.711 207.154 243.02C220.529 247.33 234.865 239.981 239.175 226.606Z" fill="#FF725E"/>
<path d="M206.161 212.368C207.123 212.293 207.996 213.352 208.115 214.747C208.234 216.141 207.541 217.327 206.579 217.409C205.617 217.491 204.737 216.425 204.625 215.038C204.513 213.651 205.199 212.45 206.161 212.368Z" fill="#263238"/>
<path d="M222.336 212.069C221.374 212.025 220.538 213.128 220.486 214.523C220.434 215.917 221.165 217.081 222.127 217.118C223.089 217.155 223.924 216.059 223.984 214.665C224.043 213.27 223.305 212.069 222.336 212.069Z" fill="#263238"/>
<path d="M225.11 220.384C225.154 220.429 224.946 220.69 224.536 221.13C223.951 221.76 223.313 222.336 222.627 222.853C221.598 223.622 220.466 224.243 219.263 224.694C217.773 225.254 216.185 225.507 214.595 225.44C213.017 225.356 211.465 224.998 210.009 224.381C208.828 223.903 207.697 223.312 206.631 222.614C204.826 221.406 203.872 220.466 203.924 220.377C203.976 220.287 205.087 221.048 206.907 222.107C207.98 222.718 209.1 223.244 210.255 223.68C211.65 224.223 213.123 224.543 214.618 224.627C216.106 224.69 217.593 224.475 219.002 223.993C220.159 223.591 221.264 223.05 222.291 222.383C223.156 221.786 223.857 221.287 224.312 220.891C224.767 220.496 225.072 220.347 225.11 220.384Z" fill="#263238"/>
<path d="M207.309 206.648C207.265 206.872 206.049 206.79 204.602 207.021C203.156 207.252 202.022 207.692 201.91 207.491C201.799 207.29 202.872 206.484 204.483 206.238C206.094 205.992 207.384 206.44 207.309 206.648Z" fill="#263238"/>
<path d="M227.794 207.834C227.653 208.013 226.579 207.372 225.132 206.939C223.685 206.507 222.44 206.417 222.433 206.193C222.425 205.97 223.767 205.686 225.371 206.193C226.974 206.7 227.936 207.677 227.794 207.834Z" fill="#263238"/>
<path d="M204.342 218.558C204.438 218.558 204.603 218.804 204.625 219.303C204.637 219.934 204.443 220.552 204.073 221.063C203.711 221.586 203.187 221.974 202.582 222.167C202.119 222.301 201.836 222.234 201.799 222.167C201.799 221.943 202.738 221.615 203.409 220.631C204.081 219.646 204.118 218.595 204.342 218.558Z" fill="#263238"/>
<path d="M227.265 220.899C227.265 220.996 227.071 221.152 226.676 221.182C226.156 221.206 225.645 221.048 225.229 220.735C224.804 220.428 224.501 219.982 224.371 219.475C224.289 219.087 224.371 218.841 224.476 218.833C224.7 218.833 224.953 219.579 225.699 220.094C226.445 220.608 227.213 220.675 227.265 220.899Z" fill="#263238"/>
<path d="M246.049 218.557C246.049 218.557 246.049 218.386 246.005 218.043L245.908 216.551C245.908 216.223 245.871 215.85 245.848 215.448C245.826 215.045 245.714 214.605 245.647 214.128C245.58 213.651 245.49 213.136 245.401 212.592C245.294 212.008 245.157 211.431 244.991 210.862C244.252 207.907 243.07 205.081 241.486 202.48C239.418 199.011 236.701 195.972 233.484 193.531L232.12 192.524C231.642 192.211 231.143 191.92 230.628 191.615C230.114 191.309 229.636 190.973 229.092 190.727L227.459 189.944L226.631 189.549L225.759 189.236L223.984 188.587C223.387 188.386 222.753 188.259 222.134 188.095C221.511 187.909 220.876 187.764 220.233 187.662C218.92 187.417 217.592 187.263 216.258 187.2C215.579 187.2 214.893 187.111 214.207 187.125L212.127 187.23C211.776 187.23 211.426 187.23 211.075 187.297L210.024 187.461C209.33 187.573 208.614 187.655 207.913 187.804C206.49 188.118 205.09 188.529 203.723 189.034C202.316 189.54 200.946 190.141 199.621 190.832C198.957 191.197 198.324 191.615 197.667 192.002C197.347 192.211 197.004 192.383 196.698 192.614L195.773 193.307C194.521 194.238 193.33 195.25 192.209 196.335L190.613 198.095L190.21 198.542L189.845 199.02L189.099 199.982L188.353 200.944L187.719 201.98L187.086 203.024L186.772 203.546L186.504 204.091L185.438 206.328L184.587 208.654C182.425 215.087 182.425 222.05 184.587 228.483C184.878 229.229 185.162 230.034 185.445 230.81C185.728 231.585 186.153 232.301 186.511 233.047L186.78 233.599L187.093 234.121L187.727 235.157L188.361 236.194L189.107 237.163L189.852 238.125L190.21 238.602L190.613 239.042L192.209 240.802C193.329 241.89 194.52 242.904 195.773 243.837L196.705 244.523C197.011 244.762 197.354 244.933 197.675 245.142C198.331 245.53 198.965 245.948 199.629 246.313C202.253 247.671 205.039 248.688 207.921 249.341C208.622 249.49 209.338 249.572 210.039 249.684L211.083 249.848C211.433 249.892 211.784 249.892 212.134 249.915L214.215 250.019C214.901 250.019 215.587 249.967 216.266 249.945C217.6 249.882 218.928 249.728 220.24 249.482C220.882 249.377 221.517 249.233 222.142 249.05C222.768 248.886 223.395 248.752 223.999 248.558L225.766 247.909L226.638 247.596L227.466 247.2L229.099 246.417C229.626 246.148 230.139 245.852 230.636 245.53C231.135 245.224 231.642 244.933 232.127 244.62L233.484 243.606C236.704 241.165 239.423 238.127 241.493 234.657C243.077 232.044 244.256 229.205 244.991 226.238C245.157 225.672 245.294 225.097 245.401 224.516C245.49 223.971 245.572 223.457 245.647 222.98C245.721 222.502 245.803 222.062 245.848 221.66C245.893 221.257 245.893 220.914 245.908 220.556C245.953 219.907 245.982 219.408 246.005 219.065C246.027 218.722 246.049 218.55 246.049 218.55C246.049 218.55 246.049 218.722 246.049 219.065C246.049 219.408 246.012 219.915 245.99 220.556C245.99 220.892 245.99 221.302 245.945 221.667C245.9 222.032 245.826 222.517 245.766 222.994C245.706 223.472 245.617 223.994 245.535 224.546C245.432 225.129 245.3 225.706 245.14 226.276C244.43 229.262 243.266 232.122 241.687 234.754C239.621 238.257 236.896 241.326 233.663 243.793L232.291 244.822C231.814 245.142 231.307 245.433 230.8 245.746C230.292 246.06 229.8 246.395 229.248 246.641L227.608 247.439L226.773 247.864L225.893 248.185L224.11 248.841C223.499 249.05 222.865 249.177 222.239 249.348C221.607 249.536 220.965 249.685 220.315 249.796C218.987 250.044 217.644 250.201 216.295 250.265C215.617 250.265 214.923 250.362 214.23 250.355L212.127 250.25C211.769 250.25 211.381 250.25 211.06 250.183L210.002 250.019C209.293 249.907 208.57 249.825 207.861 249.676C206.422 249.355 205.004 248.942 203.618 248.438C202.197 247.928 200.812 247.322 199.472 246.626C198.793 246.261 198.152 245.836 197.488 245.441C197.149 245.253 196.82 245.046 196.504 244.822L195.564 244.121C194.295 243.183 193.089 242.161 191.955 241.063L190.337 239.281L189.927 238.834L189.561 238.349L188.816 237.379L188.07 236.395L187.429 235.351L186.787 234.3L186.467 233.77L186.198 233.211L185.117 230.974C184.826 230.191 184.543 229.4 184.252 228.617C182.065 222.104 182.065 215.055 184.252 208.542L185.117 206.186L186.198 203.949L186.474 203.39L186.795 202.86L187.436 201.809L188.077 200.765L188.823 199.788L189.569 198.811L189.934 198.326L190.337 197.879C190.881 197.29 191.418 196.693 191.955 196.104C193.091 195.006 194.297 193.982 195.564 193.039L196.504 192.338C196.817 192.107 197.16 191.928 197.488 191.719C198.152 191.331 198.801 190.906 199.472 190.541C200.812 189.845 202.197 189.239 203.618 188.729C205.004 188.225 206.422 187.812 207.861 187.491C208.57 187.342 209.293 187.26 210.002 187.148L211.06 186.984C211.411 186.939 211.769 186.939 212.119 186.917L214.222 186.812C214.923 186.812 215.609 186.872 216.295 186.902C217.644 186.966 218.987 187.123 220.315 187.372C220.963 187.484 221.606 187.631 222.239 187.812C222.865 187.99 223.499 188.117 224.103 188.319L225.893 188.975L226.773 189.303L227.608 189.706L229.256 190.496C229.808 190.75 230.292 191.108 230.8 191.398C231.307 191.689 231.814 192.002 232.291 192.323L233.663 193.352C236.894 195.814 239.619 198.878 241.687 202.375C243.266 205.001 244.433 207.853 245.147 210.832C245.281 211.451 245.483 212.018 245.542 212.569C245.602 213.121 245.699 213.636 245.774 214.12C245.848 214.605 245.915 215.038 245.953 215.448C245.99 215.858 245.953 216.194 245.997 216.551C245.997 217.208 246.042 217.707 246.057 218.043C246.072 218.378 246.049 218.557 246.049 218.557Z" fill="#FF725E"/>
<path d="M326.788 129.191H96.1155V140.697H326.788V129.191Z" fill="#E0E0E0"/>
<path d="M103.558 134.627C103.558 134.935 103.466 135.236 103.295 135.493C103.124 135.749 102.88 135.949 102.596 136.067C102.311 136.185 101.997 136.216 101.695 136.156C101.393 136.095 101.115 135.947 100.897 135.729C100.679 135.511 100.531 135.233 100.471 134.931C100.41 134.629 100.441 134.315 100.559 134.03C100.677 133.746 100.877 133.502 101.133 133.331C101.39 133.16 101.691 133.068 101.999 133.068C102.413 133.068 102.809 133.233 103.101 133.525C103.394 133.817 103.558 134.214 103.558 134.627Z" fill="white"/>
<path d="M108.733 134.627C108.733 134.935 108.642 135.236 108.47 135.493C108.299 135.749 108.056 135.949 107.771 136.067C107.486 136.185 107.173 136.216 106.871 136.156C106.568 136.095 106.29 135.947 106.073 135.729C105.855 135.511 105.706 135.233 105.646 134.931C105.586 134.629 105.617 134.315 105.735 134.03C105.853 133.746 106.052 133.502 106.309 133.331C106.565 133.16 106.866 133.068 107.175 133.068C107.588 133.068 107.984 133.233 108.277 133.525C108.569 133.817 108.733 134.214 108.733 134.627Z" fill="white"/>
<path d="M113.916 134.627C113.916 134.935 113.824 135.236 113.653 135.493C113.482 135.749 113.239 135.949 112.954 136.067C112.669 136.185 112.356 136.216 112.053 136.156C111.751 136.095 111.473 135.947 111.255 135.729C111.037 135.511 110.889 135.233 110.829 134.931C110.769 134.629 110.799 134.315 110.917 134.03C111.035 133.746 111.235 133.502 111.491 133.331C111.748 133.16 112.049 133.068 112.357 133.068C112.77 133.07 113.165 133.235 113.457 133.527C113.749 133.819 113.914 134.214 113.916 134.627Z" fill="white"/>
<path d="M301.344 176.037C301.344 176.149 261.322 176.238 211.955 176.238C162.589 176.238 122.559 176.149 122.559 176.037C122.559 175.925 162.581 175.843 211.955 175.843C261.329 175.843 301.344 175.932 301.344 176.037Z" fill="#E0E0E0"/>
<path d="M301.344 180.474C301.344 180.578 261.322 180.667 211.955 180.667C162.589 180.667 122.559 180.578 122.559 180.474C122.559 180.369 162.581 180.272 211.955 180.272C261.329 180.272 301.344 180.362 301.344 180.474Z" fill="#E0E0E0"/>
<path d="M184.043 124.336C184.043 124.336 182.47 120.764 182.171 119.981C181.373 117.841 176.206 103.501 177.451 101.338C183.171 91.2934 187.608 84.1867 198.89 84.1867L218.823 84.0525C218.823 84.0525 237.705 80.2046 251.016 123.158L184.043 124.336Z" fill="#455A64"/>
<path d="M142 127.93L168.1 122.308L198.778 106.178L198.89 84.1568C194.289 82.8891 185.467 86.0807 169.621 94.1569L146.064 106.319C144.177 107.292 142.538 108.682 141.27 110.383C140.002 112.085 139.139 114.054 138.747 116.139C138.355 118.225 138.445 120.372 139.008 122.418C139.572 124.464 140.595 126.355 142 127.945V127.93Z" fill="#455A64"/>
<path d="M200.732 170.556C200.352 169.318 200.613 168.52 202.418 169.131C206.4 170.466 209.957 170.026 210.822 169.258C211.687 168.49 210.896 167.021 209.599 167.133C208.182 167.129 206.772 166.933 205.408 166.551C204.3 166.288 203.244 165.842 202.283 165.231C201.448 164.702 200.732 164.202 200.098 163.74C200.098 163.74 196.422 161.085 195.274 158.952L182.678 164.344L184.707 170.653C184.948 171.759 185.464 172.786 186.209 173.639C186.953 174.491 187.901 175.142 188.965 175.53C192.567 176.7 198.294 176.275 198.294 176.275C199.345 175.589 203.394 181.451 204.625 183.516C205.855 185.582 207.309 185.843 207.787 184.583C208.107 183.718 204.506 177.297 203.253 175.276C202.242 173.795 201.396 172.207 200.732 170.541" fill="#B77153"/>
<path d="M192.201 176.275C192.201 176.32 191.888 176.276 191.456 176.097C190.896 175.812 190.436 175.365 190.136 174.814C189.827 174.267 189.685 173.643 189.725 173.017C189.77 172.539 189.919 172.271 189.964 172.271C189.908 173.081 190.09 173.889 190.487 174.596C190.885 175.304 191.481 175.88 192.201 176.253V176.275Z" fill="#995037"/>
<path d="M196.198 176.462C196.198 176.506 195.9 176.462 195.497 176.26C194.975 175.967 194.548 175.529 194.267 175C193.979 174.474 193.844 173.877 193.879 173.277C193.924 172.823 194.051 172.532 194.103 172.584C194.126 173.356 194.301 174.116 194.617 174.821C195.036 175.463 195.572 176.02 196.198 176.462Z" fill="#995037"/>
<path d="M141.254 127.058C141.254 127.058 181.239 173.009 181.187 172.248C181.135 171.488 199.084 158.08 199.084 158.08L159.912 111.398L141.254 127.058Z" fill="#455A64"/>
<path d="M165.505 118.05C165.505 118.05 165.609 118.132 165.788 118.318L166.534 119.153L169.218 122.256C171.455 124.881 174.565 128.535 177.966 132.584C181.366 136.633 184.431 140.317 186.631 143.024L189.218 146.208L189.912 147.088C190.061 147.289 190.143 147.401 190.128 147.409C190.025 147.331 189.933 147.241 189.852 147.14L189.107 146.305C188.428 145.559 187.526 144.478 186.422 143.203C184.185 140.578 181.068 136.924 177.667 132.875C174.267 128.825 171.209 125.142 169.002 122.435L166.414 119.25C166.138 118.9 165.907 118.609 165.728 118.37C165.641 118.273 165.566 118.165 165.505 118.05Z" fill="#263238"/>
<path d="M236.236 123.329C236.506 122.356 236.666 121.356 236.713 120.347C236.738 119.152 236.519 117.964 236.071 116.857C235.622 115.749 234.953 114.744 234.103 113.904C233.134 112.882 232.09 112.002 231.247 111.077C230.475 110.272 229.868 109.325 229.457 108.288C229.176 107.578 229.064 106.812 229.129 106.051C229.144 105.774 229.215 105.502 229.338 105.253C229.204 106.239 229.336 107.243 229.718 108.161C230.155 109.144 230.763 110.041 231.515 110.809C232.351 111.696 233.395 112.561 234.386 113.605C235.354 114.577 236.091 115.755 236.542 117.05C236.899 118.106 237.053 119.219 236.996 120.332C236.962 121.079 236.819 121.818 236.571 122.524C236.505 122.809 236.392 123.081 236.236 123.329Z" fill="#263238"/>
<path d="M182.306 87.9822C182.306 87.9822 182.507 87.8778 182.887 87.7063C183.268 87.5348 183.857 87.3185 184.617 87.0799C185.55 86.7928 186.51 86.598 187.481 86.4983C188.779 86.3573 190.093 86.4791 191.344 86.8562C192.86 87.3379 194.221 88.2128 195.288 89.3916C196.502 90.7705 197.33 92.445 197.69 94.2463C198.14 96.2009 198.269 98.216 198.07 100.212C197.832 102.356 197.063 104.406 195.833 106.178C194.533 107.892 192.909 109.334 191.053 110.421C189.3 111.525 187.54 112.419 185.87 113.299L176.989 117.968L171.023 121.077L169.382 121.905C169.195 122.012 168.998 122.099 168.793 122.166C168.969 122.042 169.154 121.93 169.345 121.83L170.948 120.935L176.914 117.714L185.743 112.979C187.406 112.091 189.174 111.182 190.896 110.085C192.706 109.021 194.291 107.615 195.564 105.947C196.754 104.22 197.493 102.223 197.712 100.137C197.906 98.1923 197.788 96.2286 197.362 94.3208C197.035 92.5898 196.264 90.9733 195.124 89.6303C194.105 88.4783 192.798 87.6186 191.336 87.1396C190.132 86.7614 188.865 86.6221 187.608 86.7294C186.647 86.8115 185.695 86.9837 184.766 87.244C184.021 87.4602 183.417 87.6541 183.021 87.7958C182.791 87.8868 182.551 87.9494 182.306 87.9822Z" fill="#263238"/>
<path d="M169.904 122.263C169.77 122.3 169.442 119.623 167.667 116.931C165.892 114.239 163.625 112.822 163.715 112.718C164.26 112.933 164.765 113.241 165.206 113.628C167.419 115.379 168.992 117.811 169.681 120.548C169.853 121.102 169.929 121.683 169.904 122.263Z" fill="#263238"/>
<path d="M228.667 117.267C228.391 117.37 228.107 117.447 227.817 117.498C226.986 117.658 226.137 117.696 225.296 117.61C223.959 117.472 222.667 117.047 221.508 116.365C219.965 115.446 218.744 114.074 218.011 112.435C217.105 110.443 216.933 108.195 217.526 106.089C217.86 104.894 218.608 103.858 219.636 103.165C220.198 102.793 220.882 102.651 221.545 102.77C222.213 102.925 222.801 103.317 223.201 103.874C223.938 105.048 224.401 106.373 224.556 107.75C224.711 109.128 224.553 110.522 224.096 111.831C223.65 113.231 222.884 114.507 221.858 115.559C220.783 116.634 219.443 117.406 217.973 117.796C216.526 118.196 215 118.222 213.54 117.873C212.079 117.523 210.731 116.809 209.621 115.798C208.632 114.825 207.889 113.63 207.455 112.312C207.02 110.994 206.906 109.592 207.123 108.221C207.313 106.945 207.826 105.738 208.614 104.716C209.008 104.217 209.521 103.825 210.106 103.575C210.693 103.333 211.353 103.333 211.94 103.575C212.47 103.823 212.927 104.203 213.268 104.679C213.609 105.154 213.822 105.709 213.887 106.29C213.969 107.34 213.76 108.393 213.283 109.332C212.491 110.926 211.414 112.362 210.106 113.568C209.127 114.477 208.031 115.252 206.847 115.872C206.102 116.267 205.324 116.594 204.52 116.849C204.252 116.939 204.036 116.983 203.894 117.021C203.822 117.045 203.747 117.06 203.67 117.066C203.735 117.028 203.806 117 203.879 116.983C204.021 116.931 204.23 116.872 204.498 116.767C205.282 116.485 206.043 116.141 206.773 115.738C207.93 115.1 209 114.315 209.957 113.404C211.225 112.206 212.266 110.789 213.029 109.221C213.472 108.324 213.663 107.324 213.581 106.327C213.518 105.803 213.322 105.304 213.013 104.876C212.704 104.448 212.291 104.106 211.814 103.881C211.307 103.672 210.739 103.672 210.233 103.881C209.705 104.111 209.243 104.47 208.89 104.925C208.131 105.899 207.638 107.052 207.459 108.274C207.256 109.583 207.368 110.923 207.785 112.18C208.203 113.438 208.914 114.579 209.86 115.507C210.924 116.462 212.212 117.132 213.604 117.457C214.996 117.782 216.448 117.75 217.824 117.364C219.231 117.012 220.518 116.291 221.553 115.276C222.541 114.28 223.284 113.067 223.723 111.734C224.148 110.444 224.298 109.08 224.163 107.729C224.106 107.076 223.968 106.432 223.753 105.813C223.573 105.205 223.291 104.632 222.917 104.12C222.569 103.63 222.055 103.283 221.471 103.143C220.898 103.038 220.306 103.161 219.823 103.486C218.857 104.117 218.148 105.071 217.824 106.178C217.238 108.209 217.386 110.382 218.242 112.315C218.939 113.916 220.113 115.263 221.605 116.171C222.729 116.858 223.988 117.295 225.296 117.453C226.422 117.579 227.561 117.516 228.667 117.267Z" fill="#FAFAFA"/>
<path d="M231.68 72.5235C230.831 71.4893 230.222 70.2795 229.897 68.9814C229.763 68.5638 229.748 68.1172 229.853 67.6913C229.906 67.4771 230.03 67.2872 230.204 67.1519C230.379 67.0167 230.594 66.944 230.815 66.9456C231.262 66.9456 231.56 67.4005 231.806 67.7808C232.536 68.8783 233.15 70.0477 233.641 71.2707C233.785 71.605 233.859 71.9656 233.857 72.3297C233.855 72.5115 233.807 72.6898 233.717 72.8477C233.627 73.0056 233.498 73.1379 233.343 73.232C233.159 73.3115 232.957 73.3397 232.759 73.3134C232.561 73.2871 232.373 73.2074 232.216 73.0828C231.917 72.8284 231.664 72.5229 231.471 72.1805" fill="#995037"/>
<path d="M233.596 71.6959L231.627 67.5646C231.404 67.1696 231.265 66.733 231.217 66.2819C231.198 66.0554 231.249 65.8284 231.362 65.6312C231.475 65.434 231.646 65.276 231.851 65.1783C232.041 65.1236 232.243 65.121 232.434 65.1708C232.626 65.2207 232.8 65.3211 232.94 65.4617C233.22 65.7398 233.446 66.0688 233.603 66.4311L234.536 68.2432C234.812 68.7234 235.018 69.2407 235.147 69.7794C235.211 70.0507 235.216 70.3325 235.164 70.6061C235.111 70.8798 235.001 71.1393 234.841 71.3677C234.671 71.5884 234.429 71.7437 234.158 71.8075C233.886 71.8714 233.601 71.8398 233.35 71.7182" fill="#995037"/>
<path d="M224.834 84.4702C224.834 84.4702 222.09 80.9132 221.851 79.0414C221.612 77.1697 223.902 73.8214 228.831 73.0757C230.63 72.8868 232.363 72.2955 233.902 71.3456C234.204 71.1401 234.427 70.8364 234.531 70.4859C234.636 70.1353 234.616 69.7594 234.476 69.4217C233.827 67.8482 232.664 64.9473 232.753 64.5372C232.985 63.5305 233.641 63.5529 235.341 66.0286C237.041 68.5044 239.017 71.0548 238.637 72.2032C238.257 73.3516 232.246 76.9087 232.246 76.9087L233.887 79.556L224.834 84.4702Z" fill="#B77153"/>
<path d="M241.135 121.04L222.216 83.9703L234.401 77.147L259.994 117.714C259.994 117.714 261.344 120.309 263.231 123.344H241.777" fill="#455A64"/>
<path d="M234.23 77.147C234.23 77.147 234.163 77.2066 234.021 77.2961L233.38 77.6839L230.934 79.1082L222.134 84.1194L222.201 83.8957C224.043 87.6243 226.437 91.9867 228.846 96.7071C232.433 103.68 235.557 110.07 237.72 114.724C238.809 117.05 239.674 118.944 240.263 120.249C240.539 120.883 240.762 121.383 240.926 121.741C241.015 121.912 241.085 122.092 241.135 122.278C241.024 122.119 240.929 121.949 240.852 121.771C240.673 121.398 240.427 120.906 240.106 120.279L237.451 114.806C235.214 110.19 232.067 103.821 228.503 96.8488C226.094 92.1359 223.715 87.7884 221.903 84.015L221.836 83.8659L221.978 83.7839L230.844 78.8994L233.342 77.5497L234.006 77.2066C234.078 77.1769 234.153 77.1568 234.23 77.147Z" fill="#263238"/>
<path d="M184.043 124.336C182.41 121.678 181.336 118.714 180.889 115.626C181.008 115.626 181.523 117.61 182.38 120.003C183.238 122.397 184.148 124.284 184.043 124.336Z" fill="#263238"/>
<path d="M225.714 69.6896C227.217 70.2993 228.878 70.4021 230.445 69.9826C232.012 69.5631 233.399 68.6441 234.397 67.3649C235.394 66.0857 235.948 64.5162 235.973 62.8942C235.998 61.2723 235.493 59.6864 234.536 58.3771C238.809 57.2958 241.471 52.3666 240.606 48.0414C239.741 43.7163 235.885 40.3456 231.575 39.4135C229.927 39.0183 228.205 39.062 226.579 39.5403C225.771 39.7883 225.022 40.2005 224.381 40.751C223.739 41.3014 223.218 41.9783 222.85 42.7394" fill="#263238"/>
<path d="M225.11 60.0255C225.11 60.0703 224.558 60.1747 223.656 60.6445C222.386 61.3199 221.381 62.4018 220.8 63.7168C220.372 64.6792 220.192 65.733 220.276 66.7826C220.359 67.8322 220.703 68.8444 221.277 69.7273C221.604 70.2371 222.006 70.6947 222.47 71.0845C222.946 71.4979 223.484 71.8328 224.066 72.0763C225.289 72.6062 226.649 72.7321 227.949 72.4357C229.248 72.1393 230.419 71.4361 231.292 70.4283C231.708 69.9543 232.047 69.4184 232.299 68.8399C232.544 68.2875 232.707 67.7021 232.783 67.1024C232.891 66.226 232.816 65.3367 232.563 64.4907C232.31 63.6448 231.883 62.8606 231.312 62.1878C230.74 61.5149 230.034 60.9681 229.24 60.5818C228.446 60.1955 227.581 59.9781 226.698 59.9435C225.677 59.9062 225.117 60.0703 225.11 60.0181C225.238 59.9629 225.374 59.9252 225.512 59.9062C225.902 59.8229 226.3 59.7829 226.698 59.7869C227.962 59.7897 229.199 60.1589 230.258 60.8497C231.316 61.5406 232.152 62.5235 232.664 63.6795C233.145 64.7652 233.323 65.961 233.178 67.1397C233.113 67.7767 232.944 68.3988 232.679 68.9816C232.421 69.5999 232.063 70.1718 231.62 70.6744C230.697 71.7489 229.453 72.499 228.072 72.8144C226.691 73.1298 225.245 72.994 223.946 72.4268C223.332 72.1625 222.763 71.8026 222.261 71.3604C221.771 70.9486 221.349 70.463 221.008 69.9212C220.374 68.9188 220.016 67.766 219.972 66.5804C219.93 65.3239 220.252 64.0821 220.899 63.004C221.546 61.926 222.49 61.0575 223.618 60.5028C223.976 60.3222 224.354 60.1845 224.744 60.0926C224.863 60.0565 224.986 60.034 225.11 60.0255Z" fill="#FF725E"/>
<path d="M228.346 48.2728C229.902 48.1843 231.39 47.6022 232.592 46.611C233.795 45.6198 234.65 44.271 235.035 42.7605C235.419 41.2501 235.311 39.6565 234.728 38.2111C234.145 36.7658 233.116 35.544 231.791 34.7231C232.433 32.9238 232.493 30.9682 231.962 29.1332C231.431 27.2982 230.336 25.6767 228.833 24.4981C227.329 23.3196 225.493 22.6438 223.584 22.5664C221.676 22.489 219.791 23.0139 218.197 24.0668C216.985 21.9177 215.144 20.1912 212.922 19.1195C210.699 18.0478 208.202 17.6823 205.766 18.0721C203.329 18.462 201.071 19.5884 199.294 21.3C197.517 23.0116 196.306 25.2263 195.825 27.6462C193.641 26.7432 191.234 26.5243 188.923 27.0184C186.611 27.5125 184.504 28.6964 182.88 30.4135C181.256 32.1307 180.191 34.3003 179.826 36.6356C179.461 38.9709 179.813 41.3619 180.836 43.4927C178.445 43.6964 176.233 44.8416 174.686 46.6765C173.14 48.5113 172.385 50.8854 172.589 53.2765C172.793 55.6676 173.938 57.8799 175.773 59.4266C177.607 60.9734 179.982 61.7279 182.373 61.5242C181.889 63.1019 181.907 64.7907 182.424 66.3579C182.94 67.9251 183.93 69.2937 185.256 70.2751C186.583 71.2565 188.181 71.8025 189.831 71.8379C191.481 71.8733 193.101 71.3964 194.468 70.4728C195.342 71.8807 196.597 73.0114 198.089 73.7329C199.581 74.4544 201.246 74.7371 202.893 74.5479C204.539 74.3588 206.097 73.7056 207.386 72.6646C208.675 71.6235 209.642 70.2375 210.173 68.6681" fill="#263238"/>
<path d="M219.368 83.262C219.524 79.6303 219.718 76.3417 219.718 76.3417C219.718 76.3417 227.839 75.3201 228.19 67.0352C228.54 58.7502 227.712 39.6748 227.712 39.6748L212.798 32.501L196.72 45.4466L199.241 83.4782C199.417 86.1133 200.62 88.5742 202.589 90.3335C204.559 92.0927 207.14 93.0102 209.778 92.8892C212.289 92.7689 214.664 91.7149 216.438 89.9339C218.212 88.1529 219.257 85.7734 219.368 83.262Z" fill="#B77153"/>
<path d="M227.317 53.8583C227.183 54 226.407 53.3512 225.296 53.3065C224.185 53.2617 223.357 53.8285 223.245 53.6793C223.134 53.5302 223.32 53.3587 223.678 53.0902C224.159 52.7536 224.74 52.5882 225.326 52.6204C225.914 52.6444 226.478 52.8619 226.929 53.2393C227.265 53.5376 227.377 53.7986 227.317 53.8583Z" fill="#263238"/>
<path d="M214.998 53.8583C214.864 54 214.095 53.3512 212.977 53.3065C211.858 53.2617 211.046 53.8285 210.926 53.6793C210.807 53.5302 211.001 53.3587 211.359 53.0902C211.84 52.7536 212.42 52.5882 213.007 52.6204C213.595 52.6444 214.158 52.8619 214.61 53.2393C214.946 53.5376 215.057 53.7986 214.998 53.8583Z" fill="#263238"/>
<path d="M219.174 62.218C219.762 62.0426 220.372 61.9498 220.986 61.942C221.269 61.942 221.538 61.8675 221.59 61.6661C221.62 61.3527 221.561 61.0373 221.418 60.7563C221.16 60.0106 220.891 59.2276 220.613 58.4073C219.494 55.0591 218.697 52.3148 218.823 52.2701C218.95 52.2253 219.949 54.9025 221.06 58.2358L221.806 60.5997C221.974 60.9765 222.018 61.3968 221.933 61.8004C221.89 61.9021 221.825 61.9931 221.742 62.0666C221.66 62.1401 221.562 62.1944 221.456 62.2254C221.3 62.2662 221.139 62.2838 220.978 62.2776C220.377 62.3381 219.77 62.3181 219.174 62.218Z" fill="#263238"/>
<path d="M219.718 76.3491C215.87 76.2484 212.135 75.025 208.972 72.8293C208.972 72.8293 211.5 78.8622 219.577 78.3849L219.718 76.3491Z" fill="#995037"/>
<path d="M208.189 32.9633C206.896 34.8307 206.215 37.0542 206.242 39.3257C206.269 41.5971 207.001 43.804 208.339 45.6405C209.547 47.2214 211.366 48.5115 213.357 48.4369C215.348 48.3623 217.272 46.4831 216.847 44.5368C216.653 45.1477 216.605 45.7954 216.706 46.4284C216.807 47.0613 217.054 47.662 217.428 48.1825C217.802 48.7031 218.292 49.1291 218.859 49.4268C219.427 49.7244 220.056 49.8854 220.697 49.8969C221.338 49.9084 221.973 49.7701 222.55 49.493C223.128 49.216 223.634 48.8078 224.026 48.301C224.418 47.7942 224.687 47.2028 224.81 46.5739C224.934 45.945 224.909 45.296 224.737 44.6785C224.892 45.573 225.208 46.432 225.669 47.2139C225.905 47.6041 226.243 47.9226 226.646 48.1354C227.05 48.3482 227.503 48.4473 227.958 48.422C229.204 48.2579 229.927 46.9306 230.196 45.6852C230.581 43.8326 230.493 41.9126 229.939 40.1032C229.385 38.2938 228.383 36.6536 227.026 35.3347C225.648 34.0432 224.016 33.0532 222.234 32.4279C220.452 31.8026 218.559 31.5557 216.676 31.703C212.888 32.0364 209.316 33.609 206.512 36.1773" fill="#263238"/>
<path d="M209.241 35.8865C210.292 38.2352 210.86 40.7711 210.911 43.3436C210.956 45.9305 209.993 48.4334 208.227 50.3236C207.333 51.2437 206.196 51.8912 204.948 52.1908C203.701 52.4905 202.394 52.43 201.18 52.0163C201.507 53.1265 201.584 54.2953 201.406 55.4389C201.228 56.5825 200.799 57.6725 200.151 58.6309C198.764 60.4728 196.034 61.3527 194.013 60.2416C192.179 59.2423 191.388 57.0201 191.135 54.947C190.83 52.4308 191.094 49.8783 191.906 47.4773C192.718 45.0762 194.057 42.8878 195.827 41.0728C197.596 39.2578 199.749 37.8625 202.129 36.9895C204.508 36.1165 207.053 35.788 209.576 36.0282" fill="#263238"/>
<path d="M198.995 55.6257C197.891 54.9396 196.385 55.4989 195.505 56.4609C194.812 57.2214 194.384 58.1858 194.285 59.2098C194.185 60.2337 194.42 61.2624 194.954 62.1418C195.488 63.0213 196.292 63.7045 197.246 64.0892C198.2 64.4738 199.253 64.5394 200.247 64.276" fill="#B77153"/>
<path d="M198.741 61.7927C198.741 61.8374 198.376 61.8896 197.802 61.733C197.421 61.6346 197.069 61.4484 196.774 61.1894C196.479 60.9304 196.248 60.6058 196.101 60.2416C195.951 59.809 195.967 59.3357 196.146 58.9142C196.297 58.5861 196.534 58.3051 196.832 58.1014C197.347 57.7658 197.734 57.7733 197.742 57.818C197.749 57.8627 197.406 57.9746 196.996 58.3251C196.736 58.5336 196.545 58.8169 196.451 59.1369C196.356 59.4568 196.362 59.7981 196.467 60.1148C196.597 60.43 196.791 60.7151 197.036 60.9524C197.281 61.1898 197.572 61.3742 197.891 61.4944C198.435 61.6808 198.749 61.733 198.741 61.7927Z" fill="#995037"/>
<path d="M215.684 50.4054C215.579 50.7261 214.364 50.6068 212.925 50.6739C211.485 50.741 210.285 50.92 210.158 50.6068C210.031 50.2936 211.202 49.5404 212.88 49.4807C214.558 49.4211 215.796 50.0997 215.684 50.4054Z" fill="#263238"/>
<path d="M227.287 50.1743C227.16 50.2862 226.914 50.1743 226.624 50.137C226.292 50.0571 225.948 50.0369 225.609 50.0773C225.177 50.0773 224.7 50.1967 224.334 50.1892C223.969 50.1817 223.715 50.1072 223.67 49.9431C223.626 49.7791 223.79 49.5852 224.096 49.3764C224.521 49.105 225.003 48.9365 225.505 48.8842C225.798 48.846 226.096 48.8774 226.374 48.9758C226.653 49.0743 226.904 49.2371 227.108 49.4509C227.384 49.7865 227.407 50.0699 227.287 50.1743Z" fill="#263238"/>
<path d="M217.242 64.3356C217.549 64.1369 217.895 64.0073 218.257 63.9558C218.619 63.9043 218.988 63.9321 219.338 64.0373C219.684 64.1569 219.977 64.394 220.166 64.7074C220.356 65.0207 220.429 65.3905 220.374 65.7524C220.273 66.1409 220.034 66.4798 219.703 66.707C219.462 66.8939 219.183 67.0277 218.886 67.0997C218.59 67.1716 218.281 67.1801 217.981 67.1246C217.68 67.0647 217.401 66.9241 217.173 66.7179C216.946 66.5117 216.779 66.2475 216.691 65.9538C216.617 65.6566 216.643 65.3433 216.766 65.0627C216.888 64.7821 217.101 64.55 217.369 64.4027" fill="#995037"/>
<path d="M221.314 65.2231C221.314 65.2231 221.046 65.4542 220.516 65.5661C219.811 65.7125 219.078 65.6424 218.413 65.3647C217.75 65.0847 217.185 64.6152 216.788 64.015C216.489 63.5601 216.43 63.2245 216.474 63.2022C216.519 63.1798 216.683 63.4632 217.011 63.8509C217.435 64.3461 217.965 64.7387 218.562 64.9993C219.168 65.2417 219.821 65.3412 220.471 65.2902C220.978 65.2529 221.292 65.1634 221.314 65.2231Z" fill="#263238"/>
<path d="M204.498 69.1756C204.446 69.1756 204.498 68.594 204.215 67.6096C203.839 66.2246 203.01 65.006 201.858 64.1495C201.074 63.5589 200.162 63.1605 199.196 62.9862C198.089 62.7894 196.95 62.8871 195.893 63.2695C195.322 63.4755 194.787 63.7672 194.304 64.1346C193.794 64.5043 193.348 64.9552 192.984 65.4694C192.195 66.5425 191.769 67.8398 191.769 69.1719C191.769 70.504 192.195 71.8013 192.984 72.8744C193.348 73.3885 193.794 73.8395 194.304 74.2092C194.787 74.5766 195.322 74.8683 195.893 75.0742C196.722 75.375 197.605 75.5001 198.486 75.4415C199.366 75.3829 200.225 75.1419 201.008 74.7338C201.79 74.3257 202.479 73.7595 203.031 73.0709C203.584 72.3824 203.986 71.5867 204.215 70.7342C204.476 69.7498 204.446 69.1682 204.498 69.1756C204.509 69.3121 204.509 69.4493 204.498 69.5858C204.497 69.9852 204.45 70.3831 204.356 70.7715C204.022 72.2216 203.194 73.5106 202.015 74.418C201.203 75.0526 200.252 75.4869 199.241 75.6857C198.074 75.9098 196.869 75.8171 195.751 75.4173C195.146 75.2047 194.578 74.9004 194.066 74.515C193.522 74.1247 193.046 73.6487 192.656 73.1055C191.809 71.9689 191.352 70.5893 191.352 69.1719C191.352 67.7545 191.809 66.3749 192.656 65.2382C193.046 64.6951 193.522 64.2191 194.066 63.8288C194.578 63.4434 195.146 63.1391 195.751 62.9265C196.794 62.5487 197.916 62.4421 199.012 62.6169C200.108 62.7917 201.141 63.2421 202.015 63.9258C203.194 64.8332 204.022 66.1222 204.356 67.5723C204.45 67.9607 204.497 68.3586 204.498 68.758C204.51 68.897 204.51 69.0367 204.498 69.1756Z" fill="#FF725E"/>
<path d="M227.28 32.0981C227.352 32.1031 227.423 32.1207 227.489 32.1503C227.683 32.227 227.86 32.341 228.011 32.4859C228.292 32.766 228.5 33.1114 228.616 33.4913C228.732 33.8712 228.752 34.2739 228.674 34.6634C228.516 35.2552 228.187 35.7873 227.728 36.1931C227.269 36.599 226.701 36.8606 226.094 36.9453C224.56 37.1296 223.01 36.7593 221.724 35.9013L220.188 35.0139L221.873 35.5657C222.163 35.6683 222.422 35.8424 222.627 36.0718C222.832 36.3012 222.975 36.5786 223.044 36.8782C223.125 37.1762 223.146 37.4873 223.105 37.7934C223.064 38.0994 222.962 38.3942 222.806 38.6605C222.464 39.196 221.93 39.5803 221.314 39.7343C220.693 39.891 220.041 39.8755 219.427 39.6895C218.055 39.1546 216.907 38.1649 216.176 36.8856L215.043 35.3346L216.415 36.6694C216.77 37.0362 217.025 37.4879 217.155 37.9815C217.286 38.475 217.288 38.9938 217.16 39.4882C217.061 39.94 216.86 40.3633 216.574 40.7262C216.287 41.0892 215.921 41.3824 215.505 41.5837C214.822 41.9083 214.06 42.0323 213.309 41.9412C212.558 41.8501 211.848 41.5477 211.262 41.0691C210.488 40.4404 209.918 39.5973 209.621 38.6455C209.543 38.4018 209.483 38.1525 209.442 37.8998C209.434 37.8105 209.434 37.7207 209.442 37.6314C209.48 37.6314 209.524 37.9893 209.763 38.6083C210.093 39.489 210.658 40.2627 211.396 40.8454C211.951 41.2732 212.614 41.5381 213.31 41.6106C214.007 41.683 214.71 41.5601 215.341 41.2556C215.709 41.0718 216.031 40.8073 216.283 40.482C216.534 40.1566 216.709 39.7787 216.795 39.3763C216.904 38.9448 216.901 38.4927 216.788 38.0623C216.674 37.6319 216.454 37.2374 216.146 36.9155L216.437 36.6694C217.122 37.8664 218.192 38.7967 219.472 39.3092C219.995 39.5028 220.566 39.5247 221.103 39.3719C221.639 39.219 222.113 38.8993 222.455 38.4591C222.992 37.5792 222.671 36.222 221.762 35.9162L221.911 35.5806C223.115 36.4081 224.572 36.7856 226.027 36.647C226.59 36.5804 227.12 36.3497 227.552 35.9837C227.984 35.6177 228.3 35.1326 228.458 34.5888C228.536 34.2294 228.529 33.8567 228.437 33.5006C228.345 33.1445 228.171 32.8149 227.929 32.5381C227.734 32.3621 227.515 32.214 227.28 32.0981Z" fill="#455A64"/>
<path d="M207.384 45.424C207.384 45.424 207.384 45.4762 207.287 45.5657C207.18 45.6985 207.063 45.8231 206.937 45.9385C206.454 46.3773 205.889 46.7146 205.274 46.9303C204.31 47.2657 203.264 47.2814 202.291 46.9751C201.646 46.7733 201.049 46.4424 200.537 46.0027C200.024 45.563 199.606 45.0236 199.308 44.4173L199.621 44.3725C199.5 45.1277 199.202 45.8432 198.75 46.4603C198.298 47.0773 197.706 47.578 197.023 47.9213C196.339 48.2645 195.584 48.4404 194.819 48.4344C194.054 48.4284 193.302 48.2407 192.624 47.8868C191.946 47.5328 191.362 47.0228 190.92 46.3988C190.478 45.7748 190.191 45.0546 190.082 44.2977C189.973 43.5407 190.045 42.7687 190.293 42.0453C190.541 41.3219 190.957 40.6677 191.508 40.1369L191.769 40.4128C190.888 41.1442 189.781 41.5474 188.637 41.5537C187.598 41.5739 186.575 41.2943 185.691 40.7483C184.901 40.2578 184.283 39.5332 183.924 38.6753C183.631 37.9442 183.506 37.1567 183.558 36.371C183.621 35.2545 184.051 34.1901 184.781 33.3434C185.037 33.0413 185.345 32.7886 185.691 32.5977C185.691 32.5977 185.356 32.8512 184.886 33.4403C184.219 34.2957 183.838 35.3393 183.797 36.4232C183.766 37.1693 183.901 37.913 184.192 38.6007C184.541 39.391 185.124 40.055 185.863 40.5023C186.694 41.012 187.655 41.271 188.629 41.248C189.686 41.2332 190.706 40.8598 191.523 40.1891L191.776 40.465C191.142 41.1155 190.714 41.9387 190.545 42.8314C190.377 43.7242 190.476 44.6468 190.829 45.4837C191.262 46.3973 191.986 47.1413 192.888 47.5988C193.789 48.0564 194.817 48.2016 195.811 48.0116C196.68 47.8068 197.472 47.355 198.091 46.7108C198.711 46.0665 199.13 45.2572 199.3 44.38L199.383 43.858L199.614 44.3352C199.885 44.9051 200.268 45.4149 200.739 45.8349C201.21 46.2549 201.761 46.5766 202.358 46.7812C203.29 47.0911 204.297 47.0911 205.229 46.7812C205.832 46.5956 206.393 46.297 206.884 45.9013C207.242 45.5881 207.384 45.4091 207.384 45.424Z" fill="#455A64"/>
<path d="M192.626 58.6831C192.439 58.8553 192.218 58.9873 191.978 59.0709C191.325 59.3425 190.616 59.4525 189.912 59.3916C188.822 59.311 187.805 58.8144 187.071 58.0045C186.608 57.4922 186.267 56.8823 186.072 56.2201C185.877 55.5579 185.833 54.8603 185.945 54.179L186.288 54.3281C185.551 55.3032 184.593 56.0882 183.491 56.6175C182.642 57.0207 181.709 57.2175 180.769 57.1917C179.894 57.1671 179.037 56.9318 178.271 56.5056C177.61 56.1651 177.046 55.6634 176.63 55.0469C176.214 54.4304 175.96 53.7189 175.892 52.9784C175.804 51.9875 176.068 50.9971 176.638 50.182C176.799 49.9695 176.987 49.779 177.197 49.6152C177.267 49.5508 177.348 49.5002 177.436 49.4661C177.436 49.4661 177.145 49.7196 176.765 50.2714C176.266 51.0723 176.05 52.0179 176.153 52.956C176.231 53.6487 176.482 54.3105 176.884 54.8802C177.285 55.4499 177.824 55.909 178.45 56.2148C179.199 56.6107 180.03 56.8233 180.877 56.835C181.723 56.8466 182.561 56.6571 183.32 56.2819C184.365 55.7836 185.277 55.0451 185.982 54.1268L186.467 53.5004L186.325 54.2461C186.219 54.872 186.254 55.5134 186.425 56.1246C186.596 56.7357 186.901 57.3013 187.317 57.7808C187.99 58.5498 188.926 59.0392 189.942 59.1529C190.612 59.2315 191.292 59.1628 191.933 58.9516C192.38 58.795 192.611 58.6608 192.626 58.6831Z" fill="#455A64"/>
<path d="M234.856 42.5308C235.036 42.9669 235.093 43.4441 235.02 43.9103C234.932 45.0571 234.449 46.1378 233.654 46.9685C232.858 47.7992 231.8 48.3287 230.658 48.4667C230.197 48.5641 229.719 48.5279 229.278 48.3623C229.278 48.2952 229.808 48.3623 230.613 48.1908C231.666 47.9924 232.629 47.4692 233.369 46.6947C234.109 45.9203 234.587 44.9335 234.737 43.873C234.871 43.0602 234.789 42.5382 234.856 42.5308Z" fill="#455A64"/>
<path d="M239.45 50.3386C239.551 50.5123 239.615 50.7054 239.636 50.9054C239.726 51.4541 239.672 52.0167 239.48 52.5385C239.343 52.9451 239.106 53.3106 238.791 53.6013C238.475 53.892 238.091 54.0984 237.675 54.2014C237.176 54.3038 236.657 54.2571 236.184 54.0672C235.918 53.9668 235.676 53.8131 235.472 53.6156C235.268 53.4181 235.107 53.181 234.998 52.9188L235.371 52.792C235.439 53.0346 235.471 53.2858 235.468 53.5378C235.446 54.1138 235.257 54.6711 234.925 55.1423C234.593 55.6134 234.131 55.9782 233.596 56.1925C233.118 56.3678 232.597 56.3912 232.105 56.2596C231.69 56.1407 231.307 55.9291 230.986 55.6407C230.513 55.2391 230.194 54.6855 230.084 54.0747C230.017 53.6496 230.084 53.411 230.084 53.4184C230.084 53.4259 230.084 53.6496 230.21 54.0448C230.373 54.5889 230.699 55.0702 231.143 55.4244C231.454 55.6915 231.83 55.8714 232.234 55.9461C232.637 56.0207 233.053 55.9874 233.439 55.8495C233.899 55.6547 234.294 55.3333 234.578 54.9226C234.862 54.512 235.023 54.0291 235.043 53.5303C235.047 53.3235 235.019 53.1172 234.961 52.9188L235.341 52.792C235.541 53.1943 235.87 53.5183 236.275 53.7128C236.68 53.9072 237.139 53.9611 237.578 53.8659C237.944 53.7815 238.283 53.609 238.566 53.3633C238.85 53.1176 239.068 52.8063 239.204 52.4565C239.402 51.9852 239.491 51.4754 239.465 50.965C239.45 50.5474 239.383 50.3461 239.45 50.3386Z" fill="#455A64"/>
<path d="M216.676 61.4346C216.728 61.4346 216.758 61.6061 216.676 61.8596C216.574 62.187 216.378 62.4774 216.113 62.6948C215.848 62.9121 215.525 63.047 215.184 63.0826C214.923 63.0826 214.767 63.0379 214.774 62.9857C214.782 62.9335 215.348 62.8216 215.855 62.3816C216.362 61.9417 216.564 61.4346 216.676 61.4346Z" fill="#263238"/>
<path d="M429.742 315.59C429.742 315.702 333.544 315.784 214.886 315.784C96.2274 315.784 0 315.724 0 315.59C0 315.456 96.1975 315.396 214.886 315.396C333.574 315.396 429.742 315.486 429.742 315.59Z" fill="#263238"/>
<path d="M394.417 275.299C392.553 277.954 388.936 277.074 387.258 275.456C385.58 273.838 384.872 271.481 384.223 269.236C382.732 264.113 381.24 258.737 382.359 253.517C382.624 251.934 383.321 250.456 384.372 249.244C384.901 248.645 385.579 248.196 386.338 247.943C387.096 247.69 387.907 247.643 388.69 247.805C390.517 248.282 391.673 250.042 392.471 251.772C394.891 256.788 396.165 262.28 396.2 267.849C396.2 270.444 395.901 273.159 394.44 275.307" fill="#FF725E"/>
<g opacity="0.2">
<path opacity="0.2" d="M394.417 275.299C392.553 277.954 388.936 277.074 387.258 275.456C385.58 273.838 384.872 271.481 384.223 269.236C382.732 264.113 381.24 258.737 382.359 253.517C382.624 251.934 383.321 250.456 384.372 249.244C384.901 248.645 385.579 248.196 386.338 247.943C387.096 247.69 387.907 247.643 388.69 247.805C390.517 248.282 391.673 250.042 392.471 251.772C394.891 256.788 396.165 262.28 396.2 267.849C396.2 270.444 395.901 273.159 394.44 275.307" fill="black"/>
</g>
<path d="M387.445 288.767C384.317 287.294 380.798 286.865 377.407 287.544C375.595 287.85 373.679 288.394 372.463 289.781C371.248 291.168 370.972 293.547 372.411 294.718C373.326 295.338 374.429 295.618 375.528 295.508C378.176 295.508 381.114 295.016 383.224 296.604C384.432 297.514 385.237 299.028 386.677 299.475C387.395 299.635 388.146 299.558 388.818 299.257C389.489 298.956 390.046 298.447 390.405 297.805C391.092 296.478 391.244 294.938 390.83 293.502C390.669 292.505 390.279 291.559 389.692 290.738C389.105 289.917 388.336 289.242 387.445 288.767Z" fill="#FF725E"/>
<path d="M399.533 279.11C397.504 276.716 397.124 273.219 398.041 270.213C399.061 267.226 400.886 264.579 403.314 262.562C406.068 260.109 409.275 258.216 412.754 256.992C414.099 256.435 415.551 256.18 417.005 256.246C417.728 256.29 418.43 256.51 419.049 256.885C419.669 257.261 420.188 257.781 420.562 258.401C421.561 260.295 420.607 262.592 419.578 264.471C417.757 267.794 415.678 270.968 413.358 273.964C411.502 276.365 409.369 278.729 406.535 279.811C403.701 280.892 400.763 280.765 399.257 278.804" fill="#FF725E"/>
<path d="M394.559 315.404C394.459 315.008 394.401 314.603 394.387 314.196C394.305 313.323 394.194 312.212 394.067 310.9C393.901 309.277 393.652 307.664 393.321 306.067C392.887 304.119 392.299 302.209 391.561 300.355C390.84 298.505 389.858 296.768 388.645 295.195C387.661 293.912 386.402 292.865 384.962 292.13C383.985 291.645 382.938 291.318 381.859 291.16C381.454 291.145 381.052 291.088 380.659 290.989C381.065 290.94 381.476 290.94 381.882 290.989C383.002 291.076 384.098 291.361 385.118 291.832C386.633 292.552 387.963 293.61 389.003 294.926C390.264 296.523 391.281 298.297 392.023 300.191C392.771 302.071 393.355 304.012 393.768 305.993C394.083 307.611 394.297 309.247 394.41 310.892C394.514 312.294 394.559 313.428 394.574 314.211C394.611 314.608 394.606 315.008 394.559 315.404Z" fill="#263238"/>
<path d="M394.313 312.868C394.295 312.682 394.295 312.495 394.313 312.309C394.313 311.892 394.313 311.355 394.313 310.706C394.313 309.319 394.313 307.305 394.238 304.815C394.119 299.841 393.686 292.98 392.859 285.426C392.031 277.872 390.92 271.093 389.921 266.224C389.682 265.001 389.443 263.905 389.175 262.943C388.906 261.981 388.78 261.145 388.601 260.474C388.422 259.803 388.325 259.326 388.228 258.916C388.168 258.735 388.135 258.547 388.131 258.356C388.213 258.526 388.278 258.703 388.325 258.886L388.787 260.422C388.996 261.086 389.205 261.914 389.451 262.875C389.697 263.837 389.965 264.926 390.197 266.149C391.57 272.498 392.603 278.915 393.291 285.374C394.119 292.935 394.492 299.818 394.522 304.8C394.522 307.29 394.522 309.311 394.44 310.706C394.395 311.355 394.365 311.884 394.335 312.309C394.357 312.496 394.35 312.684 394.313 312.868Z" fill="#263238"/>
<path d="M394.283 299.595C394.238 299.036 394.238 298.475 394.283 297.917C394.35 296.843 394.499 295.284 394.798 293.383C395.171 291.152 395.669 288.944 396.289 286.768C397.019 284.1 397.936 281.486 399.033 278.946C400.952 274.277 403.701 269.994 407.147 266.306C407.748 265.675 408.388 265.082 409.063 264.531C409.354 264.285 409.615 264.039 409.876 263.845L410.622 263.33C411.068 262.994 411.539 262.692 412.031 262.428C410.412 263.71 408.871 265.087 407.415 266.552C404.075 270.279 401.399 274.552 399.503 279.184C398.407 281.703 397.477 284.291 396.722 286.932C395.976 289.363 395.521 291.6 395.156 293.48C394.79 295.359 394.611 296.903 394.484 297.954C394.461 298.505 394.394 299.054 394.283 299.595Z" fill="#263238"/>
<path d="M132.365 0.00245847C132.192 0.034054 132.018 0.0564572 131.843 0.0695731L130.351 0.196347C129.529 0.251999 128.711 0.369153 127.905 0.546832C127.421 0.651232 126.891 0.695977 126.354 0.860035C125.817 1.02409 125.236 1.18815 124.632 1.35966C121.69 2.30386 118.92 3.71651 116.429 5.54314C113.154 7.98846 110.429 11.0927 108.427 14.6558C105.359 20.1842 104.036 26.5119 104.632 32.8066C104.676 33.4926 104.826 34.1712 104.922 34.8648C105.015 35.5619 105.154 36.252 105.34 36.9304C105.998 39.7751 107.079 42.505 108.547 45.0289C111.671 50.4904 116.498 54.7782 122.29 57.2363C125.342 58.5104 128.604 59.2058 131.91 59.287C135.315 59.4219 138.713 58.8847 141.91 57.7061L142.887 57.3332L143.014 57.2885L143.133 57.3407L157.302 64.3355L156.892 64.7009L152.372 51.2109L152.32 51.0394L152.44 50.9126C155.823 47.433 158.312 43.1856 159.695 38.5337C160.939 34.283 161.255 29.8146 160.62 25.4314C159.608 18.1257 155.952 11.4449 150.344 6.65426C148.22 4.91303 145.875 3.45883 143.372 2.3291C141.481 1.54028 139.514 0.945625 137.503 0.554291L135.31 0.211261L133.692 0.114317L132.7 0.0472025C132.588 0.046191 132.475 0.0336986 132.365 0.00991723C132.476 -0.00330575 132.589 -0.00330575 132.7 0.00991723H133.692L135.325 0.0546585L137.563 0.360403C139.605 0.719132 141.605 1.29151 143.528 2.0681C146.076 3.17791 148.462 4.62785 150.62 6.37834C153.239 8.57702 155.466 11.2045 157.205 14.1487C159.235 17.5849 160.576 21.3846 161.15 25.3345C161.813 29.7891 161.508 34.3345 160.255 38.6604C158.862 43.406 156.336 47.7415 152.894 51.2929L152.947 50.9946C154.438 55.3198 155.93 59.8314 157.481 64.4772L157.712 65.1558L157.07 64.8426L142.902 57.8552H143.148L142.149 58.2355C138.879 59.4352 135.404 59.975 131.925 59.8239C128.547 59.7422 125.214 59.0316 122.096 57.7285C116.191 55.2096 111.275 50.8247 108.099 45.2451C106.61 42.6886 105.512 39.9237 104.84 37.0422C104.652 36.3523 104.515 35.6494 104.43 34.9393C104.333 34.2383 104.177 33.5523 104.139 32.8513C104.012 31.4831 103.977 30.1079 104.035 28.735C104.112 26.1331 104.511 23.5508 105.221 21.0466C105.903 18.7478 106.849 16.5357 108.04 14.4545C110.096 10.8507 112.892 7.72235 116.242 5.27468C118.769 3.45122 121.578 2.05552 124.557 1.14341L126.31 0.666147C126.824 0.545141 127.344 0.450562 127.868 0.382776C128.681 0.216133 129.507 0.116369 130.337 0.0844878L131.865 0.00991723L132.365 0.00245847Z" fill="#263238"/>
<path d="M139.032 26.0131H136.966L132.387 19.7864L132.342 15.6626C132.342 15.6626 129.151 15.506 129.583 20.8826C130.016 26.2592 129.583 24.902 129.583 24.902C129.583 24.902 122.812 25.0064 122.253 25.603C121.85 26.0355 121.738 32.7693 121.716 36.4159C121.675 37.3103 121.939 38.1921 122.465 38.9169C122.99 39.6417 123.747 40.1665 124.609 40.4055C124.853 40.4653 125.104 40.4954 125.355 40.495C127.048 40.495 135.661 39.0035 135.661 39.0035L139.233 38.9588L139.032 26.0131Z" fill="#FF725E"/>
<path d="M144.93 24.8123L143.819 38.9436L140.284 38.9883L140.128 25.1553L144.93 24.8123Z" fill="#FF725E"/>
</svg>
